<?xml version="1.0" encoding="UTF-8"?><svg id="_圖層_4" xmlns="http://www.w3.org/2000/svg" viewBox="0 0 371.97 182.19"><defs><style>.cls-1{fill:#434244;}.cls-1,.cls-2,.cls-3,.cls-4,.cls-5,.cls-6,.cls-7,.cls-8,.cls-9,.cls-10,.cls-11,.cls-12{stroke-width:0px;}.cls-2{fill:#00558b;}.cls-3{fill:#007fc5;}.cls-4{fill:#d9dadc;}.cls-5{fill:#fff;}.cls-6{fill:#0064a1;}.cls-7{fill:#535456;}.cls-8{fill:#b5b7b9;}.cls-9{fill:#e3e4e5;}.cls-10{fill:#474749;}.cls-11{fill:#ced0d2;}.cls-12{fill:#009ade;}</style></defs><rect class="cls-2" x="250.51" y="83.51" width="7.59" height="7.59"/><rect class="cls-2" x="258.1" y="68.32" width="7.59" height="7.59"/><rect class="cls-2" x="258.1" y="75.92" width="7.59" height="7.59"/><rect class="cls-2" x="265.7" y="60.73" width="7.59" height="7.59"/><rect class="cls-2" x="265.7" y="45.55" width="7.59" height="7.59"/><rect class="cls-2" x="265.7" y="53.14" width="7.59" height="7.59"/><rect class="cls-2" x="273.29" y="30.37" width="7.59" height="7.59"/><rect class="cls-2" x="273.29" y="37.96" width="7.59" height="7.59"/><rect class="cls-2" x="280.88" y="22.77" width="7.59" height="7.59"/><rect class="cls-2" x="280.88" y="15.18" width="7.59" height="7.59"/><rect class="cls-2" x="288.47" y="0" width="7.59" height="7.59"/><rect class="cls-2" x="288.47" y="7.59" width="7.59" height="7.59"/><rect class="cls-2" x="258.1" y="83.51" width="7.59" height="7.59"/><rect class="cls-5" x="265.7" y="83.51" width="7.59" height="7.59"/><rect class="cls-2" x="265.7" y="68.32" width="7.59" height="7.59"/><rect class="cls-5" x="265.7" y="75.92" width="7.59" height="7.59"/><rect class="cls-2" x="273.29" y="45.55" width="7.59" height="7.59"/><rect class="cls-5" x="273.29" y="68.32" width="7.59" height="7.59"/><rect class="cls-2" x="273.29" y="53.14" width="7.59" height="7.59"/><rect class="cls-5" x="273.29" y="60.73" width="7.59" height="7.59"/><rect class="cls-2" x="280.88" y="37.96" width="7.59" height="7.59"/><rect class="cls-5" x="280.88" y="53.14" width="7.59" height="7.59"/><rect class="cls-2" x="280.88" y="30.37" width="7.59" height="7.59"/><rect class="cls-5" x="280.88" y="45.55" width="7.59" height="7.59"/><rect class="cls-2" x="288.47" y="30.37" width="7.59" height="7.59"/><rect class="cls-2" x="288.47" y="22.77" width="7.59" height="7.59"/><rect class="cls-2" x="288.47" y="15.18" width="7.59" height="7.59"/><rect class="cls-5" x="288.47" y="37.96" width="7.59" height="7.59"/><rect class="cls-2" x="0" y="136.64" width="7.59" height="7.59"/><rect class="cls-8" x="0" y="129.05" width="7.59" height="7.59"/><rect class="cls-2" x="7.59" y="144.24" width="7.59" height="7.59"/><rect class="cls-2" x="7.59" y="136.64" width="7.59" height="7.59"/><rect class="cls-4" x="7.59" y="129.05" width="7.59" height="7.59"/><rect class="cls-8" x="7.59" y="121.46" width="7.59" height="7.59"/><rect class="cls-2" x="15.18" y="151.83" width="7.59" height="7.59"/><rect class="cls-6" x="15.18" y="144.24" width="7.59" height="7.59"/><rect class="cls-6" x="15.18" y="136.64" width="7.59" height="7.59"/><rect class="cls-5" x="15.18" y="129.05" width="7.59" height="7.59"/><rect class="cls-5" x="15.18" y="121.46" width="7.59" height="7.59"/><rect class="cls-8" x="15.18" y="113.87" width="7.59" height="7.59"/><rect class="cls-2" x="22.77" y="159.42" width="7.59" height="7.59"/><rect class="cls-2" x="22.77" y="151.83" width="7.59" height="7.59"/><rect class="cls-2" x="22.77" y="144.24" width="7.59" height="7.59"/><rect class="cls-6" x="22.77" y="136.64" width="7.59" height="7.59"/><rect class="cls-4" x="22.77" y="129.05" width="7.59" height="7.59"/><rect class="cls-5" x="22.77" y="121.46" width="7.59" height="7.59"/><rect class="cls-5" x="22.77" y="113.87" width="7.59" height="7.59"/><rect class="cls-8" x="22.77" y="106.28" width="7.59" height="7.59"/><rect class="cls-2" x="30.36" y="159.42" width="7.59" height="7.59"/><rect class="cls-2" x="30.36" y="151.83" width="7.59" height="7.59"/><rect class="cls-6" x="30.36" y="144.24" width="7.59" height="7.59"/><rect class="cls-6" x="30.36" y="136.64" width="7.59" height="7.59"/><rect class="cls-5" x="30.36" y="129.05" width="7.59" height="7.59"/><rect class="cls-5" x="30.36" y="121.46" width="7.59" height="7.59"/><rect class="cls-5" x="30.36" y="113.87" width="7.59" height="7.59"/><rect class="cls-10" x="30.36" y="106.28" width="7.59" height="7.59"/><rect class="cls-2" x="37.96" y="159.42" width="7.59" height="7.59"/><rect class="cls-2" x="37.96" y="151.83" width="7.59" height="7.59"/><rect class="cls-2" x="37.96" y="144.24" width="7.59" height="7.59"/><rect class="cls-6" x="37.96" y="136.64" width="7.59" height="7.59"/><rect class="cls-4" x="37.96" y="129.05" width="7.59" height="7.59"/><rect class="cls-5" x="37.96" y="121.46" width="7.59" height="7.59"/><rect class="cls-5" x="37.96" y="113.87" width="7.59" height="7.59"/><rect class="cls-10" x="37.96" y="106.28" width="7.59" height="7.59"/><rect class="cls-8" x="37.96" y="98.69" width="7.59" height="7.59"/><rect class="cls-2" x="45.55" y="159.42" width="7.59" height="7.59"/><rect class="cls-2" x="45.55" y="151.83" width="7.59" height="7.59"/><rect class="cls-6" x="45.55" y="144.24" width="7.59" height="7.59"/><rect class="cls-6" x="45.55" y="136.64" width="7.59" height="7.59"/><rect class="cls-5" x="45.55" y="129.05" width="7.59" height="7.59"/><rect class="cls-5" x="45.55" y="121.46" width="7.59" height="7.59"/><rect class="cls-5" x="45.55" y="113.87" width="7.59" height="7.59"/><rect class="cls-10" x="45.55" y="106.28" width="7.59" height="7.59"/><rect class="cls-8" x="45.55" y="98.69" width="7.59" height="7.59"/><rect class="cls-8" x="53.14" y="167.01" width="7.59" height="7.59"/><rect class="cls-2" x="53.14" y="159.42" width="7.59" height="7.59"/><rect class="cls-2" x="53.14" y="151.83" width="7.59" height="7.59"/><rect class="cls-2" x="53.14" y="144.24" width="7.59" height="7.59"/><rect class="cls-6" x="53.14" y="136.64" width="7.59" height="7.59"/><rect class="cls-4" x="53.14" y="129.05" width="7.59" height="7.59"/><rect class="cls-5" x="53.14" y="121.46" width="7.59" height="7.59"/><rect class="cls-5" x="53.14" y="113.87" width="7.59" height="7.59"/><rect class="cls-10" x="53.14" y="106.28" width="7.59" height="7.59"/><rect class="cls-5" x="53.14" y="98.69" width="7.59" height="7.59"/><rect class="cls-8" x="53.14" y="91.1" width="7.59" height="7.59"/><rect class="cls-8" x="60.73" y="174.6" width="7.59" height="7.59"/><rect class="cls-7" x="60.73" y="167.01" width="7.59" height="7.59"/><rect class="cls-2" x="60.73" y="159.42" width="7.59" height="7.59"/><rect class="cls-2" x="60.73" y="151.83" width="7.59" height="7.59"/><rect class="cls-6" x="60.73" y="144.24" width="7.59" height="7.59"/><rect class="cls-6" x="60.73" y="136.64" width="7.59" height="7.59"/><rect class="cls-5" x="60.73" y="129.05" width="7.59" height="7.59"/><rect class="cls-5" x="60.73" y="121.46" width="7.59" height="7.59"/><rect class="cls-5" x="60.73" y="113.87" width="7.59" height="7.59"/><rect class="cls-5" x="60.73" y="106.28" width="7.59" height="7.59"/><rect class="cls-4" x="60.73" y="98.69" width="7.59" height="7.59"/><rect class="cls-8" x="60.73" y="91.1" width="7.59" height="7.59"/><rect class="cls-8" x="68.32" y="174.6" width="7.59" height="7.59"/><rect class="cls-1" x="68.32" y="167.01" width="7.59" height="7.59"/><rect class="cls-2" x="68.32" y="159.42" width="7.59" height="7.59"/><rect class="cls-2" x="68.32" y="151.83" width="7.59" height="7.59"/><rect class="cls-2" x="68.32" y="144.24" width="7.59" height="7.59"/><rect class="cls-6" x="68.32" y="136.64" width="7.59" height="7.59"/><rect class="cls-4" x="68.32" y="129.05" width="7.59" height="7.59"/><rect class="cls-5" x="68.32" y="121.46" width="7.59" height="7.59"/><rect class="cls-5" x="68.32" y="113.87" width="7.59" height="7.59"/><rect class="cls-5" x="68.32" y="106.28" width="7.59" height="7.59"/><rect class="cls-5" x="68.32" y="98.69" width="7.59" height="7.59"/><rect class="cls-8" x="68.32" y="91.1" width="7.59" height="7.59"/><rect class="cls-11" x="75.91" y="174.6" width="7.59" height="7.59"/><rect class="cls-8" x="75.91" y="167.01" width="7.59" height="7.59"/><rect class="cls-2" x="75.91" y="159.42" width="7.59" height="7.59"/><rect class="cls-2" x="75.91" y="151.83" width="7.59" height="7.59"/><rect class="cls-6" x="75.91" y="144.24" width="7.59" height="7.59"/><rect class="cls-6" x="75.91" y="136.64" width="7.59" height="7.59"/><rect class="cls-5" x="75.91" y="129.05" width="7.59" height="7.59"/><rect class="cls-5" x="75.91" y="121.46" width="7.59" height="7.59"/><rect class="cls-10" x="75.91" y="113.87" width="7.59" height="7.59"/><rect class="cls-5" x="75.91" y="106.28" width="7.59" height="7.59"/><rect class="cls-4" x="75.91" y="98.69" width="7.59" height="7.59"/><rect class="cls-8" x="75.91" y="91.1" width="7.59" height="7.59"/><rect class="cls-11" x="83.51" y="174.6" width="7.59" height="7.59"/><rect class="cls-9" x="83.51" y="167.01" width="7.59" height="7.59"/><rect class="cls-2" x="83.51" y="159.42" width="7.59" height="7.59"/><rect class="cls-2" x="83.51" y="151.83" width="7.59" height="7.59"/><rect class="cls-2" x="83.51" y="144.24" width="7.59" height="7.59"/><rect class="cls-6" x="83.51" y="136.64" width="7.59" height="7.59"/><rect class="cls-4" x="83.51" y="129.05" width="7.59" height="7.59"/><rect class="cls-5" x="83.51" y="121.46" width="7.59" height="7.59"/><rect class="cls-5" x="83.51" y="113.87" width="7.59" height="7.59"/><rect class="cls-5" x="83.51" y="106.28" width="7.59" height="7.59"/><rect class="cls-5" x="83.51" y="98.69" width="7.59" height="7.59"/><rect class="cls-8" x="83.51" y="91.1" width="7.59" height="7.59"/><rect class="cls-11" x="91.1" y="174.6" width="7.59" height="7.59"/><rect class="cls-9" x="91.1" y="167.01" width="7.59" height="7.59"/><rect class="cls-2" x="91.1" y="159.42" width="7.59" height="7.59"/><rect class="cls-2" x="91.1" y="151.83" width="7.59" height="7.59"/><rect class="cls-6" x="91.1" y="144.24" width="7.59" height="7.59"/><rect class="cls-6" x="91.1" y="136.64" width="7.59" height="7.59"/><rect class="cls-5" x="91.1" y="129.05" width="7.59" height="7.59"/><rect class="cls-5" x="91.1" y="121.46" width="7.59" height="7.59"/><rect class="cls-10" x="91.1" y="113.87" width="7.59" height="7.59"/><rect class="cls-5" x="91.1" y="106.28" width="7.59" height="7.59"/><rect class="cls-4" x="91.1" y="98.69" width="7.59" height="7.59"/><rect class="cls-8" x="91.1" y="91.1" width="7.59" height="7.59"/><rect class="cls-11" x="98.69" y="174.6" width="7.59" height="7.59"/><rect class="cls-9" x="98.69" y="167.01" width="7.59" height="7.59"/><rect class="cls-2" x="98.69" y="159.42" width="7.59" height="7.59"/><rect class="cls-2" x="98.69" y="151.83" width="7.59" height="7.59"/><rect class="cls-2" x="98.69" y="144.24" width="7.59" height="7.59"/><rect class="cls-6" x="98.69" y="136.64" width="7.59" height="7.59"/><rect class="cls-4" x="98.69" y="129.05" width="7.59" height="7.59"/><rect class="cls-5" x="98.69" y="121.46" width="7.59" height="7.59"/><rect class="cls-5" x="98.69" y="113.87" width="7.59" height="7.59"/><rect class="cls-5" x="98.69" y="106.28" width="7.59" height="7.59"/><rect class="cls-5" x="98.69" y="98.69" width="7.59" height="7.59"/><rect class="cls-8" x="98.69" y="91.1" width="7.59" height="7.59"/><rect class="cls-11" x="106.28" y="167.01" width="7.59" height="7.59"/><rect class="cls-2" x="106.28" y="159.42" width="7.59" height="7.59"/><rect class="cls-2" x="106.28" y="151.83" width="7.59" height="7.59"/><rect class="cls-6" x="106.28" y="144.24" width="7.59" height="7.59"/><rect class="cls-6" x="106.28" y="136.64" width="7.59" height="7.59"/><rect class="cls-5" x="106.28" y="129.05" width="7.59" height="7.59"/><rect class="cls-5" x="106.28" y="121.46" width="7.59" height="7.59"/><rect class="cls-10" x="106.28" y="113.87" width="7.59" height="7.59"/><rect class="cls-5" x="106.28" y="106.28" width="7.59" height="7.59"/><rect class="cls-4" x="106.28" y="98.69" width="7.59" height="7.59"/><rect class="cls-8" x="106.28" y="91.1" width="7.59" height="7.59"/><rect class="cls-2" x="113.87" y="159.42" width="7.59" height="7.59"/><rect class="cls-2" x="113.87" y="151.83" width="7.59" height="7.59"/><rect class="cls-2" x="113.87" y="144.24" width="7.59" height="7.59"/><rect class="cls-6" x="113.87" y="136.64" width="7.59" height="7.59"/><rect class="cls-4" x="113.87" y="129.05" width="7.59" height="7.59"/><rect class="cls-5" x="113.87" y="121.46" width="7.59" height="7.59"/><rect class="cls-5" x="113.87" y="113.87" width="7.59" height="7.59"/><rect class="cls-5" x="113.87" y="106.28" width="7.59" height="7.59"/><rect class="cls-5" x="113.87" y="98.69" width="7.59" height="7.59"/><rect class="cls-8" x="113.87" y="91.1" width="7.59" height="7.59"/><rect class="cls-2" x="121.46" y="159.42" width="7.59" height="7.59"/><rect class="cls-2" x="121.46" y="151.83" width="7.59" height="7.59"/><rect class="cls-6" x="121.46" y="144.24" width="7.59" height="7.59"/><rect class="cls-6" x="121.46" y="136.64" width="7.59" height="7.59"/><rect class="cls-5" x="121.46" y="129.05" width="7.59" height="7.59"/><rect class="cls-5" x="121.46" y="121.46" width="7.59" height="7.59"/><rect class="cls-5" x="121.46" y="113.87" width="7.59" height="7.59"/><rect class="cls-5" x="121.46" y="106.28" width="7.59" height="7.59"/><rect class="cls-4" x="121.46" y="98.69" width="7.59" height="7.59"/><rect class="cls-8" x="121.46" y="91.1" width="7.59" height="7.59"/><rect class="cls-2" x="129.05" y="159.42" width="7.59" height="7.59"/><rect class="cls-2" x="129.05" y="151.83" width="7.59" height="7.59"/><rect class="cls-2" x="129.05" y="144.24" width="7.59" height="7.59"/><rect class="cls-6" x="129.05" y="136.64" width="7.59" height="7.59"/><rect class="cls-4" x="129.05" y="129.05" width="7.59" height="7.59"/><rect class="cls-5" x="129.05" y="121.46" width="7.59" height="7.59"/><rect class="cls-5" x="129.05" y="113.87" width="7.59" height="7.59"/><rect class="cls-5" x="129.05" y="106.28" width="7.59" height="7.59"/><rect class="cls-5" x="129.05" y="98.69" width="7.59" height="7.59"/><rect class="cls-8" x="129.05" y="91.1" width="7.59" height="7.59"/><rect class="cls-2" x="136.64" y="159.42" width="7.59" height="7.59"/><rect class="cls-2" x="136.64" y="151.83" width="7.59" height="7.59"/><rect class="cls-6" x="136.64" y="144.24" width="7.59" height="7.59"/><rect class="cls-6" x="136.64" y="136.64" width="7.59" height="7.59"/><rect class="cls-5" x="136.64" y="129.05" width="7.59" height="7.59"/><rect class="cls-5" x="136.64" y="121.46" width="7.59" height="7.59"/><rect class="cls-10" x="136.64" y="113.87" width="7.59" height="7.59"/><rect class="cls-5" x="136.64" y="106.28" width="7.59" height="7.59"/><rect class="cls-4" x="136.64" y="98.69" width="7.59" height="7.59"/><rect class="cls-8" x="136.64" y="91.1" width="7.59" height="7.59"/><rect class="cls-2" x="144.23" y="159.42" width="7.59" height="7.59"/><rect class="cls-2" x="144.23" y="151.83" width="7.59" height="7.59"/><rect class="cls-2" x="144.23" y="144.24" width="7.59" height="7.59"/><rect class="cls-6" x="144.23" y="136.64" width="7.59" height="7.59"/><rect class="cls-4" x="144.23" y="129.05" width="7.59" height="7.59"/><rect class="cls-5" x="144.23" y="121.46" width="7.59" height="7.59"/><rect class="cls-5" x="144.23" y="113.87" width="7.59" height="7.59"/><rect class="cls-5" x="144.23" y="106.28" width="7.59" height="7.59"/><rect class="cls-5" x="144.23" y="98.69" width="7.59" height="7.59"/><rect class="cls-8" x="144.23" y="91.1" width="7.59" height="7.59"/><rect class="cls-2" x="151.83" y="159.42" width="7.59" height="7.59"/><rect class="cls-2" x="151.83" y="151.83" width="7.59" height="7.59"/><rect class="cls-6" x="151.83" y="144.24" width="7.59" height="7.59"/><rect class="cls-12" x="151.83" y="136.64" width="7.59" height="7.59"/><rect class="cls-5" x="151.83" y="129.05" width="7.59" height="7.59"/><rect class="cls-5" x="151.83" y="121.46" width="7.59" height="7.59"/><rect class="cls-10" x="151.83" y="113.87" width="7.59" height="7.59"/><rect class="cls-5" x="151.83" y="106.28" width="7.59" height="7.59"/><rect class="cls-4" x="151.83" y="98.69" width="7.59" height="7.59"/><rect class="cls-8" x="151.83" y="91.1" width="7.59" height="7.59"/><rect class="cls-2" x="159.42" y="159.42" width="7.59" height="7.59"/><rect class="cls-2" x="159.42" y="151.83" width="7.59" height="7.59"/><rect class="cls-2" x="159.42" y="144.24" width="7.59" height="7.59"/><rect class="cls-12" x="159.42" y="136.64" width="7.59" height="7.59"/><rect class="cls-4" x="159.42" y="129.05" width="7.59" height="7.59"/><rect class="cls-5" x="159.42" y="121.46" width="7.59" height="7.59"/><rect class="cls-5" x="159.42" y="113.87" width="7.59" height="7.59"/><rect class="cls-5" x="159.42" y="106.28" width="7.59" height="7.59"/><rect class="cls-5" x="159.42" y="98.69" width="7.59" height="7.59"/><rect class="cls-8" x="159.42" y="91.1" width="7.59" height="7.59"/><rect class="cls-8" x="167.01" y="167.01" width="7.59" height="7.59"/><rect class="cls-8" x="167.01" y="159.42" width="7.59" height="7.59"/><rect class="cls-8" x="167.01" y="151.83" width="7.59" height="7.59"/><rect class="cls-6" x="167.01" y="144.24" width="7.59" height="7.59"/><rect class="cls-12" x="167.01" y="136.64" width="7.59" height="7.59"/><rect class="cls-5" x="167.01" y="129.05" width="7.59" height="7.59"/><rect class="cls-5" x="167.01" y="121.46" width="7.59" height="7.59"/><rect class="cls-10" x="167.01" y="113.87" width="7.59" height="7.59"/><rect class="cls-5" x="167.01" y="106.28" width="7.59" height="7.59"/><rect class="cls-4" x="167.01" y="98.69" width="7.59" height="7.59"/><rect class="cls-8" x="167.01" y="91.1" width="7.59" height="7.59"/><rect class="cls-8" x="174.6" y="174.6" width="7.59" height="7.59"/><rect class="cls-7" x="174.6" y="167.01" width="7.59" height="7.59"/><rect class="cls-7" x="174.6" y="159.42" width="7.59" height="7.59"/><rect class="cls-7" x="174.6" y="151.83" width="7.59" height="7.59"/><rect class="cls-8" x="174.6" y="144.24" width="7.59" height="7.59"/><rect class="cls-12" x="174.6" y="136.64" width="7.59" height="7.59"/><rect class="cls-4" x="174.6" y="129.05" width="7.59" height="7.59"/><rect class="cls-5" x="174.6" y="121.46" width="7.59" height="7.59"/><rect class="cls-5" x="174.6" y="113.87" width="7.59" height="7.59"/><rect class="cls-5" x="174.6" y="106.28" width="7.59" height="7.59"/><rect class="cls-5" x="174.6" y="98.69" width="7.59" height="7.59"/><rect class="cls-8" x="174.6" y="91.1" width="7.59" height="7.59"/><rect class="cls-8" x="182.19" y="174.6" width="7.59" height="7.59"/><rect class="cls-1" x="182.19" y="167.01" width="7.59" height="7.59"/><rect class="cls-1" x="182.19" y="159.42" width="7.59" height="7.59"/><rect class="cls-1" x="182.19" y="151.83" width="7.59" height="7.59"/><rect class="cls-8" x="182.19" y="144.24" width="7.59" height="7.59"/><rect class="cls-12" x="182.19" y="136.64" width="7.59" height="7.59"/><rect class="cls-5" x="182.19" y="129.05" width="7.59" height="7.59"/><rect class="cls-5" x="182.19" y="121.46" width="7.59" height="7.59"/><rect class="cls-5" x="182.19" y="113.87" width="7.59" height="7.59"/><rect class="cls-5" x="182.19" y="106.28" width="7.59" height="7.59"/><rect class="cls-4" x="182.19" y="98.69" width="7.59" height="7.59"/><rect class="cls-8" x="182.19" y="91.1" width="7.59" height="7.59"/><rect class="cls-11" x="189.78" y="174.6" width="7.59" height="7.59"/><rect class="cls-8" x="189.78" y="167.01" width="7.59" height="7.59"/><rect class="cls-8" x="189.78" y="159.42" width="7.59" height="7.59"/><rect class="cls-8" x="189.78" y="151.83" width="7.59" height="7.59"/><rect class="cls-9" x="189.78" y="144.24" width="7.59" height="7.59"/><rect class="cls-12" x="189.78" y="136.64" width="7.59" height="7.59"/><rect class="cls-4" x="189.78" y="129.05" width="7.59" height="7.59"/><rect class="cls-5" x="189.78" y="121.46" width="7.59" height="7.59"/><rect class="cls-5" x="189.78" y="113.87" width="7.59" height="7.59"/><rect class="cls-5" x="189.78" y="106.28" width="7.59" height="7.59"/><rect class="cls-5" x="189.78" y="98.69" width="7.59" height="7.59"/><rect class="cls-8" x="189.78" y="91.1" width="7.59" height="7.59"/><rect class="cls-11" x="197.38" y="174.6" width="7.59" height="7.59"/><rect class="cls-9" x="197.38" y="167.01" width="7.59" height="7.59"/><rect class="cls-9" x="197.38" y="159.42" width="7.59" height="7.59"/><rect class="cls-5" x="197.38" y="151.83" width="7.59" height="7.59"/><rect class="cls-9" x="197.38" y="144.24" width="7.59" height="7.59"/><rect class="cls-3" x="197.38" y="136.64" width="7.59" height="7.59"/><rect class="cls-5" x="197.38" y="129.05" width="7.59" height="7.59"/><rect class="cls-5" x="197.38" y="121.46" width="7.59" height="7.59"/><rect class="cls-10" x="197.38" y="113.87" width="7.59" height="7.59"/><rect class="cls-5" x="197.38" y="106.28" width="7.59" height="7.59"/><rect class="cls-4" x="197.38" y="98.69" width="7.59" height="7.59"/><rect class="cls-8" x="197.38" y="91.1" width="7.59" height="7.59"/><rect class="cls-11" x="204.97" y="174.6" width="7.59" height="7.59"/><rect class="cls-9" x="204.97" y="167.01" width="7.59" height="7.59"/><rect class="cls-9" x="204.97" y="159.42" width="7.59" height="7.59"/><rect class="cls-5" x="204.97" y="151.83" width="7.59" height="7.59"/><rect class="cls-9" x="204.97" y="144.24" width="7.59" height="7.59"/><rect class="cls-3" x="204.97" y="136.64" width="7.59" height="7.59"/><rect class="cls-4" x="204.97" y="129.05" width="7.59" height="7.59"/><rect class="cls-5" x="204.97" y="121.46" width="7.59" height="7.59"/><rect class="cls-5" x="204.97" y="113.87" width="7.59" height="7.59"/><rect class="cls-5" x="204.97" y="106.28" width="7.59" height="7.59"/><rect class="cls-5" x="204.97" y="98.69" width="7.59" height="7.59"/><rect class="cls-8" x="204.97" y="91.1" width="7.59" height="7.59"/><rect class="cls-11" x="212.56" y="174.6" width="7.59" height="7.59"/><rect class="cls-9" x="212.56" y="167.01" width="7.59" height="7.59"/><rect class="cls-9" x="212.56" y="159.42" width="7.59" height="7.59"/><rect class="cls-5" x="212.56" y="151.83" width="7.59" height="7.59"/><rect class="cls-9" x="212.56" y="144.24" width="7.59" height="7.59"/><rect class="cls-3" x="212.56" y="136.64" width="7.59" height="7.59"/><rect class="cls-5" x="212.56" y="129.05" width="7.59" height="7.59"/><rect class="cls-5" x="212.56" y="121.46" width="7.59" height="7.59"/><rect class="cls-10" x="212.56" y="113.87" width="7.59" height="7.59"/><rect class="cls-5" x="212.56" y="106.28" width="7.59" height="7.59"/><rect class="cls-4" x="212.56" y="98.69" width="7.59" height="7.59"/><rect class="cls-8" x="212.56" y="91.1" width="7.59" height="7.59"/><rect class="cls-11" x="220.15" y="167.01" width="7.59" height="7.59"/><rect class="cls-9" x="220.15" y="159.42" width="7.59" height="7.59"/><rect class="cls-5" x="220.15" y="151.83" width="7.59" height="7.59"/><rect class="cls-6" x="220.15" y="144.24" width="7.59" height="7.59"/><rect class="cls-3" x="220.15" y="136.64" width="7.59" height="7.59"/><rect class="cls-4" x="220.15" y="129.05" width="7.59" height="7.59"/><rect class="cls-5" x="220.15" y="121.46" width="7.59" height="7.59"/><rect class="cls-5" x="220.15" y="113.87" width="7.59" height="7.59"/><rect class="cls-5" x="220.15" y="106.28" width="7.59" height="7.59"/><rect class="cls-5" x="220.15" y="98.69" width="7.59" height="7.59"/><rect class="cls-8" x="220.15" y="91.1" width="7.59" height="7.59"/><rect class="cls-2" x="227.74" y="159.42" width="7.59" height="7.59"/><rect class="cls-2" x="227.74" y="151.83" width="7.59" height="7.59"/><rect class="cls-2" x="227.74" y="144.24" width="7.59" height="7.59"/><rect class="cls-3" x="227.74" y="136.64" width="7.59" height="7.59"/><rect class="cls-5" x="227.74" y="129.05" width="7.59" height="7.59"/><rect class="cls-5" x="227.74" y="121.46" width="7.59" height="7.59"/><rect class="cls-10" x="227.74" y="113.87" width="7.59" height="7.59"/><rect class="cls-5" x="227.74" y="106.28" width="7.59" height="7.59"/><rect class="cls-4" x="227.74" y="98.69" width="7.59" height="7.59"/><rect class="cls-8" x="227.74" y="91.1" width="7.59" height="7.59"/><rect class="cls-2" x="235.33" y="159.42" width="7.59" height="7.59"/><rect class="cls-2" x="235.33" y="151.83" width="7.59" height="7.59"/><rect class="cls-6" x="235.33" y="144.24" width="7.59" height="7.59"/><rect class="cls-12" x="235.33" y="136.64" width="7.59" height="7.59"/><rect class="cls-4" x="235.33" y="129.05" width="7.59" height="7.59"/><rect class="cls-5" x="235.33" y="121.46" width="7.59" height="7.59"/><rect class="cls-5" x="235.33" y="113.87" width="7.59" height="7.59"/><rect class="cls-5" x="235.33" y="106.28" width="7.59" height="7.59"/><rect class="cls-5" x="235.33" y="98.69" width="7.59" height="7.59"/><rect class="cls-8" x="235.33" y="91.1" width="7.59" height="7.59"/><rect class="cls-2" x="242.92" y="159.42" width="7.59" height="7.59"/><rect class="cls-2" x="242.92" y="151.83" width="7.59" height="7.59"/><rect class="cls-2" x="242.92" y="144.24" width="7.59" height="7.59"/><rect class="cls-12" x="242.92" y="136.64" width="7.59" height="7.59"/><rect class="cls-5" x="242.92" y="129.05" width="7.59" height="7.59"/><rect class="cls-5" x="242.92" y="121.46" width="7.59" height="7.59"/><rect class="cls-5" x="242.92" y="113.87" width="7.59" height="7.59"/><rect class="cls-5" x="242.92" y="106.28" width="7.59" height="7.59"/><rect class="cls-4" x="242.92" y="98.69" width="7.59" height="7.59"/><rect class="cls-8" x="242.92" y="91.1" width="7.59" height="7.59"/><rect class="cls-2" x="250.51" y="159.42" width="7.59" height="7.59"/><rect class="cls-2" x="250.51" y="151.83" width="7.59" height="7.59"/><rect class="cls-6" x="250.51" y="144.24" width="7.59" height="7.59"/><rect class="cls-12" x="250.51" y="136.64" width="7.59" height="7.59"/><rect class="cls-4" x="250.51" y="129.05" width="7.59" height="7.59"/><rect class="cls-5" x="250.51" y="121.46" width="7.59" height="7.59"/><rect class="cls-5" x="250.51" y="113.87" width="7.59" height="7.59"/><rect class="cls-5" x="250.51" y="106.28" width="7.59" height="7.59"/><rect class="cls-5" x="250.51" y="98.69" width="7.59" height="7.59"/><rect class="cls-8" x="250.51" y="91.1" width="7.59" height="7.59"/><rect class="cls-2" x="258.1" y="151.83" width="7.59" height="7.59"/><rect class="cls-2" x="258.1" y="144.24" width="7.59" height="7.59"/><rect class="cls-3" x="258.1" y="136.64" width="7.59" height="7.59"/><rect class="cls-5" x="258.1" y="129.05" width="7.59" height="7.59"/><rect class="cls-5" x="258.1" y="121.46" width="7.59" height="7.59"/><rect class="cls-10" x="258.1" y="113.87" width="7.59" height="7.59"/><rect class="cls-5" x="258.1" y="106.28" width="7.59" height="7.59"/><rect class="cls-4" x="258.1" y="98.69" width="7.59" height="7.59"/><rect class="cls-2" x="258.1" y="91.1" width="7.59" height="7.59"/><rect class="cls-2" x="265.7" y="144.24" width="7.59" height="7.59"/><rect class="cls-3" x="265.7" y="136.64" width="7.59" height="7.59"/><rect class="cls-4" x="265.7" y="129.05" width="7.59" height="7.59"/><rect class="cls-5" x="265.7" y="121.46" width="7.59" height="7.59"/><rect class="cls-5" x="265.7" y="113.87" width="7.59" height="7.59"/><rect class="cls-5" x="265.7" y="106.28" width="7.59" height="7.59"/><rect class="cls-5" x="265.7" y="98.69" width="7.59" height="7.59"/><rect class="cls-2" x="265.7" y="91.1" width="7.59" height="7.59"/><rect class="cls-3" x="273.29" y="136.64" width="7.59" height="7.59"/><rect class="cls-5" x="273.29" y="129.05" width="7.59" height="7.59"/><rect class="cls-5" x="273.29" y="121.46" width="7.59" height="7.59"/><rect class="cls-10" x="273.29" y="113.87" width="7.59" height="7.59"/><rect class="cls-5" x="273.29" y="106.28" width="7.59" height="7.59"/><rect class="cls-4" x="273.29" y="98.69" width="7.59" height="7.59"/><rect class="cls-2" x="273.29" y="91.1" width="7.59" height="7.59"/><rect class="cls-5" x="273.29" y="83.51" width="7.59" height="7.59"/><rect class="cls-5" x="273.29" y="75.92" width="7.59" height="7.59"/><rect class="cls-3" x="280.88" y="136.64" width="7.59" height="7.59"/><rect class="cls-4" x="280.88" y="129.05" width="7.59" height="7.59"/><rect class="cls-5" x="280.88" y="121.46" width="7.59" height="7.59"/><rect class="cls-5" x="280.88" y="113.87" width="7.59" height="7.59"/><rect class="cls-5" x="280.88" y="106.28" width="7.59" height="7.59"/><rect class="cls-5" x="280.88" y="98.69" width="7.59" height="7.59"/><rect class="cls-2" x="280.88" y="91.1" width="7.59" height="7.59"/><rect class="cls-5" x="280.88" y="83.51" width="7.59" height="7.59"/><rect class="cls-5" x="280.88" y="75.92" width="7.59" height="7.59"/><rect class="cls-5" x="280.88" y="68.32" width="7.59" height="7.59"/><rect class="cls-5" x="280.88" y="60.73" width="7.59" height="7.59"/><rect class="cls-3" x="288.47" y="136.64" width="7.59" height="7.59"/><rect class="cls-2" x="288.47" y="129.05" width="7.59" height="7.59"/><rect class="cls-5" x="288.47" y="121.46" width="7.59" height="7.59"/><rect class="cls-5" x="288.47" y="113.87" width="7.59" height="7.59"/><rect class="cls-5" x="288.47" y="106.28" width="7.59" height="7.59"/><rect class="cls-4" x="288.47" y="98.69" width="7.59" height="7.59"/><rect class="cls-2" x="288.47" y="91.1" width="7.59" height="7.59"/><rect class="cls-5" x="288.47" y="83.51" width="7.59" height="7.59"/><rect class="cls-5" x="288.47" y="75.92" width="7.59" height="7.59"/><rect class="cls-5" x="288.47" y="68.32" width="7.59" height="7.59"/><rect class="cls-5" x="288.47" y="60.73" width="7.59" height="7.59"/><rect class="cls-5" x="288.47" y="53.14" width="7.59" height="7.59"/><rect class="cls-5" x="288.47" y="45.55" width="7.59" height="7.59"/><rect class="cls-3" x="296.06" y="136.64" width="7.59" height="7.59"/><rect class="cls-2" x="296.06" y="129.05" width="7.59" height="7.59"/><rect class="cls-5" x="296.06" y="121.46" width="7.59" height="7.59"/><rect class="cls-5" x="296.06" y="113.87" width="7.59" height="7.59"/><rect class="cls-5" x="296.06" y="106.28" width="7.59" height="7.59"/><rect class="cls-2" x="296.06" y="98.69" width="7.59" height="7.59"/><rect class="cls-2" x="296.06" y="91.1" width="7.59" height="7.59"/><rect class="cls-5" x="296.06" y="83.51" width="7.59" height="7.59"/><rect class="cls-2" x="296.06" y="75.92" width="7.59" height="7.59"/><rect class="cls-5" x="296.06" y="68.32" width="7.59" height="7.59"/><rect class="cls-2" x="296.06" y="60.73" width="7.59" height="7.59"/><rect class="cls-5" x="296.06" y="53.14" width="7.59" height="7.59"/><rect class="cls-2" x="296.06" y="45.55" width="7.59" height="7.59"/><rect class="cls-5" x="296.06" y="37.96" width="7.59" height="7.59"/><rect class="cls-2" x="296.06" y="30.37" width="7.59" height="7.59"/><rect class="cls-2" x="296.06" y="22.77" width="7.59" height="7.59"/><rect class="cls-2" x="296.06" y="15.18" width="7.59" height="7.59"/><rect class="cls-2" x="296.06" y="7.59" width="7.59" height="7.59"/><rect class="cls-2" x="296.06" y="0" width="7.59" height="7.59"/><rect class="cls-12" x="303.65" y="136.64" width="7.59" height="7.59"/><rect class="cls-2" x="303.65" y="121.46" width="7.59" height="7.59"/><rect class="cls-2" x="303.65" y="113.87" width="7.59" height="7.59"/><rect class="cls-2" x="303.65" y="106.28" width="7.59" height="7.59"/><rect class="cls-12" x="311.25" y="136.64" width="7.59" height="7.59"/><rect class="cls-12" x="318.84" y="136.64" width="7.59" height="7.59"/><rect class="cls-12" x="326.43" y="136.64" width="7.59" height="7.59"/><rect class="cls-3" x="334.02" y="136.64" width="7.59" height="7.59"/><rect class="cls-3" x="341.61" y="136.64" width="7.59" height="7.59"/><rect class="cls-12" x="349.2" y="136.64" width="7.59" height="7.59"/><rect class="cls-12" x="356.79" y="136.64" width="7.59" height="7.59"/><rect class="cls-3" x="364.38" y="136.64" width="7.59" height="7.59"/></svg>