<?xml version="1.0" encoding="UTF-8"?><svg id="_圖層_1" xmlns="http://www.w3.org/2000/svg" viewBox="0 0 520 520"><defs><style>.cls-1{fill:#e73c44;}.cls-1,.cls-2,.cls-3,.cls-4,.cls-5,.cls-6,.cls-7,.cls-8,.cls-9,.cls-10,.cls-11{stroke-width:0px;}.cls-2{fill:#231815;}.cls-3{fill:#ccae79;}.cls-4{fill:#a77825;}.cls-5{fill:#44180a;}.cls-6{fill:#210f0a;}.cls-7{fill:#512311;}.cls-8{fill:#fff;}.cls-9{fill:#f7da9f;}.cls-10{fill:#db9526;}.cls-11{fill:#e94e70;}</style></defs><polygon class="cls-2" points="500.8 245.57 500.8 233.73 489.81 233.73 489.81 228.02 478.82 228.02 478.82 222.74 445.85 222.74 445.85 217.03 434.86 217.03 434.86 195.05 423.87 195.05 423.87 173.07 412.88 173.07 412.88 162.08 401.88 162.08 401.88 151.09 368.91 151.09 368.91 140.1 357.92 140.1 357.92 107.13 346.93 107.13 346.93 96.14 324.95 96.14 324.95 85.15 260.99 85.15 260.99 96.14 228.02 96.14 228.02 107.13 217.03 107.13 217.03 118.12 206.04 118.12 206.04 129.11 162.08 129.11 162.08 140.1 151.09 140.1 151.09 151.09 118.12 151.09 118.12 162.08 107.13 162.08 107.13 173.07 96.14 173.07 96.14 195.05 85.15 195.05 85.15 217.03 74.16 217.03 74.16 222.74 41.18 222.74 41.18 228.02 30.19 228.02 30.19 233.73 19.2 233.73 19.2 245.57 8.21 245.57 8.21 287.55 14.51 287.55 14.51 302.97 25.5 302.97 25.5 313.96 30.19 313.96 30.19 379.9 41.18 379.9 41.18 390.89 63.17 390.89 63.17 401.88 85.15 401.88 85.15 412.87 107.13 412.87 107.13 423.86 129.11 423.86 129.11 434.85 390.89 434.85 390.89 423.86 412.88 423.86 412.88 412.87 434.86 412.87 434.86 401.88 456.84 401.88 456.84 390.89 478.82 390.89 478.82 379.9 489.81 379.9 489.81 313.96 494.5 313.96 494.5 302.97 505.49 302.97 505.49 287.55 511.79 287.55 511.79 245.57 500.8 245.57"/><polygon class="cls-10" points="294.54 111.38 239.36 122.78 220.42 150.1 187.27 154.96 149.61 175.74 128.12 183.07 84.15 257.22 51.18 308.86 51.18 354.28 77.32 380.89 157.92 413.86 374.61 413.86 471.16 362.38 468.82 292.97 413.86 216.04 380.89 172.08 347.92 161.09 321.32 146.92 282.83 139.11 294.54 111.38"/><path class="cls-9" d="m209.75,208.37l-44.84,7.67-21.98,10.99-21.98,21.98-7.78,26.88v32.97l22.36,53.51,46.74,29.5s153.86,5.17,153.86,0,52.8-40.49,52.8-40.49l13.14-30.59,4.74-43.25-20.35-40.44-32.97-23.82-43.96-3.33-35.24,17.04h-28.8l-35.75-18.62Z"/><rect class="cls-9" x="249.01" y="216.04" width="21.98" height="21.98"/><rect class="cls-9" x="227.03" y="210.83" width="21.98" height="21.98"/><rect class="cls-9" x="205.05" y="199.84" width="21.98" height="21.98"/><rect class="cls-9" x="161.09" y="205.01" width="21.98" height="21.98"/><rect class="cls-9" x="139.11" y="209.96" width="21.98" height="21.98"/><rect class="cls-9" x="128.12" y="220.95" width="21.98" height="21.98"/><rect class="cls-9" x="117.13" y="231.94" width="21.98" height="21.98"/><rect class="cls-9" x="106.14" y="253.92" width="21.98" height="21.98"/><rect class="cls-9" x="99.77" y="275.89" width="21.98" height="21.98"/><rect class="cls-9" x="99.77" y="297.87" width="21.98" height="21.98"/><rect class="cls-9" x="110.76" y="319.85" width="21.98" height="21.98"/><rect class="cls-9" x="121.75" y="341.83" width="21.98" height="21.98"/><rect class="cls-9" x="132.74" y="351.39" width="21.98" height="21.98"/><rect class="cls-9" x="143.73" y="362.38" width="21.98" height="21.98"/><rect class="cls-9" x="154.72" y="373.37" width="21.98" height="21.98"/><rect class="cls-9" x="176.7" y="379.22" width="87.44" height="21.98"/><rect class="cls-9" x="198.68" y="379.22" width="21.98" height="21.98"/><rect class="cls-9" x="220.66" y="379.22" width="21.98" height="21.98"/><rect class="cls-9" x="242.64" y="379.22" width="21.98" height="21.98"/><rect class="cls-9" x="183.07" y="199.84" width="25.88" height="21.98"/><rect class="cls-9" x="249.01" y="216.04" width="21.98" height="21.98"/><rect class="cls-9" x="270.99" y="210.83" width="21.98" height="21.98"/><rect class="cls-9" x="292.97" y="199.84" width="21.98" height="21.98"/><rect class="cls-9" x="336.93" y="205.01" width="21.98" height="21.98"/><rect class="cls-9" x="358.91" y="209.96" width="21.98" height="21.98"/><rect class="cls-9" x="369.9" y="220.95" width="21.98" height="21.98"/><rect class="cls-9" x="380.89" y="231.94" width="21.98" height="21.98"/><rect class="cls-9" x="391.88" y="253.92" width="21.98" height="21.98"/><rect class="cls-9" x="398.25" y="275.89" width="21.98" height="21.98"/><rect class="cls-9" x="398.25" y="297.87" width="21.98" height="21.98"/><rect class="cls-9" x="387.26" y="319.85" width="21.98" height="21.98"/><rect class="cls-9" x="376.27" y="341.83" width="21.98" height="21.98"/><rect class="cls-9" x="365.28" y="351.39" width="21.98" height="21.98"/><rect class="cls-9" x="354.29" y="362.38" width="21.98" height="21.98"/><rect class="cls-9" x="343.3" y="373.37" width="21.98" height="21.98"/><rect class="cls-9" x="255.85" y="379.22" width="87.44" height="21.98"/><rect class="cls-9" x="299.34" y="379.22" width="21.98" height="21.98"/><rect class="cls-9" x="277.36" y="379.22" width="21.98" height="21.98"/><rect class="cls-9" x="255.38" y="379.22" width="21.98" height="21.98"/><rect class="cls-9" x="311.06" y="199.84" width="25.88" height="21.98"/><rect class="cls-9" x="270.99" y="210.83" width="21.98" height="21.98"/><rect class="cls-4" x="251.79" y="274.3" width="16.43" height="16.43"/><rect class="cls-4" x="243.57" y="270.46" width="16.43" height="16.43"/><rect class="cls-4" x="260" y="270.46" width="16.43" height="16.43"/><rect class="cls-4" x="235.3" y="274.3" width="16.43" height="16.43"/><rect class="cls-4" x="268.27" y="274.3" width="16.43" height="16.43"/><rect class="cls-10" x="270.99" y="402.87" width="21.98" height="21.98"/><rect class="cls-10" x="249.01" y="402.87" width="21.98" height="21.98"/><rect class="cls-10" x="227.03" y="402.87" width="21.98" height="21.98"/><rect class="cls-10" x="205.05" y="402.87" width="21.98" height="21.98"/><rect class="cls-10" x="183.07" y="402.87" width="21.98" height="21.98"/><rect class="cls-10" x="161.09" y="402.87" width="21.98" height="21.98"/><rect class="cls-10" x="139.11" y="402.87" width="21.98" height="21.98"/><rect class="cls-10" x="117.13" y="391.88" width="21.98" height="21.98"/><rect class="cls-10" x="95.15" y="380.89" width="21.98" height="21.98"/><rect class="cls-10" x="73.16" y="369.9" width="21.98" height="21.98"/><rect class="cls-10" x="51.18" y="358.91" width="21.98" height="21.98"/><rect class="cls-10" x="40.19" y="347.92" width="21.98" height="21.98"/><rect class="cls-10" x="40.19" y="325.94" width="21.98" height="21.98"/><rect class="cls-10" x="40.19" y="303.96" width="21.98" height="21.98"/><rect class="cls-10" x="51.18" y="292.97" width="21.98" height="21.98"/><rect class="cls-10" x="62.17" y="270.99" width="21.98" height="21.98"/><rect class="cls-10" x="73.16" y="249.01" width="21.98" height="21.98"/><rect class="cls-10" x="84.15" y="227.03" width="21.98" height="21.98"/><rect class="cls-10" x="95.15" y="205.05" width="21.98" height="21.98"/><rect class="cls-10" x="106.14" y="183.07" width="21.98" height="21.98"/><rect class="cls-10" x="117.13" y="172.08" width="21.98" height="21.98"/><rect class="cls-10" x="128.12" y="161.09" width="21.98" height="21.98"/><rect class="cls-10" x="150.1" y="161.09" width="21.98" height="21.98"/><rect class="cls-10" x="161.09" y="150.1" width="21.98" height="21.98"/><rect class="cls-10" x="172.08" y="139.11" width="21.98" height="21.98"/><rect class="cls-10" x="194.06" y="139.11" width="21.98" height="21.98"/><rect class="cls-10" x="205.05" y="139.11" width="21.98" height="21.98"/><rect class="cls-10" x="216.04" y="128.12" width="21.98" height="21.98"/><rect class="cls-10" x="227.03" y="117.13" width="21.98" height="21.98"/><rect class="cls-10" x="238.02" y="106.14" width="21.98" height="21.98"/><rect class="cls-10" x="292.97" y="95.15" width="21.98" height="21.98"/><rect class="cls-10" x="314.95" y="106.14" width="21.98" height="21.98"/><rect class="cls-10" x="325.94" y="117.13" width="21.98" height="26.6"/><rect class="cls-10" x="275.09" y="106.14" width="39.86" height="21.98"/><rect class="cls-10" x="249.01" y="402.87" width="21.98" height="21.98"/><rect class="cls-10" x="270.99" y="402.87" width="21.98" height="21.98"/><rect class="cls-10" x="292.97" y="402.87" width="21.98" height="21.98"/><rect class="cls-10" x="314.95" y="402.87" width="21.98" height="21.98"/><rect class="cls-10" x="336.93" y="402.87" width="21.98" height="21.98"/><rect class="cls-10" x="358.91" y="402.87" width="21.98" height="21.98"/><rect class="cls-10" x="380.89" y="391.88" width="21.98" height="21.98"/><rect class="cls-10" x="402.87" y="380.89" width="21.98" height="21.98"/><rect class="cls-10" x="424.85" y="369.9" width="21.98" height="21.98"/><rect class="cls-10" x="446.84" y="358.91" width="21.98" height="21.98"/><rect class="cls-10" x="457.83" y="347.92" width="21.98" height="21.98"/><rect class="cls-10" x="457.83" y="325.94" width="21.98" height="21.98"/><rect class="cls-10" x="457.83" y="303.96" width="21.98" height="21.98"/><rect class="cls-10" x="446.84" y="292.97" width="21.98" height="21.98"/><rect class="cls-10" x="435.85" y="270.99" width="21.98" height="21.98"/><rect class="cls-10" x="424.85" y="249.01" width="21.98" height="21.98"/><rect class="cls-10" x="413.86" y="227.03" width="21.98" height="21.98"/><rect class="cls-10" x="402.87" y="205.05" width="21.98" height="21.98"/><rect class="cls-10" x="391.88" y="183.07" width="21.98" height="21.98"/><rect class="cls-10" x="380.89" y="172.08" width="21.98" height="21.98"/><rect class="cls-10" x="369.9" y="161.09" width="21.98" height="21.98"/><rect class="cls-10" x="347.92" y="161.09" width="21.98" height="21.98"/><rect class="cls-10" x="336.93" y="150.1" width="21.98" height="21.98"/><rect class="cls-10" x="325.94" y="139.11" width="21.98" height="21.98"/><rect class="cls-10" x="303.96" y="139.11" width="21.98" height="21.98"/><rect class="cls-10" x="292.97" y="139.11" width="21.98" height="21.98"/><rect class="cls-10" x="281.98" y="128.12" width="21.98" height="21.98"/><rect class="cls-10" x="270.99" y="95.15" width="21.98" height="21.98"/><rect class="cls-10" x="270.99" y="117.13" width="21.98" height="21.98"/><rect class="cls-10" x="260" y="106.14" width="21.98" height="21.98"/><rect class="cls-10" x="336.93" y="402.87" width="21.98" height="21.98"/><rect class="cls-10" x="314.95" y="402.87" width="21.98" height="21.98"/><rect class="cls-10" x="292.97" y="402.87" width="21.98" height="21.98"/><rect class="cls-7" x="342.43" y="240.8" width="16.43" height="16.43"/><rect class="cls-7" x="350.3" y="237.11" width="16.43" height="16.43"/><rect class="cls-7" x="358.52" y="234.71" width="16.43" height="16.43"/><rect class="cls-7" x="366.4" y="231.94" width="16.43" height="16.43"/><rect class="cls-5" x="353.42" y="264.9" width="21.98" height="21.98"/><rect class="cls-5" x="342.43" y="275.89" width="21.98" height="21.98"/><rect class="cls-5" x="364.41" y="275.89" width="21.98" height="21.98"/><rect class="cls-5" x="353.42" y="286.88" width="21.98" height="21.98"/><rect class="cls-5" x="358.91" y="270.4" width="21.98" height="21.98"/><rect class="cls-5" x="347.92" y="270.4" width="21.98" height="21.98"/><rect class="cls-5" x="358.91" y="281.39" width="21.98" height="21.98"/><rect class="cls-5" x="347.92" y="281.39" width="21.98" height="21.98"/><rect class="cls-6" x="353.42" y="275.89" width="21.98" height="21.98"/><rect class="cls-8" x="347.92" y="270.4" width="10.5" height="10.5"/><rect class="cls-8" x="364.89" y="286.88" width="10.5" height="10.5"/><rect class="cls-7" x="157.58" y="240.8" width="16.43" height="16.43"/><rect class="cls-7" x="149.7" y="237.11" width="16.43" height="16.43"/><rect class="cls-7" x="141.49" y="234.71" width="16.43" height="16.43"/><rect class="cls-7" x="133.61" y="231.94" width="16.43" height="16.43"/><rect class="cls-5" x="144.6" y="264.9" width="21.98" height="21.98"/><rect class="cls-5" x="133.61" y="275.89" width="21.98" height="21.98"/><rect class="cls-5" x="155.59" y="275.89" width="21.98" height="21.98"/><rect class="cls-5" x="144.6" y="286.88" width="21.98" height="21.98"/><rect class="cls-5" x="150.1" y="270.4" width="21.98" height="21.98"/><rect class="cls-5" x="139.11" y="270.4" width="21.98" height="21.98"/><rect class="cls-5" x="150.1" y="281.39" width="21.98" height="21.98"/><rect class="cls-5" x="139.11" y="281.39" width="21.98" height="21.98"/><rect class="cls-6" x="144.6" y="275.89" width="21.98" height="21.98"/><rect class="cls-8" x="139.11" y="270.4" width="10.5" height="10.5"/><rect class="cls-8" x="156.08" y="286.88" width="10.5" height="10.5"/><rect class="cls-1" x="260" y="320.8" width="21.98" height="21.98"/><rect class="cls-1" x="281.98" y="320.8" width="21.98" height="21.98"/><rect class="cls-1" x="249.01" y="315.09" width="21.98" height="21.98"/><rect class="cls-1" x="238.02" y="320.8" width="21.98" height="21.98"/><rect class="cls-1" x="216.04" y="320.79" width="74.79" height="21.98"/><rect class="cls-1" x="227.03" y="332.31" width="21.98" height="21.98"/><rect class="cls-1" x="239.36" y="342.81" width="21.98" height="21.98"/><rect class="cls-1" x="271.84" y="332.31" width="21.98" height="21.98"/><rect class="cls-11" x="239.36" y="342.81" width="43.96" height="21.98"/><rect class="cls-9" x="457.83" y="270.99" width="21.98" height="21.98"/><rect class="cls-9" x="457.83" y="253.54" width="21.98" height="21.98"/><rect class="cls-10" x="457.83" y="281.98" width="26.67" height="21.98"/><rect class="cls-10" x="473.51" y="270.99" width="21.98" height="21.98"/><rect class="cls-10" x="479.81" y="255.57" width="21.98" height="21.98"/><rect class="cls-10" x="468.82" y="243.73" width="21.98" height="21.98"/><rect class="cls-10" x="446.84" y="232.74" width="21.98" height="21.98"/><rect class="cls-10" x="457.83" y="238.02" width="21.98" height="21.98"/><rect class="cls-10" x="435.85" y="238.02" width="21.98" height="21.98"/><rect class="cls-9" x="446.84" y="249.01" width="21.98" height="21.98"/><rect class="cls-3" x="446.84" y="270.99" width="10.99" height="10.99"/><rect class="cls-3" x="452.33" y="265.49" width="10.99" height="10.99"/><rect class="cls-9" x="40.19" y="270.99" width="21.98" height="21.98"/><rect class="cls-9" x="40.19" y="253.54" width="21.98" height="21.98"/><rect class="cls-10" x="35.5" y="281.98" width="26.67" height="21.98"/><rect class="cls-10" x="24.51" y="270.99" width="21.98" height="21.98"/><rect class="cls-10" x="18.21" y="255.57" width="21.98" height="21.98"/><rect class="cls-10" x="29.2" y="243.73" width="21.98" height="21.98"/><rect class="cls-10" x="51.18" y="232.74" width="21.98" height="21.98"/><rect class="cls-10" x="40.19" y="238.02" width="21.98" height="21.98"/><rect class="cls-10" x="62.17" y="238.02" width="21.98" height="21.98"/><rect class="cls-9" x="51.18" y="249.01" width="21.98" height="21.98"/><rect class="cls-3" x="62.17" y="270.99" width="10.99" height="10.99"/><rect class="cls-3" x="56.68" y="265.49" width="10.99" height="10.99"/></svg>