<?xml version="1.0" encoding="UTF-8"?><svg id="_圖層_1" xmlns="http://www.w3.org/2000/svg" viewBox="0 0 520 520"><defs><style>.cls-1{fill:#e62474;}.cls-1,.cls-2,.cls-3,.cls-4,.cls-5,.cls-6,.cls-7,.cls-8,.cls-9,.cls-10,.cls-11,.cls-12,.cls-13,.cls-14,.cls-15,.cls-16{stroke-width:0px;}.cls-2{fill:#e73c44;}.cls-3{fill:#fada9f;}.cls-4{fill:#231815;}.cls-5{fill:#ccae79;}.cls-6{fill:#a77825;}.cls-7{fill:#44180a;}.cls-8{fill:#21297b;}.cls-9{fill:#210f0a;}.cls-10{fill:#512311;}.cls-11{fill:#fff;}.cls-12{fill:#343d72;}.cls-13{fill:#f7da9f;}.cls-14{fill:#5e83a0;}.cls-15{fill:#db9526;}.cls-16{fill:#e94e70;}</style></defs><polygon class="cls-4" points="142.28 508.3 142.28 497.18 120.3 497.18 120.3 486.05 109.31 486.05 109.31 443.8 120.3 443.8 120.3 430.3 118.3 430.3 118.3 430.31 96.3 430.31 96.3 441.31 85.3 441.31 85.3 463.31 43.3 463.31 43.3 452.31 32.3 452.31 32.3 410.31 43.3 410.31 43.3 399.31 54.3 399.31 54.3 388.31 76.3 388.31 76.3 377.31 87.31 377.31 87.31 366.31 98.37 366.31 98.37 355.32 142.28 355.32 142.28 345.31 377.71 345.31 377.71 355.31 421.66 355.31 421.66 366.31 432.65 366.31 432.65 377.31 443.66 377.31 443.66 388.31 465.65 388.31 465.65 399.31 476.65 399.31 476.65 410.31 487.65 410.31 487.65 452.31 476.65 452.31 476.65 463.31 434.65 463.31 434.65 441.31 423.65 441.31 423.65 430.31 401.66 430.31 401.66 430.3 399.7 430.3 399.7 443.8 410.69 443.8 410.69 486.05 399.7 486.05 399.7 497.18 377.72 497.18 377.72 508.3 142.28 508.3"/><polygon class="cls-4" points="500.8 176.03 500.8 164.19 489.81 164.19 489.81 158.48 478.82 158.48 478.82 153.2 445.85 153.2 445.85 147.49 434.86 147.49 434.86 125.51 423.87 125.51 423.87 103.53 412.88 103.53 412.88 92.54 401.88 92.54 401.88 81.55 368.91 81.55 368.91 70.56 357.92 70.56 357.92 37.59 346.93 37.59 346.93 26.6 324.95 26.6 324.95 15.61 260.99 15.61 260.99 26.6 228.02 26.6 228.02 37.59 217.03 37.59 217.03 48.58 206.04 48.58 206.04 59.57 162.08 59.57 162.08 70.56 151.09 70.56 151.09 81.55 118.12 81.55 118.12 92.54 107.13 92.54 107.13 103.53 96.14 103.53 96.14 125.51 85.15 125.51 85.15 147.49 74.16 147.49 74.16 153.2 41.18 153.2 41.18 158.48 30.19 158.48 30.19 164.19 19.2 164.19 19.2 176.03 8.21 176.03 8.21 218.01 14.51 218.01 14.51 233.43 25.5 233.43 25.5 244.42 30.19 244.42 30.19 310.36 41.18 310.36 41.18 321.35 63.17 321.35 63.17 332.34 85.15 332.34 85.15 343.33 107.13 343.33 107.13 354.32 129.11 354.32 129.11 365.31 390.89 365.31 390.89 354.32 412.88 354.32 412.88 343.33 434.86 343.33 434.86 332.34 456.84 332.34 456.84 321.35 478.82 321.35 478.82 310.36 489.81 310.36 489.81 244.42 494.5 244.42 494.5 233.43 505.49 233.43 505.49 218.01 511.79 218.01 511.79 176.03 500.8 176.03"/><path class="cls-15" d="m469.19,234.42l-.37-10.99-10.99-15.39v-6.59h-4.71l-6.28-8.79v-13.19h-9.42l-1.57-2.2v-19.78h-10.99v-21.98h-10.99v-21.98h-10.99v-10.99h-10.99v-10.99h-32.97v-10.99h-10.99v-32.97h-10.99v-10.99h-21.98v-10.99h-43.96v10.99h-32.97v10.99h-10.99v10.99h-10.99v10.99h-43.96v10.99h-10.99v10.99h-32.97v10.99h-10.99v10.99h-10.99v21.98h-10.99v21.98h-10.99v21.98h-10.99v21.98h-10.99v20.66l-.84,1.32h-10.15v10.99h-10.99v65.94h10.99v10.99h21.98v10.99h21.98v10.99h21.98v10.99h21.98v10.99h241.79v-10.99h21.98v-10.99h21.98v-10.99h21.98v-10.99h21.98v-10.99h10.99v-65.94h-10.62ZM325.94,58.58v10.99h-21.98v-10.99h21.98Z"/><polygon class="cls-13" points="413.86 206.36 413.86 184.38 402.87 184.38 402.87 162.4 391.88 162.4 391.88 151.41 380.89 151.41 380.89 140.42 358.91 140.42 358.91 135.47 336.93 135.47 336.93 142.49 336.93 142.49 336.93 130.31 311.06 130.31 311.06 130.31 292.97 130.31 292.97 141.3 270.99 141.3 270.99 146.5 249.01 146.5 249.01 141.3 227.03 141.3 227.03 130.31 208.94 130.31 208.94 130.31 183.07 130.31 183.07 143.4 183.07 143.4 183.07 135.47 161.09 135.47 161.09 140.42 139.11 140.42 139.11 151.41 128.12 151.41 128.12 162.4 117.13 162.4 117.13 184.38 106.14 184.38 106.14 206.36 99.77 206.36 99.77 228.34 99.77 250.32 110.76 250.32 110.76 272.3 121.75 272.3 121.75 294.28 132.74 294.28 132.74 303.83 143.73 303.83 143.73 314.82 154.72 314.82 154.72 325.81 176.7 325.81 176.7 318.82 176.7 318.82 176.7 331.66 198.68 331.66 198.68 331.66 220.66 331.66 242.64 331.66 255.38 331.66 264.62 331.66 277.36 331.66 299.34 331.66 321.32 331.66 321.32 331.66 343.3 331.66 343.3 314.73 343.3 314.73 343.3 325.81 365.28 325.81 365.28 314.82 376.27 314.82 376.27 303.83 387.26 303.83 387.26 294.28 398.25 294.28 398.25 272.3 409.24 272.3 409.24 250.32 420.23 250.32 420.23 228.34 420.23 206.36 413.86 206.36"/><polygon class="cls-6" points="276.43 204.76 276.43 200.92 260 200.92 243.57 200.92 243.57 204.76 235.3 204.76 235.3 221.19 251.73 221.19 251.73 217.35 251.79 217.35 251.79 221.19 268.21 221.19 268.21 217.35 268.27 217.35 268.27 221.19 284.7 221.19 284.7 204.76 276.43 204.76"/><rect class="cls-10" x="342.43" y="171.26" width="16.43" height="16.43"/><rect class="cls-10" x="350.3" y="167.57" width="16.43" height="16.43"/><rect class="cls-10" x="358.52" y="165.18" width="16.43" height="16.43"/><rect class="cls-10" x="366.4" y="162.4" width="16.43" height="16.43"/><rect class="cls-7" x="353.42" y="195.37" width="21.98" height="21.98"/><rect class="cls-7" x="342.43" y="206.36" width="21.98" height="21.98"/><rect class="cls-7" x="364.41" y="206.36" width="21.98" height="21.98"/><rect class="cls-7" x="353.42" y="217.35" width="21.98" height="21.98"/><rect class="cls-7" x="358.91" y="200.86" width="21.98" height="21.98"/><rect class="cls-7" x="347.92" y="200.86" width="21.98" height="21.98"/><rect class="cls-7" x="358.91" y="211.85" width="21.98" height="21.98"/><rect class="cls-7" x="347.92" y="211.85" width="21.98" height="21.98"/><rect class="cls-9" x="353.42" y="206.36" width="21.98" height="21.98"/><rect class="cls-11" x="347.92" y="200.86" width="10.5" height="10.5"/><rect class="cls-11" x="364.89" y="217.35" width="10.5" height="10.5"/><rect class="cls-10" x="157.58" y="171.26" width="16.43" height="16.43"/><rect class="cls-10" x="149.7" y="167.57" width="16.43" height="16.43"/><rect class="cls-10" x="141.49" y="165.18" width="16.43" height="16.43"/><rect class="cls-10" x="133.61" y="162.4" width="16.43" height="16.43"/><rect class="cls-7" x="144.6" y="195.37" width="21.98" height="21.98"/><rect class="cls-7" x="133.61" y="206.36" width="21.98" height="21.98"/><rect class="cls-7" x="155.59" y="206.36" width="21.98" height="21.98"/><rect class="cls-7" x="144.6" y="217.35" width="21.98" height="21.98"/><rect class="cls-7" x="150.1" y="200.86" width="21.98" height="21.98"/><rect class="cls-7" x="139.11" y="200.86" width="21.98" height="21.98"/><rect class="cls-7" x="150.1" y="211.85" width="21.98" height="21.98"/><rect class="cls-7" x="139.11" y="211.85" width="21.98" height="21.98"/><rect class="cls-9" x="144.6" y="206.36" width="21.98" height="21.98"/><rect class="cls-11" x="139.11" y="200.86" width="10.5" height="10.5"/><rect class="cls-11" x="156.08" y="217.35" width="10.5" height="10.5"/><rect class="cls-2" x="260" y="251.26" width="21.98" height="21.98"/><rect class="cls-2" x="238.02" y="251.26" width="21.98" height="21.98"/><rect class="cls-2" x="239.36" y="273.27" width="21.98" height="21.98"/><polygon class="cls-2" points="303.96 251.26 290.83 251.26 290.83 251.26 270.99 251.26 270.99 245.55 249.01 245.55 249.01 251.26 216.04 251.26 216.04 273.24 227.03 273.24 227.03 284.75 249.01 284.75 249.01 273.24 271.84 273.24 271.84 284.75 293.82 284.75 293.82 273.24 303.96 273.24 303.96 251.26"/><rect class="cls-16" x="239.36" y="273.27" width="43.96" height="21.98"/><rect class="cls-13" x="457.83" y="201.45" width="21.98" height="21.98"/><rect class="cls-13" x="457.83" y="184" width="21.98" height="21.98"/><polygon class="cls-15" points="501.79 186.03 490.8 186.03 490.8 174.19 479.81 174.19 479.81 168.48 468.82 168.48 468.82 163.2 446.84 163.2 446.84 168.48 435.85 168.48 435.85 190.46 457.83 190.46 468.82 190.46 468.82 196.17 479.81 196.17 479.81 201.45 473.51 201.45 473.51 212.44 457.83 212.44 457.83 234.42 484.5 234.42 484.5 223.43 495.49 223.43 495.49 208.01 501.79 208.01 501.79 186.03"/><rect class="cls-13" x="446.84" y="179.47" width="21.98" height="21.98"/><rect class="cls-5" x="446.84" y="201.45" width="10.99" height="10.99"/><rect class="cls-5" x="452.33" y="195.96" width="10.99" height="10.99"/><rect class="cls-13" x="40.19" y="201.45" width="21.98" height="21.98"/><rect class="cls-13" x="40.19" y="184" width="21.98" height="21.98"/><polygon class="cls-15" points="73.16 168.48 73.16 163.2 51.18 163.2 51.18 168.48 40.19 168.48 40.19 174.19 29.2 174.19 29.2 186.03 18.21 186.03 18.21 208.01 24.51 208.01 24.51 223.43 35.5 223.43 35.5 234.42 62.17 234.42 62.17 212.44 46.49 212.44 46.49 201.45 40.19 201.45 40.19 196.17 51.18 196.17 51.18 190.46 62.17 190.46 84.15 190.46 84.15 168.48 73.16 168.48"/><rect class="cls-13" x="51.18" y="179.47" width="21.98" height="21.98"/><rect class="cls-5" x="62.17" y="201.45" width="10.99" height="10.99"/><rect class="cls-5" x="56.68" y="195.96" width="10.99" height="10.99"/><polygon class="cls-12" points="411.66 409.31 411.66 365.31 367.71 365.31 367.71 355.31 152.28 355.31 152.28 365.32 135.88 365.32 135.82 365.32 135.82 365.32 108.37 365.32 108.37 365.32 108.37 387.32 108.37 393.08 108.37 409.3 135.82 409.3 135.82 409.3 141.29 409.3 141.29 431.56 130.3 431.56 130.3 453.8 119.31 453.8 119.31 476.05 130.3 476.05 130.3 487.18 152.28 487.18 152.28 498.3 249.01 498.3 270.99 498.3 367.72 498.3 367.72 487.18 389.7 487.18 389.7 480.66 389.7 476.05 400.69 476.05 400.69 453.8 389.7 453.8 389.7 431.56 378.71 431.56 378.71 409.31 411.66 409.31"/><rect class="cls-3" x="64.3" y="398.31" width="22" height="22"/><polygon class="cls-3" points="75.3 409.31 64.3 409.31 53.3 409.31 53.3 420.31 42.3 420.31 42.3 442.31 53.3 442.31 53.3 453.31 75.3 453.31 75.3 431.31 86.3 431.31 86.3 409.31 75.3 409.31"/><polygon class="cls-15" points="86.3 387.31 86.3 398.31 64.3 398.31 64.3 420.31 86.3 420.31 90.58 420.31 108.3 420.31 108.3 409.31 108.3 398.31 108.3 387.31 86.3 387.31"/><rect class="cls-3" x="433.65" y="398.31" width="22" height="22"/><polygon class="cls-3" points="444.65 409.31 455.65 409.31 466.65 409.31 466.65 420.31 477.65 420.31 477.65 442.31 466.65 442.31 466.65 453.31 444.65 453.31 444.65 431.31 433.65 431.31 433.65 409.31 444.65 409.31"/><polygon class="cls-15" points="433.66 387.31 433.66 398.31 455.65 398.31 455.65 420.31 433.66 420.31 429.38 420.31 411.66 420.31 411.66 409.31 411.66 398.31 411.66 387.31 433.66 387.31"/><rect class="cls-11" x="389.65" y="398.32" width="21.98" height="21.98"/><rect class="cls-11" x="400.67" y="376.31" width="21.98" height="21.98"/><rect class="cls-8" x="389.68" y="365.32" width="21.98" height="21.98"/><rect class="cls-8" x="378.66" y="387.3" width="21.98" height="21.98"/><rect class="cls-11" x="108.33" y="398.32" width="21.98" height="21.98"/><rect class="cls-11" x="97.31" y="376.31" width="21.98" height="21.98"/><rect class="cls-8" x="108.37" y="365.32" width="21.98" height="21.98"/><rect class="cls-8" x="119.3" y="387.33" width="21.98" height="21.98"/><rect class="cls-2" x="249.01" y="377.29" width="21.98" height="21.98"/><rect class="cls-2" x="249.01" y="399.28" width="21.98" height="21.98"/><rect class="cls-2" x="249.01" y="420.32" width="21.98" height="21.98"/><rect class="cls-14" x="255.84" y="355.31" width="21.98" height="142.99"/><rect class="cls-14" x="244.85" y="355.31" width="21.98" height="142.99"/><rect class="cls-14" x="244.85" y="355.31" width="21.98" height="142.99"/><rect class="cls-11" x="255.84" y="355.31" width="10.99" height="142.99"/><path class="cls-1" d="m155.99,381.2h4.56l-1.34,5.01h-4.56l1.34-5.01Zm5.63,0h4.56l-1.34,5.01h-4.56l1.34-5.01Zm5.63,0h4.56l-1.34,5.01h-4.56l1.34-5.01Zm-1.66,6.19h4.56l-1.34,5.01h-4.56l1.34-5.01Zm-1.66,6.19h4.56l-1.34,5.01h-4.56l1.34-5.01Zm-1.66,6.19h4.56l-1.34,5.01h-4.56l1.34-5.01Zm-1.66,6.19h4.56l-1.34,5.01h-4.56l1.34-5.01Zm-1.66,6.19h4.56l-1.34,5.01h-4.56l1.34-5.01Zm-1.66,6.19h4.56l-1.34,5.01h-4.56l1.34-5.01Zm15.58-37.14h4.56l-1.34,5.01h-4.56l1.34-5.01Zm5.63,0h4.56l-1.34,5.01h-4.56l1.34-5.01Z"/><path class="cls-1" d="m177.58,412.15h4.56l-1.34,5.01h-4.56l1.34-5.01Zm10.6-18.57h4.56l-1.34,5.01h-4.56l1.34-5.01Zm-3.32,12.38h4.56l-1.34,5.01h-4.56l1.34-5.01Zm-3.32,12.38h4.56l-1.34,5.01h-4.56l1.34-5.01Zm12.26-24.76h4.56l-1.34,5.01h-4.56l1.34-5.01Zm-3.32,12.38h4.56l-1.34,5.01h-4.56l1.34-5.01Zm-3.32,12.38h4.56l-1.34,5.01h-4.56l1.34-5.01Zm12.26-24.76h4.56l-1.34,5.01h-4.56l1.34-5.01Zm-3.32,12.38h4.56l-1.34,5.01h-4.56l1.34-5.01Zm-3.32,12.38h4.56l-1.34,5.01h-4.56l1.34-5.01Zm10.6-18.57h4.56l-1.34,5.01h-4.56l1.34-5.01Zm-1.66,6.19h4.56l-1.34,5.01h-4.56l1.34-5.01Zm-1.66,6.19h4.56l-1.34,5.01h-4.56l1.34-5.01Zm-1.66,6.19h4.56l-1.34,5.01h-4.56l1.34-5.01Z"/><path class="cls-1" d="m213.37,399.77h4.56l-1.34,5.01h-4.56l1.34-5.01Zm-1.66,6.19h4.56l-1.34,5.01h-4.56l1.34-5.01Zm-1.66,6.19h4.56l-1.34,5.01h-4.56l1.34-5.01Zm10.6-18.57h4.56l-1.34,5.01h-4.56l1.34-5.01Zm-6.63,24.76h4.56l-1.34,5.01h-4.56l1.34-5.01Zm12.26-24.76h4.56l-1.34,5.01h-4.56l1.34-5.01Zm-6.63,24.76h4.56l-1.34,5.01h-4.56l1.34-5.01Zm12.26-24.76h4.56l-1.34,5.01h-4.56l1.34-5.01Zm-6.63,24.76h4.56l-1.34,5.01h-4.56l1.34-5.01Zm10.6-18.57h4.56l-1.34,5.01h-4.56l1.34-5.01Zm-1.66,6.19h4.56l-1.34,5.01h-4.56l1.34-5.01Zm-1.66,6.19h4.56l-1.34,5.01h-4.56l1.34-5.01Z"/><path class="cls-1" d="m247.28,393.58h4.56l-1.34,5.01h-4.56l1.34-5.01Zm-1.66,6.19h4.56l-1.34,5.01h-4.56l1.34-5.01Zm-4.98,18.57h4.56l-1.34,5.01h-4.56l1.34-5.01Zm8.94-12.38h4.56l-1.34,5.01h-4.56l1.34-5.01Zm-3.32,12.38h4.56l-1.34,5.01h-4.56l1.34-5.01Zm8.94-12.38h4.56l-1.34,5.01h-4.56l1.34-5.01Zm-3.32,12.38h4.56l-1.34,5.01h-4.56l1.34-5.01Zm8.95-12.38h4.56l-1.34,5.01h-4.56l1.34-5.01Zm-3.32,12.38h4.56l-1.34,5.01h-4.56l1.34-5.01Zm12.26-24.76h4.56l-1.34,5.01h-4.56l1.34-5.01Zm-1.66,6.19h4.56l-1.34,5.01h-4.56l1.34-5.01Zm-1.66,6.19h4.56l-1.34,5.01h-4.56l1.34-5.01Zm-1.66,6.19h4.56l-1.34,5.01h-4.56l1.34-5.01Z"/><path class="cls-1" d="m279.75,393.58h4.56l-1.34,5.01h-4.56l1.34-5.01Zm-1.66,6.19h4.56l-1.34,5.01h-4.56l1.34-5.01Zm-1.66,6.19h4.56l-1.34,5.01h-4.56l1.34-5.01Zm-1.66,6.19h4.56l-1.34,5.01h-4.56l1.34-5.01Zm3.97,6.19h4.56l-1.34,5.01h-4.56l1.34-5.01Zm5.63,0h4.56l-1.34,5.01h-4.56l1.34-5.01Zm7.29-6.19h4.56l-1.34,5.01h-4.56l1.34-5.01Zm10.6-18.57h4.56l-1.34,5.01h-4.56l1.34-5.01Zm-1.66,6.19h4.56l-1.34,5.01h-4.56l1.34-5.01Zm-1.66,6.19h4.56l-1.34,5.01h-4.56l1.34-5.01Zm-1.66,6.19h4.56l-1.34,5.01h-4.56l1.34-5.01Zm-1.66,6.19h4.56l-1.34,5.01h-4.56l1.34-5.01Z"/><path class="cls-1" d="m307.47,412.15h4.56l-1.34,5.01h-4.56l1.34-5.01Zm10.6-18.57h4.56l-1.34,5.01h-4.56l1.34-5.01Zm-3.32,12.38h4.56l-1.34,5.01h-4.56l1.34-5.01Zm-3.32,12.38h4.56l-1.34,5.01h-4.56l1.34-5.01Zm12.26-24.76h4.56l-1.34,5.01h-4.56l1.34-5.01Zm-3.32,12.38h4.56l-1.34,5.01h-4.56l1.34-5.01Zm-3.32,12.38h4.56l-1.34,5.01h-4.56l1.34-5.01Zm12.26-24.76h4.56l-1.34,5.01h-4.56l1.34-5.01Zm-3.32,12.38h4.56l-1.34,5.01h-4.56l1.34-5.01Zm-3.32,12.38h4.56l-1.34,5.01h-4.56l1.34-5.01Zm10.6-18.57h4.56l-1.34,5.01h-4.56l1.34-5.01Zm-1.66,6.19h4.56l-1.34,5.01h-4.56l1.34-5.01Zm-1.66,6.19h4.56l-1.34,5.01h-4.56l1.34-5.01Zm-1.66,6.19h4.56l-1.34,5.01h-4.56l1.34-5.01Z"/><path class="cls-1" d="m344.91,393.58h4.56l-1.34,5.01h-4.56l1.34-5.01Zm-1.66,6.19h4.56l-1.34,5.01h-4.56l1.34-5.01Zm-1.66,6.19h4.56l-1.34,5.01h-4.56l1.34-5.01Zm-1.66,6.19h4.56l-1.34,5.01h-4.56l1.34-5.01Zm-1.66,6.19h4.56l-1.34,5.01h-4.56l1.34-5.01Zm10.6-18.57h4.56l-1.34,5.01h-4.56l1.34-5.01Zm7.29-6.19h4.56l-1.34,5.01h-4.56l1.34-5.01Zm5.63,0h4.56l-1.34,5.01h-4.56l1.34-5.01Zm3.97,6.19h4.56l-1.34,5.01h-4.56l1.34-5.01Zm-1.66,6.19h4.56l-1.34,5.01h-4.56l1.34-5.01Zm-1.66,6.19h4.56l-1.34,5.01h-4.56l1.34-5.01Zm-1.66,6.19h4.56l-1.34,5.01h-4.56l1.34-5.01Z"/></svg>