<?xml version="1.0" encoding="UTF-8"?><svg id="_圖層_4" xmlns="http://www.w3.org/2000/svg" viewBox="0 0 1033.96 113.4"><defs><style>.cls-1{fill:#00558b;}.cls-1,.cls-2{stroke-width:0px;}.cls-2{fill:#009ade;}</style></defs><polygon class="cls-2" points="1027.8 110.97 53.27 110.97 3.12 57.61 53.27 4.24 1027.8 4.24 977.64 57.61 1027.8 110.97"/><rect class="cls-1" x="53.13" y="105.8" width="974.84" height="7.59"/><rect class="cls-1" x="53.13" y=".85" width="973.25" height="7.59"/><rect class="cls-1" x="45.54" y="103.37" width="7.59" height="7.59"/><rect class="cls-1" x="45.54" y="95.78" width="7.59" height="7.59"/><rect class="cls-1" x="37.95" y="95.78" width="7.59" height="7.59"/><rect class="cls-1" x="37.95" y="95.78" width="7.59" height="7.59"/><rect class="cls-1" x="37.95" y="88.18" width="7.59" height="7.59"/><rect class="cls-1" x="30.36" y="88.18" width="7.59" height="7.59"/><rect class="cls-1" x="30.36" y="80.59" width="7.59" height="7.59"/><rect class="cls-1" x="22.77" y="80.59" width="7.59" height="7.59"/><rect class="cls-1" x="22.77" y="72.99" width="7.59" height="7.59"/><rect class="cls-1" x="15.18" y="72.99" width="7.59" height="7.59"/><rect class="cls-1" x="15.18" y="65.4" width="7.59" height="7.59"/><rect class="cls-1" x="7.59" y="65.4" width="7.59" height="7.59"/><rect class="cls-1" x="7.59" y="57.8" width="7.59" height="7.59"/><rect class="cls-1" x="0" y="57.8" width="7.59" height="7.59"/><rect class="cls-1" x="0" y="50.61" width="7.59" height="7.59"/><rect class="cls-1" x="0" y="57.41" width="7.59" height="7.59"/><rect class="cls-1" x="0" y="50.22" width="7.59" height="7.59"/><rect class="cls-1" x="7.59" y="50.22" width="7.59" height="7.59"/><rect class="cls-1" x="7.59" y="50.22" width="7.59" height="7.59"/><rect class="cls-1" x="7.59" y="42.62" width="7.59" height="7.59"/><rect class="cls-1" x="15.18" y="42.62" width="7.59" height="7.59"/><rect class="cls-1" x="15.18" y="35.03" width="7.59" height="7.59"/><rect class="cls-1" x="22.77" y="35.03" width="7.59" height="7.59"/><rect class="cls-1" x="22.77" y="27.43" width="7.59" height="7.59"/><rect class="cls-1" x="30.36" y="27.43" width="7.59" height="7.59"/><rect class="cls-1" x="30.36" y="19.84" width="7.59" height="7.59"/><rect class="cls-1" x="37.95" y="19.84" width="7.59" height="7.59"/><rect class="cls-1" x="37.95" y="12.24" width="7.59" height="7.59"/><rect class="cls-1" x="45.54" y="12.24" width="7.59" height="7.59"/><rect class="cls-1" x="45.54" y="4.65" width="7.59" height="7.59"/><rect class="cls-1" x="1018.78" y="103.37" width="7.59" height="7.59"/><rect class="cls-1" x="1018.78" y="95.78" width="7.59" height="7.59"/><rect class="cls-1" x="1011.2" y="95.78" width="7.59" height="7.59"/><rect class="cls-1" x="1011.2" y="95.78" width="7.59" height="7.59"/><rect class="cls-1" x="1011.2" y="88.18" width="7.59" height="7.59"/><rect class="cls-1" x="1003.61" y="88.18" width="7.59" height="7.59"/><rect class="cls-1" x="1003.61" y="80.59" width="7.59" height="7.59"/><rect class="cls-1" x="996.02" y="80.59" width="7.59" height="7.59"/><rect class="cls-1" x="996.02" y="72.99" width="7.59" height="7.59"/><rect class="cls-1" x="988.43" y="72.99" width="7.59" height="7.59"/><rect class="cls-1" x="988.43" y="65.4" width="7.59" height="7.59"/><rect class="cls-1" x="980.84" y="65.4" width="7.59" height="7.59"/><rect class="cls-1" x="980.84" y="57.8" width="7.59" height="7.59"/><rect class="cls-1" x="973.25" y="57.8" width="7.59" height="7.59"/><rect class="cls-1" x="973.25" y="50.61" width="7.59" height="7.59"/><rect class="cls-1" x="973.25" y="57.41" width="7.59" height="7.59"/><rect class="cls-1" x="973.25" y="50.22" width="7.59" height="7.59"/><rect class="cls-1" x="980.84" y="50.22" width="7.59" height="7.59"/><rect class="cls-1" x="980.84" y="50.22" width="7.59" height="7.59"/><rect class="cls-1" x="980.84" y="42.62" width="7.59" height="7.59"/><rect class="cls-1" x="988.43" y="42.62" width="7.59" height="7.59"/><rect class="cls-1" x="988.43" y="35.03" width="7.59" height="7.59"/><rect class="cls-1" x="996.02" y="35.03" width="7.59" height="7.59"/><rect class="cls-1" x="996.02" y="27.43" width="7.59" height="7.59"/><rect class="cls-1" x="1003.61" y="27.43" width="7.59" height="7.59"/><rect class="cls-1" x="1003.61" y="19.84" width="7.59" height="7.59"/><rect class="cls-1" x="1011.2" y="19.84" width="7.59" height="7.59"/><rect class="cls-1" x="1011.2" y="12.24" width="7.59" height="7.59"/><rect class="cls-1" x="1018.78" y="12.24" width="7.59" height="7.59"/><rect class="cls-1" x="1018.78" y="4.65" width="7.59" height="7.59"/><rect class="cls-1" x="1026.37" y=".85" width="7.59" height="7.59"/><rect class="cls-1" x="1026.37" y="105.8" width="7.59" height="7.59"/></svg>