<svg id="圖層_1" data-name="圖層 1" xmlns="http://www.w3.org/2000/svg" viewBox="0 0 520 520"><defs><style>.cls-1{fill:#231815;}.cls-2{fill:#8e3e13;}.cls-3{fill:#e57776;}.cls-4{fill:#204b90;}.cls-5{fill:#35729e;}.cls-6{fill:#fac657;}.cls-7{fill:#7bbfc8;}.cls-8{fill:#f4a680;}.cls-9{fill:#fbd7bb;}</style></defs><title>figure</title><path class="cls-1" d="M105.43,509.82a5,5,0,0,1-5-5V473.59H69.19a5,5,0,0,1-5-5V438H33a5,5,0,0,1-5-5V231.88a5,5,0,0,1,5-5H64.19V123.21a5,5,0,0,1,5-5h31.24V51.39a5,5,0,0,1,5-5h31.22V15.18a5,5,0,0,1,5-5h236.7a5,5,0,0,1,5,5V46.39h31.24a5,5,0,0,1,5,5v66.82h31.22a5,5,0,0,1,5,5V226.88H487a5,5,0,0,1,5,5V433a5,5,0,0,1-5,5H455.81v30.59a5,5,0,0,1-5,5H419.59v31.23a5,5,0,0,1-5,5Z"/><polygon class="cls-1" points="105.43 504.82 105.43 468.59 69.19 468.59 69.19 433 32.98 433 32.98 231.88 69.19 231.88 69.19 123.21 105.43 123.21 105.43 51.39 141.65 51.39 141.65 15.18 378.35 15.18 378.35 51.39 414.59 51.39 414.59 123.21 450.81 123.21 450.81 231.88 487.02 231.88 487.02 433 450.81 433 450.81 468.59 414.59 468.59 414.59 504.82 105.43 504.82"/><polygon class="cls-2" points="332.13 169.43 332.13 205.66 295.9 205.66 295.9 169.43 332.13 169.43 332.13 169.43"/><polygon class="cls-2" points="224.09 169.43 224.09 205.66 187.88 205.66 187.88 169.43 224.09 169.43 224.09 169.43"/><polygon class="cls-3" points="368.35 278.1 404.59 278.1 404.59 241.88 368.35 241.88 368.35 278.1 368.35 278.1"/><polygon class="cls-3" points="115.43 278.1 151.65 278.1 151.65 241.88 115.43 241.88 115.43 278.1 115.43 278.1"/><polygon class="cls-4" points="368.35 458.59 368.35 494.82 404.59 494.82 404.59 458.59 404.59 423 368.35 423 368.35 458.59 368.35 458.59"/><polygon class="cls-4" points="115.43 458.59 115.43 494.82 151.65 494.82 151.65 458.59 151.65 423 115.43 423 115.43 458.59 115.43 458.59"/><polygon class="cls-5" points="332.13 386.78 295.9 386.78 259.69 386.78 224.09 386.78 187.88 386.78 151.65 386.78 115.43 386.78 115.43 423 151.65 423 151.65 458.59 151.65 494.82 187.88 494.82 224.09 494.82 259.69 494.82 295.9 494.82 332.13 494.82 368.35 494.82 368.35 458.59 368.35 423 404.59 423 404.59 386.78 368.35 386.78 332.13 386.78 332.13 386.78"/><polygon class="cls-6" points="440.81 205.66 440.81 169.43 440.81 133.21 404.59 133.21 404.59 97.62 404.59 61.39 368.35 61.39 368.35 25.18 332.13 25.18 295.9 25.18 259.69 25.18 224.09 25.18 187.88 25.18 151.65 25.18 151.65 61.39 115.43 61.39 115.43 97.62 115.43 133.21 79.19 133.21 79.19 169.43 79.19 205.66 79.19 241.88 42.98 241.88 42.98 278.1 42.98 314.33 42.98 350.55 42.98 386.78 42.98 423 79.19 423 79.19 458.59 115.43 458.59 115.43 423 115.43 386.78 151.65 386.78 187.88 386.78 187.88 350.55 224.09 350.55 224.09 314.33 187.88 314.33 187.88 278.1 151.65 278.1 115.43 278.1 115.43 241.88 115.43 205.66 151.65 205.66 151.65 169.43 187.88 169.43 187.88 133.21 224.09 133.21 259.69 133.21 295.9 133.21 332.13 133.21 332.13 169.43 368.35 169.43 368.35 205.66 404.59 205.66 404.59 241.88 404.59 278.1 368.35 278.1 332.13 278.1 332.13 314.33 295.9 314.33 295.9 350.55 332.13 350.55 332.13 386.78 368.35 386.78 404.59 386.78 404.59 423 404.59 458.59 440.81 458.59 440.81 423 477.02 423 477.02 386.78 477.02 350.55 477.02 314.33 477.02 278.1 477.02 241.88 440.81 241.88 440.81 205.66 440.81 205.66"/><polygon class="cls-7" points="259.69 350.55 224.09 350.55 187.88 350.55 187.88 386.78 224.09 386.78 259.69 386.78 295.9 386.78 332.13 386.78 332.13 350.55 295.9 350.55 259.69 350.55 259.69 350.55"/><polygon class="cls-8" points="224.09 241.88 224.09 278.1 259.69 278.1 295.9 278.1 295.9 241.88 259.69 241.88 224.09 241.88 224.09 241.88"/><path class="cls-9" d="M259.69,278.1h-35.6V241.88H295.9V278.1ZM368.35,169.43H332.13v36.23H295.9V169.43h36.23V133.21H187.88v36.22h36.21v36.23H187.88V169.43H151.65v36.23H115.43v36.22h36.22V278.1h36.23v36.23h36.21v36.22H295.9V314.33h36.23V278.1h36.22V241.88h36.24V205.66H368.35V169.43Z"/></svg>