<svg id="圖層_1" data-name="圖層 1" xmlns="http://www.w3.org/2000/svg" viewBox="0 0 520 520"><defs><style>.cls-1{fill:#231815;}.cls-2{fill:#8e3e13;}.cls-3{fill:#9b3679;}.cls-4{fill:#6d5c8b;}.cls-5{fill:#594149;}.cls-6{fill:#888e95;}.cls-7{fill:#474c50;}.cls-8{fill:#c692b5;}.cls-9{fill:#f4a680;}.cls-10{fill:#f9c696;}</style></defs><title>figure</title><path class="cls-1" d="M105.42,509.82a5,5,0,0,1-5-5V293.1H69.2a5,5,0,0,1-5-5V87a5,5,0,0,1,5-5h31.22V50.76a5,5,0,0,1,5-5h31.22V15.18a5,5,0,0,1,5-5H379a5,5,0,0,1,5,5V45.76h30.58a5,5,0,0,1,5,5V82H450.8a5,5,0,0,1,5,5V288.1a5,5,0,0,1-5,5H419.58V504.82a5,5,0,0,1-5,5Z"/><polygon class="cls-1" points="105.42 504.82 105.42 288.1 69.2 288.1 69.2 86.98 105.42 86.98 105.42 50.76 141.64 50.76 141.64 15.18 379 15.18 379 50.76 414.58 50.76 414.58 86.98 450.8 86.98 450.8 288.1 414.58 288.1 414.58 504.82 105.42 504.82"/><polygon class="cls-2" points="332.77 169.43 332.77 205.65 296.54 205.65 296.54 169.43 332.77 169.43 332.77 169.43"/><polygon class="cls-2" points="224.09 169.43 224.09 205.65 187.88 205.65 187.88 169.43 224.09 169.43 224.09 169.43"/><polygon class="cls-3" points="369 494.82 369 458.59 369 422.37 332.77 422.37 332.77 386.14 332.77 350.55 332.77 314.34 296.54 314.34 296.54 350.55 296.54 386.14 296.54 422.37 296.54 458.59 296.54 494.82 332.77 494.82 369 494.82 369 494.82"/><polygon class="cls-3" points="224.09 494.82 224.09 458.59 224.09 422.37 224.09 386.14 224.09 350.55 224.09 314.34 187.88 314.34 187.88 350.55 187.88 386.14 187.88 422.37 151.64 422.37 151.64 458.59 151.64 494.82 187.88 494.82 224.09 494.82 224.09 494.82"/><polygon class="cls-4" points="332.77 386.14 369 386.14 369 350.55 332.77 350.55 332.77 386.14 332.77 386.14"/><polygon class="cls-4" points="151.64 386.14 187.88 386.14 187.88 350.55 151.64 350.55 151.64 386.14 151.64 386.14"/><polygon class="cls-5" points="369 386.14 369 422.37 369 458.59 369 494.82 404.58 494.82 404.58 458.59 404.58 422.37 404.58 386.14 404.58 350.55 369 350.55 369 386.14 369 386.14"/><polygon class="cls-5" points="115.42 386.14 115.42 422.37 115.42 458.59 115.42 494.82 151.64 494.82 151.64 458.59 151.64 422.37 151.64 386.14 151.64 350.55 115.42 350.55 115.42 386.14 115.42 386.14"/><polygon class="cls-6" points="404.58 60.76 369 60.76 369 25.18 332.77 25.18 296.54 25.18 260.32 25.18 224.09 25.18 187.88 25.18 151.64 25.18 151.64 60.76 115.42 60.76 115.42 96.98 79.2 96.98 79.2 133.22 79.2 169.43 79.2 205.65 79.2 241.88 79.2 278.1 115.42 278.1 115.42 314.34 115.42 350.55 151.64 350.55 187.88 350.55 187.88 314.34 187.88 278.1 151.64 278.1 151.64 241.88 151.64 205.65 151.64 169.43 187.88 169.43 187.88 133.22 224.09 133.22 260.32 133.22 296.54 133.22 332.77 133.22 332.77 169.43 369 169.43 369 205.65 369 241.88 369 278.1 332.77 278.1 332.77 314.34 332.77 350.55 369 350.55 404.58 350.55 404.58 314.34 404.58 278.1 440.8 278.1 440.8 241.88 440.8 205.65 440.8 169.43 440.8 133.22 440.8 96.98 404.58 96.98 404.58 60.76 404.58 60.76"/><polygon class="cls-7" points="369 386.14 332.77 386.14 332.77 422.37 369 422.37 369 386.14 369 386.14"/><polygon class="cls-7" points="187.88 386.14 151.64 386.14 151.64 422.37 187.88 422.37 187.88 386.14 187.88 386.14"/><polygon class="cls-8" points="260.32 350.55 224.09 350.55 224.09 386.14 224.09 422.37 224.09 458.59 224.09 494.82 260.32 494.82 296.54 494.82 296.54 458.59 296.54 422.37 296.54 386.14 296.54 350.55 260.32 350.55 260.32 350.55"/><polygon class="cls-9" points="224.09 241.88 224.09 278.1 260.32 278.1 296.54 278.1 296.54 241.88 260.32 241.88 224.09 241.88 224.09 241.88"/><path class="cls-10" d="M260.32,278.1H224.08V241.88h72.46V278.1Zm72.45-72.45H296.54V169.43h36.23V133.22H187.88v36.21h36.2v36.22h-36.2V169.43H151.64V278.1h36.24v36.24h36.2v36.21h72.46V314.34h36.23V278.1H369V169.43H332.77v36.22Z"/></svg>