<svg id="圖層_1" data-name="圖層 1" xmlns="http://www.w3.org/2000/svg" viewBox="0 0 520 520"><defs><style>.cls-1{fill:#231815;}.cls-2{fill:#543d2a;}.cls-3{fill:#6060aa;}.cls-4{fill:#9692a8;}.cls-5{fill:#83594e;}.cls-6{fill:#897d9f;}.cls-7{fill:#f4a680;}.cls-8{fill:#f9c696;}</style></defs><title>figure</title><path class="cls-1" d="M105.43,509.82a5,5,0,0,1-5-5v-128a5,5,0,0,1,5-5h31.21V340.55a5,5,0,0,1,5-5h31.24v-6.22H105.43a5,5,0,0,1-5-5V293.11H69.2a5,5,0,0,1-5-5V123.21a5,5,0,0,1,5-5h31.23V51.39a5,5,0,0,1,5-5h31.21V15.18a5,5,0,0,1,5-5H378.35a5,5,0,0,1,5,5V46.39h31.23a5,5,0,0,1,5,5v66.82H450.8a5,5,0,0,1,5,5v164.9a5,5,0,0,1-5,5H419.58v31.22a5,5,0,0,1-5,5H347.13v6.22h31.22a5,5,0,0,1,5,5v31.23h31.23a5,5,0,0,1,5,5v128a5,5,0,0,1-5,5Z"/><polygon class="cls-1" points="105.43 504.82 105.43 376.78 141.65 376.78 141.65 340.55 177.88 340.55 177.88 324.33 105.43 324.33 105.43 288.11 69.2 288.11 69.2 123.21 105.43 123.21 105.43 51.39 141.65 51.39 141.65 15.18 378.35 15.18 378.35 51.39 414.58 51.39 414.58 123.21 450.8 123.21 450.8 288.11 414.58 288.11 414.58 324.33 342.13 324.33 342.13 340.55 378.35 340.55 378.35 376.78 414.58 376.78 414.58 504.82 105.43 504.82"/><polygon class="cls-2" points="332.14 169.43 332.14 205.66 295.92 205.66 295.92 169.43 332.14 169.43 332.14 169.43"/><polygon class="cls-2" points="224.1 169.43 224.1 205.66 187.88 205.66 187.88 169.43 224.1 169.43 224.1 169.43"/><polygon class="cls-3" points="368.35 423 368.35 458.59 368.35 494.82 404.58 494.82 404.58 458.59 404.58 423 404.58 386.78 368.35 386.78 368.35 423 368.35 423"/><polygon class="cls-3" points="115.43 423 115.43 458.59 115.43 494.82 151.65 494.82 151.65 458.59 151.65 423 151.65 386.78 115.43 386.78 115.43 423 115.43 423"/><polygon class="cls-4" points="332.14 386.78 295.92 386.78 295.92 423 260.31 423 260.31 386.78 224.1 386.78 187.88 386.78 187.88 350.55 151.65 350.55 151.65 386.78 151.65 423 151.65 458.59 151.65 494.82 187.88 494.82 224.1 494.82 260.31 494.82 295.92 494.82 332.14 494.82 368.35 494.82 368.35 458.59 368.35 423 368.35 386.78 368.35 350.55 332.14 350.55 332.14 386.78 332.14 386.78"/><polygon class="cls-5" points="404.58 97.62 404.58 61.39 368.35 61.39 368.35 25.18 332.14 25.18 295.92 25.18 260.31 25.18 224.1 25.18 187.88 25.18 151.65 25.18 151.65 61.39 115.43 61.39 115.43 97.62 115.43 133.21 79.2 133.21 79.2 169.43 79.2 205.66 79.2 241.88 79.2 278.1 115.43 278.1 115.43 314.33 151.65 314.33 187.88 314.33 187.88 278.1 151.65 278.1 151.65 241.88 151.65 205.66 151.65 169.43 187.88 169.43 187.88 133.21 224.1 133.21 260.31 133.21 295.92 133.21 332.14 133.21 332.14 169.43 368.35 169.43 368.35 205.66 368.35 241.88 368.35 278.1 332.14 278.1 332.14 314.33 368.35 314.33 404.58 314.33 404.58 278.1 440.8 278.1 440.8 241.88 440.8 205.66 440.8 169.43 440.8 133.21 404.58 133.21 404.58 97.62 404.58 97.62"/><polygon class="cls-6" points="295.92 350.55 295.92 386.78 332.14 386.78 332.14 350.55 332.14 314.33 295.92 314.33 295.92 350.55 295.92 350.55"/><polygon class="cls-6" points="260.31 423 295.92 423 295.92 386.78 260.31 386.78 260.31 423 260.31 423"/><polygon class="cls-6" points="224.1 350.55 224.1 314.33 187.88 314.33 187.88 350.55 187.88 386.78 224.1 386.78 260.31 386.78 260.31 350.55 224.1 350.55 224.1 350.55"/><polygon class="cls-7" points="224.1 241.88 224.1 278.1 260.31 278.1 295.92 278.1 295.92 241.88 260.31 241.88 224.1 241.88 224.1 241.88"/><path class="cls-8" d="M260.31,278.1H224.1V241.88h71.82V278.1Zm71.83-72.44H295.92V169.43h36.22V133.21H187.88v36.22H224.1v36.23H187.88V169.43H151.65V278.1h36.23v36.23H224.1v36.22h36.21v36.23h35.61V314.33h36.22V278.1h36.21V169.43H332.14v36.23Z"/></svg>