<svg id="圖層_1" data-name="圖層 1" xmlns="http://www.w3.org/2000/svg" viewBox="0 0 520 520"><defs><style>.cls-1{fill:#231815;}.cls-2{fill:#8e3e13;}.cls-3{fill:#ea5c82;}.cls-4{fill:#967ba7;}.cls-5{fill:#ee7853;}.cls-6{fill:#eb5d1c;}.cls-7{fill:#f5ac6b;}.cls-8{fill:#370007;}</style></defs><title>figure</title><path class="cls-1" d="M105.37,509a5,5,0,0,1-5-5V340a5,5,0,0,1,5-5h67.32V292.65H141.52a5,5,0,0,1-5-5v-67.3h-6.15V323.82a5,5,0,0,1-5,5H69.21a5,5,0,0,1-5-5V292.65H33.67a5,5,0,0,1-5-5V123a5,5,0,0,1,5-5h66.7V51.33a5,5,0,0,1,5-5h31.15V15.18a5,5,0,0,1,5-5h237a5,5,0,0,1,5,5V46.33H414a5,5,0,0,1,5,5V118h67.32a5,5,0,0,1,5,5V287.65a5,5,0,0,1-5,5H455.16v31.17a5,5,0,0,1-5,5H394a5,5,0,0,1-5-5V220.35h-5.53v67.3a5,5,0,0,1-5,5H347.33V335H414a5,5,0,0,1,5,5V504a5,5,0,0,1-5,5Z"/><polygon class="cls-1" points="105.36 503.99 105.36 339.98 177.69 339.98 177.69 287.65 141.52 287.65 141.52 215.35 125.36 215.35 125.36 323.82 69.21 323.82 69.21 287.65 33.67 287.65 33.67 123.03 105.36 123.03 105.36 51.34 141.52 51.34 141.52 15.18 378.48 15.18 378.48 51.34 414.01 51.34 414.01 123.03 486.32 123.03 486.32 287.65 450.15 287.65 450.15 323.82 394.01 323.82 394.01 215.35 378.48 215.35 378.48 287.65 342.33 287.65 342.33 339.98 414.01 339.98 414.01 503.99 105.36 503.99"/><polygon class="cls-2" points="332.33 169.18 332.33 205.35 296.16 205.35 296.16 169.18 332.33 169.18 332.33 169.18"/><polygon class="cls-2" points="223.84 169.18 223.84 205.35 187.69 205.35 187.69 169.18 223.84 169.18 223.84 169.18"/><polygon class="cls-3" points="332.33 313.82 296.16 313.82 296.16 349.98 296.16 386.14 260.01 386.14 223.84 386.14 223.84 349.98 223.84 313.82 187.69 313.82 187.69 349.98 151.52 349.98 151.52 386.14 151.52 422.3 151.52 457.82 187.69 457.82 187.69 493.99 223.84 493.99 260.01 493.99 296.16 493.99 332.33 493.99 332.33 457.82 368.48 457.82 368.48 422.3 368.48 386.14 368.48 349.98 332.33 349.98 332.33 313.82 332.33 313.82"/><polygon class="cls-4" points="368.48 349.98 368.48 386.14 368.48 422.3 368.48 457.82 404.01 457.82 404.01 422.3 404.01 386.14 404.01 349.98 368.48 349.98 368.48 349.98"/><polygon class="cls-4" points="115.36 386.14 115.36 422.3 115.36 457.82 151.52 457.82 151.52 422.3 151.52 386.14 151.52 349.98 115.36 349.98 115.36 386.14 115.36 386.14"/><polygon class="cls-5" points="223.84 241.5 223.84 277.65 260.01 277.65 296.16 277.65 296.16 241.5 260.01 241.5 223.84 241.5 223.84 241.5"/><polygon class="cls-6" points="404.01 169.18 440.16 169.18 440.16 133.02 404.01 133.02 404.01 169.18 404.01 169.18"/><polygon class="cls-6" points="368.48 205.35 404.01 205.35 404.01 169.18 368.48 169.18 368.48 205.35 368.48 205.35"/><polygon class="cls-6" points="115.36 205.35 151.52 205.35 151.52 169.18 115.36 169.18 115.36 205.35 115.36 205.35"/><polygon class="cls-6" points="79.21 133.02 79.21 169.18 115.36 169.18 115.36 133.02 79.21 133.02 79.21 133.02"/><polygon class="cls-7" points="368.48 493.99 404.01 493.99 404.01 457.82 368.48 457.82 368.48 493.99 368.48 493.99"/><path class="cls-7" d="M223.84,241.5h72.32v36.15H223.84V241.5Zm-36.15-72.32h36.15v36.17H187.69V169.18Zm144.64,36.17H296.16V169.18h36.17v36.17ZM187.69,313.82h36.15v72.32h72.32V313.82h36.17V277.65h36.15V133H332.33V97.5H187.69V133H151.52V277.65h36.17v36.17Z"/><polygon class="cls-7" points="151.52 457.82 115.36 457.82 115.36 493.99 151.52 493.99 151.52 457.82 151.52 457.82"/><polygon class="cls-4" points="332.33 493.99 368.48 493.99 368.48 457.82 332.33 457.82 332.33 493.99 332.33 493.99"/><polygon class="cls-4" points="151.52 493.99 187.69 493.99 187.69 457.82 151.52 457.82 151.52 493.99 151.52 493.99"/><polygon class="cls-8" points="440.16 169.18 404.01 169.18 404.01 205.35 404.01 241.5 404.01 277.65 404.01 313.82 440.16 313.82 440.16 277.65 476.32 277.65 476.32 241.5 476.32 205.35 476.32 169.18 476.32 133.02 440.16 133.02 440.16 169.18 440.16 169.18"/><polygon class="cls-8" points="404.01 97.5 404.01 61.34 368.48 61.34 368.48 25.18 332.33 25.18 296.16 25.18 260.01 25.18 223.84 25.18 187.69 25.18 151.52 25.18 151.52 61.34 115.36 61.34 115.36 97.5 115.36 133.02 115.36 169.18 151.52 169.18 151.52 133.02 187.69 133.02 187.69 97.5 223.84 97.5 260.01 97.5 296.16 97.5 332.33 97.5 332.33 133.02 368.48 133.02 368.48 169.18 404.01 169.18 404.01 133.02 404.01 97.5 404.01 97.5"/><polygon class="cls-8" points="79.21 133.02 43.67 133.02 43.67 169.18 43.67 205.35 43.67 241.5 43.67 277.65 79.21 277.65 79.21 313.82 115.36 313.82 115.36 277.65 115.36 241.5 115.36 205.35 115.36 169.18 79.21 169.18 79.21 133.02 79.21 133.02"/></svg>