<svg id="圖層_1" data-name="圖層 1" xmlns="http://www.w3.org/2000/svg" viewBox="0 0 520 520"><defs><style>.cls-1{fill:#231815;}.cls-2{fill:#4d4c49;}.cls-3{fill:#62383e;}.cls-4{fill:#f4a680;}.cls-5{fill:#fee386;}.cls-6{fill:#f9c696;}.cls-7{fill:#85ad95;}</style></defs><title>figure</title><path class="cls-1" d="M105.1,509a5,5,0,0,1-5-5V376a5,5,0,0,1,5-5h67.45V339.72a5,5,0,0,1,5-5h31.21V328.5H177.55a5,5,0,0,1-5-5V292.27H141.32a5,5,0,0,1-5-5V219.83H105.1a5,5,0,0,1-5-5V86.8a5,5,0,0,1,5-5h31.22V50.57a5,5,0,0,1,5-5h31.23V14.35a5,5,0,0,1,5-5h164.9a5,5,0,0,1,5,5V45.57H414.9a5,5,0,0,1,5,5V214.83a5,5,0,0,1-5,5H383.67v67.44a5,5,0,0,1-5,5H347.45V323.5a5,5,0,0,1-5,5H311.22v6.22h31.23a5,5,0,0,1,5,5V371H414.9a5,5,0,0,1,5,5V504a5,5,0,0,1-5,5Z"/><polygon class="cls-1" points="105.1 503.99 105.1 375.95 177.55 375.95 177.55 339.72 213.76 339.72 213.76 323.5 177.55 323.5 177.55 287.27 141.32 287.27 141.32 214.84 105.1 214.84 105.1 86.8 141.32 86.8 141.32 50.57 177.55 50.57 177.55 14.35 342.45 14.35 342.45 50.57 414.9 50.57 414.9 214.84 378.67 214.84 378.67 287.27 342.45 287.27 342.45 323.5 306.22 323.5 306.22 339.72 342.45 339.72 342.45 375.95 414.9 375.95 414.9 503.99 105.1 503.99"/><polygon class="cls-2" points="332.45 168.6 332.45 204.84 296.22 204.84 296.22 168.6 332.45 168.6 332.45 168.6"/><polygon class="cls-2" points="223.76 168.6 223.76 204.84 187.55 204.84 187.55 168.6 223.76 168.6 223.76 168.6"/><polygon class="cls-3" points="368.68 60.57 332.45 60.57 332.45 24.35 296.22 24.35 260 24.35 223.76 24.35 187.55 24.35 187.55 60.57 151.32 60.57 151.32 96.8 115.1 96.8 115.1 132.38 115.1 168.6 115.1 204.84 151.32 204.84 151.32 168.6 187.55 168.6 187.55 132.38 223.76 132.38 260 132.38 296.22 132.38 332.45 132.38 368.68 132.38 368.68 168.6 368.68 204.84 404.9 204.84 404.9 168.6 404.9 132.38 404.9 96.8 404.9 60.57 368.68 60.57 368.68 60.57"/><polygon class="cls-4" points="223.76 241.05 223.76 277.27 260 277.27 296.22 277.27 296.22 241.05 260 241.05 223.76 241.05 223.76 241.05"/><polygon class="cls-5" points="368.68 457.76 404.9 457.76 404.9 422.17 368.68 422.17 368.68 457.76 368.68 457.76"/><polygon class="cls-5" points="332.45 493.99 368.68 493.99 368.68 457.76 332.45 457.76 332.45 493.99 332.45 493.99"/><polygon class="cls-5" points="368.68 385.95 332.45 385.95 332.45 422.17 368.68 422.17 368.68 385.95 368.68 385.95"/><polygon class="cls-5" points="296.22 422.17 296.22 457.76 332.45 457.76 332.45 422.17 296.22 422.17 296.22 422.17"/><polygon class="cls-5" points="223.76 457.76 223.76 493.99 260 493.99 296.22 493.99 296.22 457.76 260 457.76 223.76 457.76 223.76 457.76"/><polygon class="cls-5" points="187.55 422.17 187.55 457.76 223.76 457.76 223.76 422.17 187.55 422.17 187.55 422.17"/><polygon class="cls-5" points="151.32 493.99 187.55 493.99 187.55 457.76 151.32 457.76 151.32 493.99 151.32 493.99"/><polygon class="cls-5" points="187.55 385.95 151.32 385.95 151.32 422.17 187.55 422.17 187.55 385.95 187.55 385.95"/><polygon class="cls-5" points="115.1 422.17 115.1 457.76 151.32 457.76 151.32 422.17 115.1 422.17 115.1 422.17"/><path class="cls-6" d="M332.45,204.83H296.22V168.6h36.23v36.23ZM260,277.27H223.76V241.05h72.46v36.22Zm36.22-144.89H187.55V168.6h36.21v36.23H187.55V168.6H151.32V277.27h36.23V313.5h36.21v36.22h72.46V313.5h36.23V277.27h36.22V132.38H296.22Z"/><polygon class="cls-7" points="404.9 493.99 404.9 457.76 368.68 457.76 368.68 493.99 404.9 493.99 404.9 493.99"/><polygon class="cls-7" points="368.68 422.17 404.9 422.17 404.9 385.95 368.68 385.95 368.68 422.17 368.68 422.17"/><polygon class="cls-7" points="332.45 457.76 368.68 457.76 368.68 422.17 332.45 422.17 332.45 457.76 332.45 457.76"/><polygon class="cls-7" points="296.22 493.99 332.45 493.99 332.45 457.76 296.22 457.76 296.22 493.99 296.22 493.99"/><polygon class="cls-7" points="332.45 422.17 332.45 385.95 332.45 349.72 296.22 349.72 260 349.72 223.76 349.72 187.55 349.72 187.55 385.95 187.55 422.17 223.76 422.17 223.76 457.76 260 457.76 296.22 457.76 296.22 422.17 332.45 422.17 332.45 422.17"/><polygon class="cls-7" points="187.55 493.99 223.76 493.99 223.76 457.76 187.55 457.76 187.55 493.99 187.55 493.99"/><polygon class="cls-7" points="151.32 422.17 151.32 457.76 187.55 457.76 187.55 422.17 151.32 422.17 151.32 422.17"/><polygon class="cls-7" points="115.1 493.99 151.32 493.99 151.32 457.76 115.1 457.76 115.1 493.99 115.1 493.99"/><polygon class="cls-7" points="115.1 385.95 115.1 422.17 151.32 422.17 151.32 385.95 115.1 385.95 115.1 385.95"/></svg>