<svg id="圖層_1" data-name="圖層 1" xmlns="http://www.w3.org/2000/svg" viewBox="0 0 520 520"><defs><style>.cls-1{fill:#231815;}.cls-2{fill:#543d2a;}.cls-3{fill:#f9f2e4;}.cls-4{fill:#1d2465;}.cls-5{fill:#f29c81;}.cls-6{fill:#006cb7;}.cls-7{fill:#f4a680;}.cls-8{fill:#f9c696;}</style></defs><title>figure</title><path class="cls-1" d="M105.42,509.82a5,5,0,0,1-5-5v-128a5,5,0,0,1,5-5h31.22V340.55a5,5,0,0,1,5-5h31.24V293.1H141.64a5,5,0,0,1-5-5V220.67H105.42a5,5,0,0,1-5-5V51.4a5,5,0,0,1,5-5h31.22V15.18a5,5,0,0,1,5-5H379a5,5,0,0,1,5,5V46.4h30.58a5,5,0,0,1,5,5V215.67a5,5,0,0,1-5,5H384V288.1a5,5,0,0,1-5,5H347.77v42.45H379a5,5,0,0,1,5,5v31.23h30.58a5,5,0,0,1,5,5v128a5,5,0,0,1-5,5Z"/><polygon class="cls-1" points="105.42 504.82 105.42 376.79 141.64 376.79 141.64 340.55 177.88 340.55 177.88 288.1 141.64 288.1 141.64 215.67 105.42 215.67 105.42 51.4 141.64 51.4 141.64 15.18 379 15.18 379 51.4 414.58 51.4 414.58 215.67 379 215.67 379 288.1 342.77 288.1 342.77 340.55 379 340.55 379 376.79 414.58 376.79 414.58 504.82 105.42 504.82"/><polygon class="cls-2" points="332.77 169.44 332.77 205.67 296.54 205.67 296.54 169.44 332.77 169.44 332.77 169.44"/><polygon class="cls-3" points="260.32 314.33 224.09 314.33 224.09 350.55 224.09 386.78 224.09 423 224.09 458.59 224.09 494.82 260.32 494.82 296.54 494.82 296.54 458.59 296.54 423 296.54 386.78 296.54 350.55 296.54 314.33 260.32 314.33 260.32 314.33"/><polygon class="cls-2" points="224.09 169.44 224.09 205.67 187.88 205.67 187.88 169.44 224.09 169.44 224.09 169.44"/><polygon class="cls-4" points="369 386.78 369 423 369 458.59 369 494.82 404.58 494.82 404.58 458.59 404.58 423 404.58 386.78 369 386.78 369 386.78"/><polygon class="cls-4" points="115.42 423 115.42 458.59 115.42 494.82 151.64 494.82 151.64 458.59 151.64 423 151.64 386.78 115.42 386.78 115.42 423 115.42 423"/><polygon class="cls-5" points="369 25.18 332.77 25.18 296.54 25.18 260.32 25.18 224.09 25.18 187.88 25.18 151.64 25.18 151.64 61.4 115.42 61.4 115.42 97.63 115.42 133.22 115.42 169.44 115.42 205.67 151.64 205.67 151.64 169.44 187.88 169.44 187.88 133.22 224.09 133.22 260.32 133.22 296.54 133.22 332.77 133.22 332.77 169.44 369 169.44 369 205.67 404.58 205.67 404.58 169.44 404.58 133.22 404.58 97.63 404.58 61.4 369 61.4 369 25.18 369 25.18"/><polygon class="cls-6" points="332.77 314.33 296.54 314.33 296.54 350.55 296.54 386.78 296.54 423 296.54 458.59 296.54 494.82 332.77 494.82 369 494.82 369 458.59 369 423 369 386.78 369 350.55 332.77 350.55 332.77 314.33 332.77 314.33"/><polygon class="cls-6" points="187.88 350.55 151.64 350.55 151.64 386.78 151.64 423 151.64 458.59 151.64 494.82 187.88 494.82 224.09 494.82 224.09 458.59 224.09 423 224.09 386.78 224.09 350.55 224.09 314.33 187.88 314.33 187.88 350.55 187.88 350.55"/><polygon class="cls-7" points="224.09 241.89 224.09 278.1 260.32 278.1 296.54 278.1 296.54 241.89 260.32 241.89 224.09 241.89 224.09 241.89"/><path class="cls-8" d="M260.32,278.1H224.08V241.89h72.46V278.1ZM369,241.89V169.44H332.77v36.23H296.54V169.44h36.23V133.22H187.88v36.22h36.2v36.23h-36.2V169.44H151.64V278.1h36.24v36.23H332.77V278.1H369V241.89Z"/></svg>