<svg id="圖層_1" data-name="圖層 1" xmlns="http://www.w3.org/2000/svg" viewBox="0 0 520 520"><defs><style>.cls-1{fill:#231815;}.cls-2{fill:#8e3e13;}.cls-3{fill:#765529;}.cls-4{fill:#523d34;}.cls-5{fill:#c67d34;}.cls-6{fill:#f4a680;}.cls-7{fill:#f9c696;}</style></defs><title>figure</title><path class="cls-1" d="M119.85,509.82a5,5,0,0,1-5-5V329.33H83.61a5,5,0,0,1-5-5V87a5,5,0,0,1,5-5h31.24V50.76a5,5,0,0,1,5-5h31.21V15.18a5,5,0,0,1,5-5H392.77a5,5,0,0,1,5,5V45.76H429a5,5,0,0,1,5,5V82h31.22a5,5,0,0,1,5,5V324.33a5,5,0,0,1-5,5H434V504.82a5,5,0,0,1-5,5Z"/><polygon class="cls-1" points="119.85 504.82 119.85 324.33 83.61 324.33 83.61 86.98 119.85 86.98 119.85 50.76 156.06 50.76 156.06 15.18 392.77 15.18 392.77 50.76 429 50.76 429 86.98 465.22 86.98 465.22 324.33 429 324.33 429 504.82 119.85 504.82"/><polygon class="cls-2" points="346.55 169.43 346.55 205.65 310.33 205.65 310.33 169.43 346.55 169.43 346.55 169.43"/><polygon class="cls-2" points="238.51 169.43 238.51 205.65 202.29 205.65 202.29 169.43 238.51 169.43 238.51 169.43"/><polygon class="cls-3" points="346.55 458.59 346.55 422.37 346.55 386.14 310.33 386.14 310.33 422.37 310.33 458.59 310.33 494.82 346.55 494.82 382.77 494.82 382.77 458.59 346.55 458.59 346.55 458.59"/><polygon class="cls-3" points="202.29 422.37 202.29 458.59 166.06 458.59 166.06 494.82 202.29 494.82 238.51 494.82 238.51 458.59 238.51 422.37 238.51 386.14 202.29 386.14 202.29 422.37 202.29 422.37"/><polygon class="cls-4" points="382.77 422.37 382.77 458.59 382.77 494.82 419 494.82 419 458.59 419 422.37 382.77 422.37 382.77 422.37"/><polygon class="cls-4" points="274.73 350.55 238.51 350.55 202.29 350.55 202.29 386.14 238.51 386.14 238.51 422.37 238.51 458.59 238.51 494.82 274.73 494.82 310.33 494.82 310.33 458.59 310.33 422.37 310.33 386.14 346.55 386.14 346.55 350.55 310.33 350.55 274.73 350.55 274.73 350.55"/><polygon class="cls-4" points="129.85 458.59 129.85 494.82 166.06 494.82 166.06 458.59 166.06 422.37 129.85 422.37 129.85 458.59 129.85 458.59"/><polygon class="cls-5" points="419 96.98 419 60.76 382.77 60.76 382.77 25.18 346.55 25.18 310.33 25.18 274.73 25.18 238.51 25.18 202.29 25.18 166.06 25.18 166.06 60.76 129.85 60.76 129.85 96.98 93.61 96.98 93.61 133.22 93.61 169.43 93.61 205.65 93.61 241.88 93.61 278.1 93.61 314.33 129.85 314.33 129.85 350.55 129.85 386.14 129.85 422.37 166.06 422.37 166.06 458.59 202.29 458.59 202.29 422.37 202.29 386.14 202.29 350.55 238.51 350.55 238.51 314.33 202.29 314.33 202.29 278.1 166.06 278.1 166.06 241.88 166.06 205.65 166.06 169.43 202.29 169.43 202.29 133.22 238.51 133.22 274.73 133.22 310.33 133.22 346.55 133.22 346.55 169.43 382.77 169.43 382.77 205.65 382.77 241.88 382.77 278.1 346.55 278.1 346.55 314.33 310.33 314.33 310.33 350.55 346.55 350.55 346.55 386.14 346.55 422.37 346.55 458.59 382.77 458.59 382.77 422.37 419 422.37 419 386.14 419 350.55 419 314.33 455.22 314.33 455.22 278.1 455.22 241.88 455.22 205.65 455.22 169.43 455.22 133.22 455.22 96.98 419 96.98 419 96.98"/><polygon class="cls-6" points="238.51 241.88 238.51 278.1 274.73 278.1 310.33 278.1 310.33 241.88 274.73 241.88 238.51 241.88 238.51 241.88"/><path class="cls-7" d="M274.73,278.1H238.51V241.88h71.82V278.1Zm71.82-72.45H310.33V169.43h36.22V133.22H202.29v36.21h36.22v36.22H202.29V169.43H166.06V278.1h36.23v36.23h36.22v36.22h71.82V314.33h36.22V278.1h36.22V169.43H346.55v36.22Z"/></svg>