<svg id="圖層_1" data-name="圖層 1" xmlns="http://www.w3.org/2000/svg" viewBox="0 0 520 520"><defs><style>.cls-1{fill:#231815;}.cls-2{fill:#8e3e13;}.cls-3{fill:#9fa0a0;}.cls-4{fill:#b8a708;}.cls-5{fill:#f18f4a;}.cls-6{fill:#e83b3b;}.cls-7{fill:#f39700;}.cls-8{fill:#f4a680;}.cls-9{fill:#f9c696;}</style></defs><title>figure</title><path class="cls-1" d="M105.43,509.82a5,5,0,0,1-5-5v-128a5,5,0,0,1,5-5h31.22V340.55a5,5,0,0,1,5-5H209.1v-6.22H105.43a5,5,0,0,1-5-5V293.1H69.2a5,5,0,0,1-5-5V123.21a5,5,0,0,1,5-5h31.23V51.4a5,5,0,0,1,5-5h31.22V15.18a5,5,0,0,1,5-5h236.7a5,5,0,0,1,5,5V46.4h31.23a5,5,0,0,1,5,5v66.81H450.8a5,5,0,0,1,5,5V288.1a5,5,0,0,1-5,5H419.58v31.23a5,5,0,0,1-5,5H310.92v6.22h67.43a5,5,0,0,1,5,5v31.23h31.23a5,5,0,0,1,5,5v128a5,5,0,0,1-5,5Z"/><polygon class="cls-1" points="105.43 504.82 105.43 376.78 141.65 376.78 141.65 340.55 214.1 340.55 214.1 324.33 105.43 324.33 105.43 288.1 69.2 288.1 69.2 123.22 105.43 123.22 105.43 51.4 141.65 51.4 141.65 15.18 378.35 15.18 378.35 51.4 414.58 51.4 414.58 123.22 450.8 123.22 450.8 288.1 414.58 288.1 414.58 324.33 305.92 324.33 305.92 340.55 378.35 340.55 378.35 376.78 414.58 376.78 414.58 504.82 105.43 504.82"/><polygon class="cls-2" points="332.13 168.6 332.13 204.84 295.92 204.84 295.92 168.6 332.13 168.6 332.13 168.6"/><polygon class="cls-2" points="224.1 168.6 224.1 204.84 187.88 204.84 187.88 168.6 224.1 168.6 224.1 168.6"/><polygon class="cls-3" points="404.58 132.38 404.58 96.8 404.58 60.57 368.35 60.57 368.35 24.35 332.13 24.35 295.92 24.35 260.32 24.35 224.1 24.35 187.88 24.35 151.65 24.35 151.65 60.57 115.43 60.57 115.43 96.8 115.43 132.38 79.2 132.38 79.2 168.6 79.2 204.84 79.2 241.05 79.2 277.27 115.43 277.27 115.43 313.5 151.65 313.5 187.88 313.5 187.88 277.27 151.65 277.27 151.65 241.05 151.65 204.84 151.65 168.6 187.88 168.6 187.88 132.38 224.1 132.38 260.32 132.38 295.92 132.38 332.13 132.38 332.13 168.6 368.35 168.6 368.35 204.84 368.35 241.05 368.35 277.27 332.13 277.27 332.13 313.5 368.35 313.5 404.58 313.5 404.58 277.27 440.8 277.27 440.8 241.05 440.8 204.84 440.8 168.6 440.8 132.38 404.58 132.38 404.58 132.38"/><polygon class="cls-4" points="368.35 422.17 368.35 457.76 368.35 493.99 404.58 493.99 404.58 457.76 404.58 422.17 404.58 385.95 368.35 385.95 368.35 422.17 368.35 422.17"/><polygon class="cls-4" points="115.43 422.17 115.43 457.76 115.43 493.99 151.65 493.99 151.65 457.76 151.65 422.17 151.65 385.95 115.43 385.95 115.43 422.17 115.43 422.17"/><polygon class="cls-5" points="332.13 385.95 332.13 422.17 332.13 457.76 332.13 493.99 368.35 493.99 368.35 457.76 368.35 422.17 368.35 385.95 368.35 349.72 332.13 349.72 332.13 385.95 332.13 385.95"/><polygon class="cls-6" points="224.1 385.95 224.1 422.17 224.1 457.76 224.1 493.99 260.32 493.99 295.92 493.99 295.92 457.76 295.92 422.17 295.92 385.95 260.32 385.95 224.1 385.95 224.1 385.95"/><polygon class="cls-5" points="151.65 385.95 151.65 422.17 151.65 457.76 151.65 493.99 187.88 493.99 187.88 457.76 187.88 422.17 187.88 385.95 187.88 349.72 151.65 349.72 151.65 385.95 151.65 385.95"/><polygon class="cls-7" points="295.92 385.95 295.92 422.17 295.92 457.76 295.92 493.99 332.13 493.99 332.13 457.76 332.13 422.17 332.13 385.95 332.13 349.72 295.92 349.72 295.92 385.95 295.92 385.95"/><polygon class="cls-7" points="187.88 385.95 187.88 422.17 187.88 457.76 187.88 493.99 224.1 493.99 224.1 457.76 224.1 422.17 224.1 385.95 224.1 349.72 187.88 349.72 187.88 385.95 187.88 385.95"/><polygon class="cls-8" points="224.1 241.05 224.1 277.27 260.32 277.27 295.92 277.27 295.92 241.05 260.32 241.05 224.1 241.05 224.1 241.05"/><path class="cls-9" d="M260.32,277.27H224.1V241.05h71.82v36.22Zm71.81-72.44H295.92V168.6h36.21V132.38H187.88V168.6H224.1v36.23H187.88V168.6H151.65V277.27h36.23V313.5H224.1V386h71.82V313.5h36.21V277.27h36.22V168.6H332.13v36.23Z"/></svg>