<svg id="圖層_1" data-name="圖層 1" xmlns="http://www.w3.org/2000/svg" viewBox="0 0 520 520"><defs><style>.cls-1{fill:#231815;}.cls-2{fill:#183346;}.cls-3{fill:#543d2a;}.cls-4{fill:#70a0bc;}.cls-5{fill:#17334a;}.cls-6{fill:#5e3b00;}.cls-7{fill:#f4a680;}.cls-8{fill:#f9c696;}</style></defs><title>figure</title><path class="cls-1" d="M105.42,509.82a5,5,0,0,1-5-5V376.14a5,5,0,0,1,5-5h66.82V340.55a5,5,0,0,1,5-5h31.22v-6.22H177.24a5,5,0,0,1-5-5V293.1H141a5,5,0,0,1-5-5V256.88h-30.6a5,5,0,0,1-5-5V50.76a5,5,0,0,1,5-5H136V15.18a5,5,0,0,1,5-5H378.36a5,5,0,0,1,5,5V45.76h31.22a5,5,0,0,1,5,5V251.88a5,5,0,0,1-5,5H383.36V288.1a5,5,0,0,1-5,5H347.14v31.23a5,5,0,0,1-5,5H310.91v6.22h31.23a5,5,0,0,1,5,5v30.59h67.44a5,5,0,0,1,5,5V504.82a5,5,0,0,1-5,5Z"/><polygon class="cls-1" points="105.42 504.82 105.42 376.14 177.24 376.14 177.24 340.55 213.46 340.55 213.46 324.33 177.24 324.33 177.24 288.1 141.02 288.1 141.02 251.88 105.42 251.88 105.42 50.76 141.02 50.76 141.02 15.18 378.36 15.18 378.36 50.76 414.58 50.76 414.58 251.88 378.36 251.88 378.36 288.1 342.14 288.1 342.14 324.33 305.91 324.33 305.91 340.55 342.14 340.55 342.14 376.14 414.58 376.14 414.58 504.82 105.42 504.82"/><polygon class="cls-2" points="332.14 350.55 332.14 386.14 295.91 386.14 295.91 350.55 332.14 350.55 332.14 350.55"/><polygon class="cls-3" points="332.14 169.43 332.14 205.65 295.91 205.65 295.91 169.43 332.14 169.43 332.14 169.43"/><polygon class="cls-2" points="223.46 350.55 223.46 386.14 187.24 386.14 187.24 350.55 223.46 350.55 223.46 350.55"/><polygon class="cls-3" points="223.46 169.43 223.46 205.65 187.24 205.65 187.24 169.43 223.46 169.43 223.46 169.43"/><polygon class="cls-4" points="332.14 386.14 295.91 386.14 295.91 422.37 259.69 422.37 223.46 422.37 223.46 386.14 187.24 386.14 151.02 386.14 151.02 422.37 151.02 458.59 151.02 494.82 187.24 494.82 223.46 494.82 259.69 494.82 295.91 494.82 332.14 494.82 368.36 494.82 368.36 458.59 368.36 422.37 368.36 386.14 332.14 386.14 332.14 386.14"/><polygon class="cls-2" points="368.36 386.14 368.36 422.37 368.36 458.59 368.36 494.82 404.58 494.82 404.58 458.59 404.58 422.37 404.58 386.14 368.36 386.14 368.36 386.14"/><polygon class="cls-5" points="223.46 386.14 223.46 422.37 259.69 422.37 295.91 422.37 295.91 386.14 259.69 386.14 223.46 386.14 223.46 386.14"/><polygon class="cls-2" points="115.42 422.37 115.42 458.59 115.42 494.82 151.02 494.82 151.02 458.59 151.02 422.37 151.02 386.14 115.42 386.14 115.42 422.37 115.42 422.37"/><polygon class="cls-6" points="368.36 60.76 368.36 25.18 332.14 25.18 295.91 25.18 259.69 25.18 223.46 25.18 187.24 25.18 151.02 25.18 151.02 60.76 115.42 60.76 115.42 96.98 115.42 133.22 115.42 169.43 115.42 205.65 115.42 241.88 151.02 241.88 151.02 205.65 151.02 169.43 187.24 169.43 187.24 133.22 223.46 133.22 259.69 133.22 295.91 133.22 332.14 133.22 332.14 169.43 368.36 169.43 368.36 205.65 368.36 241.88 404.58 241.88 404.58 205.65 404.58 169.43 404.58 133.22 404.58 96.98 404.58 60.76 368.36 60.76 368.36 60.76"/><polygon class="cls-7" points="223.46 241.88 223.46 278.1 259.69 278.1 295.91 278.1 295.91 241.88 259.69 241.88 223.46 241.88 223.46 241.88"/><path class="cls-8" d="M259.69,278.1H223.46V241.88h72.45V278.1Zm72.45-72.45H295.91V169.43h36.23V133.22H187.24v36.21h36.22v36.22H187.24V169.43H151V278.1h36.22v36.23h36.22v71.81h72.45V314.33h36.23V278.1h36.22V169.43H332.14v36.22Z"/></svg>