<svg id="圖層_1" data-name="圖層 1" xmlns="http://www.w3.org/2000/svg" viewBox="0 0 520 520"><defs><style>.cls-1{fill:#231815;}.cls-2{fill:#543d2a;}.cls-3{fill:#571d69;}.cls-4{fill:#6e481c;}.cls-5{fill:#b6668e;}.cls-6{fill:#f4a680;}.cls-7{fill:#cd719b;}.cls-8{fill:#f9c696;}</style></defs><title>figure</title><path class="cls-1" d="M115.77,509a5,5,0,0,1-5-5V383.69a5,5,0,0,1,5-5h61.68V350.05a5,5,0,0,1,5-5h28.62v-3.62H148.82a5,5,0,0,1-5-5V307.79h-28a5,5,0,0,1-5-5V240.54H82.15a5,5,0,0,1-5-5V115.25a5,5,0,0,1,5-5h28.62V81.61a5,5,0,0,1,5-5h28.05V48a5,5,0,0,1,5-5h28.63V14.35a5,5,0,0,1,5-5H337a5,5,0,0,1,5,5V43h28.62a5,5,0,0,1,5,5V76.61h28.63a5,5,0,0,1,5,5v28.64h28.63a5,5,0,0,1,5,5V235.54a5,5,0,0,1-5,5H409.22v62.25a5,5,0,0,1-5,5H375.59v28.64a5,5,0,0,1-5,5H308.33v3.62H337a5,5,0,0,1,5,5v28.64h62.25a5,5,0,0,1,5,5V504a5,5,0,0,1-5,5Z"/><polygon class="cls-1" points="115.77 503.99 115.77 383.69 182.45 383.69 182.45 350.05 216.07 350.05 216.07 336.43 148.82 336.43 148.82 302.79 115.77 302.79 115.77 235.54 82.15 235.54 82.15 115.25 115.77 115.25 115.77 81.61 148.82 81.61 148.82 47.98 182.45 47.98 182.45 14.35 336.97 14.35 336.97 47.98 370.59 47.98 370.59 81.61 404.22 81.61 404.22 115.25 437.85 115.25 437.85 235.54 404.22 235.54 404.22 302.79 370.59 302.79 370.59 336.43 303.33 336.43 303.33 350.05 336.97 350.05 336.97 383.69 404.22 383.69 404.22 503.99 115.77 503.99"/><path class="cls-1" d="M125.77,499a5,5,0,0,1-5-5V393.69a5,5,0,0,1,5-5h61.68V360.05a5,5,0,0,1,5-5h28.62V331.43H158.82a5,5,0,0,1-5-5V297.79h-28a5,5,0,0,1-5-5V230.54H92.15a5,5,0,0,1-5-5V125.25a5,5,0,0,1,5-5h28.62V91.61a5,5,0,0,1,5-5h28.05V58a5,5,0,0,1,5-5h28.63V24.35a5,5,0,0,1,5-5H327a5,5,0,0,1,5,5V53h28.62a5,5,0,0,1,5,5V86.61h28.63a5,5,0,0,1,5,5v28.64h28.63a5,5,0,0,1,5,5V225.54a5,5,0,0,1-5,5H399.22v62.25a5,5,0,0,1-5,5H365.59v28.64a5,5,0,0,1-5,5H298.33v23.62H327a5,5,0,0,1,5,5v28.64h62.25a5,5,0,0,1,5,5V494a5,5,0,0,1-5,5Z"/><polygon class="cls-1" points="394.22 125.25 394.22 91.61 360.59 91.61 360.59 57.98 326.97 57.98 326.97 24.35 293.33 24.35 259.71 24.35 226.07 24.35 192.45 24.35 192.45 57.98 158.82 57.98 158.82 91.61 125.77 91.61 125.77 125.25 92.15 125.25 92.15 158.28 92.15 191.91 92.15 225.54 125.77 225.54 125.77 259.17 125.77 292.79 158.82 292.79 158.82 326.43 192.45 326.43 226.07 326.43 226.07 360.05 192.45 360.05 192.45 393.69 158.82 393.69 125.77 393.69 125.77 427.31 125.77 460.35 125.77 493.99 158.82 493.99 192.45 493.99 226.07 493.99 259.71 493.99 293.33 493.99 326.97 493.99 360.59 493.99 394.22 493.99 394.22 460.35 394.22 427.31 394.22 393.69 360.59 393.69 326.97 393.69 326.97 360.05 293.33 360.05 293.33 326.43 326.97 326.43 360.59 326.43 360.59 292.79 394.22 292.79 394.22 259.17 394.22 225.54 427.85 225.54 427.85 191.91 427.85 158.28 427.85 125.25 394.22 125.25"/><polygon class="cls-2" points="326.97 191.91 326.97 225.54 293.33 225.54 293.33 191.91 326.97 191.91 326.97 191.91"/><polygon class="cls-2" points="226.07 191.91 226.07 225.54 192.45 225.54 192.45 191.91 226.07 191.91 226.07 191.91"/><polygon class="cls-3" points="326.97 427.31 326.97 460.35 293.33 460.35 259.71 460.35 226.07 460.35 192.45 460.35 192.45 427.31 192.45 393.69 158.82 393.69 158.82 427.31 158.82 460.35 158.82 493.99 192.45 493.99 226.07 493.99 259.71 493.99 293.33 493.99 326.97 493.99 360.59 493.99 360.59 460.35 360.59 427.31 360.59 393.69 326.97 393.69 326.97 427.31 326.97 427.31"/><polygon class="cls-3" points="326.97 57.98 293.33 57.98 259.71 57.98 226.07 57.98 192.45 57.98 158.82 57.98 158.82 91.61 192.45 91.61 226.07 91.61 259.71 91.61 293.33 91.61 326.97 91.61 360.59 91.61 360.59 57.98 326.97 57.98 326.97 57.98"/><polygon class="cls-4" points="360.59 125.25 326.97 125.25 293.33 125.25 259.71 125.25 226.07 125.25 192.45 125.25 158.82 125.25 125.77 125.25 92.15 125.25 92.15 158.28 92.15 191.91 92.15 225.54 125.77 225.54 125.77 259.17 125.77 292.79 158.82 292.79 158.82 259.17 158.82 225.54 158.82 191.91 192.45 191.91 192.45 158.28 226.07 158.28 259.71 158.28 293.33 158.28 326.97 158.28 326.97 191.91 360.59 191.91 360.59 225.54 360.59 259.17 360.59 292.79 394.22 292.79 394.22 259.17 394.22 225.54 427.85 225.54 427.85 191.91 427.85 158.28 427.85 125.25 394.22 125.25 360.59 125.25 360.59 125.25"/><polygon class="cls-4" points="326.97 326.43 360.59 326.43 360.59 292.79 326.97 292.79 326.97 326.43 326.97 326.43"/><polygon class="cls-4" points="192.45 326.43 192.45 292.79 158.82 292.79 158.82 326.43 192.45 326.43 192.45 326.43"/><polygon class="cls-5" points="360.59 427.31 360.59 460.35 360.59 493.99 394.22 493.99 394.22 460.35 394.22 427.31 394.22 393.69 360.59 393.69 360.59 427.31 360.59 427.31"/><polygon class="cls-5" points="125.77 427.31 125.77 460.35 125.77 493.99 158.82 493.99 158.82 460.35 158.82 427.31 158.82 393.69 125.77 393.69 125.77 427.31 125.77 427.31"/><polygon class="cls-6" points="226.07 259.17 226.07 292.79 259.71 292.79 293.33 292.79 293.33 259.17 259.71 259.17 226.07 259.17 226.07 259.17"/><polygon class="cls-7" points="326.97 91.61 293.33 91.61 259.71 91.61 226.07 91.61 192.45 91.61 158.82 91.61 125.77 91.61 125.77 125.25 158.82 125.25 192.45 125.25 226.07 125.25 259.71 125.25 293.33 125.25 326.97 125.25 360.59 125.25 394.22 125.25 394.22 91.61 360.59 91.61 326.97 91.61 326.97 91.61"/><polygon class="cls-7" points="259.71 57.98 293.33 57.98 326.97 57.98 326.97 24.35 293.33 24.35 259.71 24.35 226.07 24.35 192.45 24.35 192.45 57.98 226.07 57.98 259.71 57.98 259.71 57.98"/><polygon class="cls-7" points="192.45 360.05 192.45 393.69 192.45 427.31 192.45 460.35 226.07 460.35 259.71 460.35 293.33 460.35 326.97 460.35 326.97 427.31 326.97 393.69 326.97 360.05 293.33 360.05 293.33 393.69 259.71 393.69 226.07 393.69 226.07 360.05 192.45 360.05 192.45 360.05"/><path class="cls-8" d="M259.71,292.79H226.07V259.17h67.26v33.62ZM327,225.54H293.33V191.91H327V158.28H192.45v33.63h33.62v33.63H192.45V191.91H158.82V292.79h33.63v33.64h33.62v67.26h67.26V326.43H327V292.79h33.62V191.91H327v33.63Z"/></svg>