<svg id="圖層_1" data-name="圖層 1" xmlns="http://www.w3.org/2000/svg" viewBox="0 0 520 520"><defs><style>.cls-1{fill:#231815;}.cls-2{fill:#8e3e13;}.cls-3{fill:#70c7f1;}.cls-4{fill:#0091d0;}.cls-5{fill:#cd535e;}.cls-6{fill:#f7b500;}.cls-7{fill:#f4a680;}.cls-8{fill:#f9c696;}</style></defs><title>figure</title><path class="cls-1" d="M105.1,509.82a5,5,0,0,1-5-5V376.14a5,5,0,0,1,5-5h67.45V340.55a5,5,0,0,1,5-5h31.22v-6.22H177.55a5,5,0,0,1-5-5V293.1H141.32a5,5,0,0,1-5-5V256.88H105.1a5,5,0,0,1-5-5V184.43H69.51a5,5,0,0,1-5-5V50.76a5,5,0,0,1,5-5h66.81V15.18a5,5,0,0,1,5-5H378.67a5,5,0,0,1,5,5V45.76h66.82a5,5,0,0,1,5,5V179.43a5,5,0,0,1-5,5H419.91v67.45a5,5,0,0,1-5,5H383.67V288.1a5,5,0,0,1-5,5H347.45v31.23a5,5,0,0,1-5,5H311.22v6.22h31.23a5,5,0,0,1,5,5v30.59h67.46a5,5,0,0,1,5,5V504.82a5,5,0,0,1-5,5Z"/><polygon class="cls-1" points="105.1 504.82 105.1 376.14 177.55 376.14 177.55 340.55 213.77 340.55 213.77 324.33 177.55 324.33 177.55 288.1 141.31 288.1 141.31 251.88 105.1 251.88 105.1 179.43 69.51 179.43 69.51 50.76 141.31 50.76 141.31 15.18 378.67 15.18 378.67 50.76 450.49 50.76 450.49 179.43 414.9 179.43 414.9 251.88 378.67 251.88 378.67 288.1 342.45 288.1 342.45 324.33 306.22 324.33 306.22 340.55 342.45 340.55 342.45 376.14 414.9 376.14 414.9 504.82 105.1 504.82"/><polygon class="cls-2" points="332.45 169.43 332.45 205.65 296.22 205.65 296.22 169.43 332.45 169.43 332.45 169.43"/><polygon class="cls-2" points="223.77 169.43 223.77 205.65 187.55 205.65 187.55 169.43 223.77 169.43 223.77 169.43"/><polygon class="cls-3" points="368.67 386.14 368.67 422.37 368.67 458.59 368.67 494.82 404.91 494.82 404.91 458.59 404.91 422.37 404.91 386.14 368.67 386.14 368.67 386.14"/><polygon class="cls-3" points="115.1 422.37 115.1 458.59 115.1 494.82 151.32 494.82 151.32 458.59 151.32 422.37 151.32 386.14 115.1 386.14 115.1 422.37 115.1 422.37"/><polygon class="cls-4" points="332.45 422.37 332.45 458.59 368.67 458.59 368.67 422.37 368.67 386.14 332.45 386.14 332.45 422.37 332.45 422.37"/><polygon class="cls-4" points="296.22 494.82 332.45 494.82 332.45 458.59 296.22 458.59 296.22 494.82 296.22 494.82"/><polygon class="cls-4" points="296.22 386.14 259.99 386.14 259.99 422.37 259.99 458.59 296.22 458.59 296.22 422.37 296.22 386.14 296.22 386.14"/><polygon class="cls-4" points="223.77 494.82 259.99 494.82 259.99 458.59 223.77 458.59 223.77 494.82 223.77 494.82"/><polygon class="cls-4" points="223.77 386.14 223.77 350.55 187.55 350.55 187.55 386.14 187.55 422.37 187.55 458.59 223.77 458.59 223.77 422.37 223.77 386.14 223.77 386.14"/><polygon class="cls-4" points="151.32 494.82 187.55 494.82 187.55 458.59 151.32 458.59 151.32 494.82 151.32 494.82"/><polygon class="cls-5" points="332.45 458.59 332.45 494.82 368.67 494.82 368.67 458.59 332.45 458.59 332.45 458.59"/><polygon class="cls-5" points="332.45 386.14 332.45 350.55 296.22 350.55 296.22 386.14 296.22 422.37 296.22 458.59 332.45 458.59 332.45 422.37 332.45 386.14 332.45 386.14"/><polygon class="cls-5" points="259.99 494.82 296.22 494.82 296.22 458.59 259.99 458.59 259.99 494.82 259.99 494.82"/><polygon class="cls-5" points="259.99 386.14 223.77 386.14 223.77 422.37 223.77 458.59 259.99 458.59 259.99 422.37 259.99 386.14 259.99 386.14"/><polygon class="cls-5" points="187.55 494.82 223.77 494.82 223.77 458.59 187.55 458.59 187.55 494.82 187.55 494.82"/><polygon class="cls-5" points="187.55 386.14 151.32 386.14 151.32 422.37 151.32 458.59 187.55 458.59 187.55 422.37 187.55 386.14 187.55 386.14"/><polygon class="cls-6" points="368.67 60.76 368.67 25.18 332.45 25.18 296.22 25.18 259.99 25.18 223.77 25.18 187.55 25.18 151.32 25.18 151.32 60.76 115.1 60.76 79.51 60.76 79.51 96.98 79.51 133.22 79.51 169.43 115.1 169.43 115.1 205.65 115.1 241.88 151.32 241.88 151.32 205.65 151.32 169.43 151.32 133.22 187.55 133.22 223.77 133.22 259.99 133.22 296.22 133.22 332.45 133.22 368.67 133.22 368.67 169.43 368.67 205.65 368.67 241.88 404.91 241.88 404.91 205.65 404.91 169.43 440.49 169.43 440.49 133.22 440.49 96.98 440.49 60.76 404.91 60.76 368.67 60.76 368.67 60.76"/><polygon class="cls-7" points="223.77 241.88 223.77 278.1 259.99 278.1 296.22 278.1 296.22 241.88 259.99 241.88 223.77 241.88 223.77 241.88"/><path class="cls-8" d="M332.45,205.65H296.22V169.43h36.23v36.22ZM260,278.1H223.77V241.88h72.45V278.1ZM187.55,169.43h36.22v36.22H187.55V169.43Zm108.67-36.21H151.32V278.1h36.23v36.23h36.22v71.81h72.45V314.33h36.23V278.1h36.22V133.22H296.22Z"/></svg>