<svg id="圖層_1" data-name="圖層 1" xmlns="http://www.w3.org/2000/svg" viewBox="0 0 520 520"><defs><style>.cls-1{fill:#231815;}.cls-2{fill:#009a9a;}.cls-3{fill:#44acc2;}.cls-4{fill:#543d2a;}.cls-5{fill:#f18f4a;}.cls-6{fill:#f4a680;}.cls-7{fill:#fee386;}.cls-8{fill:#f9c696;}.cls-9{fill:#89628f;}.cls-10{fill:#9fa0a0;}</style></defs><title>figure</title><path class="cls-1" d="M105.42,509.82a5,5,0,0,1-5-5V376.14a5,5,0,0,1,5-5H136V340.55a5,5,0,0,1,5-5h67.43v-6.21H177.23a5,5,0,0,1-5-5V293.1H141a5,5,0,0,1-5-5V256.88h-30.6a5,5,0,0,1-5-5V184.43H69.2a5,5,0,0,1-5-5V50.76a5,5,0,0,1,5-5h31.22V15.18a5,5,0,0,1,5-5h91.81a5,5,0,0,1,5,5V45.76h114.9V15.18a5,5,0,0,1,5-5h92.44a5,5,0,0,1,5,5V45.76H450.8a5,5,0,0,1,5,5V179.43a5,5,0,0,1-5,5H419.57v67.45a5,5,0,0,1-5,5H383.35V288.1a5,5,0,0,1-5,5H347.13v31.24a5,5,0,0,1-5,5H310.9v6.21h67.45a5,5,0,0,1,5,5v30.59h31.22a5,5,0,0,1,5,5V504.82a5,5,0,0,1-5,5Z"/><polygon class="cls-1" points="105.42 504.82 105.42 376.14 141.02 376.14 141.02 340.55 213.45 340.55 213.45 324.34 177.23 324.34 177.23 288.1 141.02 288.1 141.02 251.88 105.42 251.88 105.42 179.43 69.2 179.43 69.2 50.76 105.42 50.76 105.42 15.18 197.23 15.18 197.23 50.76 322.13 50.76 322.13 15.18 414.57 15.18 414.57 50.76 450.8 50.76 450.8 179.43 414.57 179.43 414.57 251.88 378.35 251.88 378.35 288.1 342.13 288.1 342.13 324.34 305.9 324.34 305.9 340.55 378.35 340.55 378.35 376.14 414.57 376.14 414.57 504.82 105.42 504.82"/><polygon class="cls-2" points="368.35 458.59 368.35 494.82 332.13 494.82 332.13 458.59 368.35 458.59 368.35 458.59"/><polygon class="cls-3" points="368.35 422.37 368.35 458.59 332.13 458.59 332.13 422.37 368.35 422.37 368.35 422.37"/><polygon class="cls-2" points="368.35 386.14 368.35 422.37 332.13 422.37 332.13 386.14 368.35 386.14 368.35 386.14"/><polygon class="cls-3" points="368.35 350.55 368.35 386.14 332.13 386.14 332.13 350.55 368.35 350.55 368.35 350.55"/><polygon class="cls-4" points="332.13 169.43 332.13 205.65 295.9 205.65 295.9 169.43 332.13 169.43 332.13 169.43"/><polygon class="cls-5" points="223.45 314.34 223.45 350.55 223.45 386.14 223.45 422.37 223.45 458.59 223.45 494.82 259.68 494.82 295.9 494.82 295.9 458.59 295.9 422.37 295.9 386.14 295.9 350.55 295.9 314.34 259.68 314.34 223.45 314.34 223.45 314.34"/><polygon class="cls-6" points="223.45 241.88 223.45 278.1 259.68 278.1 295.9 278.1 295.9 241.88 259.68 241.88 223.45 241.88 223.45 241.88"/><polygon class="cls-7" points="295.9 386.14 295.9 422.37 295.9 458.59 295.9 494.82 332.13 494.82 332.13 458.59 332.13 422.37 332.13 386.14 332.13 350.55 295.9 350.55 295.9 386.14 295.9 386.14"/><polygon class="cls-7" points="187.23 386.14 187.23 422.37 187.23 458.59 187.23 494.82 223.45 494.82 223.45 458.59 223.45 422.37 223.45 386.14 223.45 350.55 187.23 350.55 187.23 386.14 187.23 386.14"/><polygon class="cls-4" points="223.45 169.43 223.45 205.65 187.23 205.65 187.23 169.43 223.45 169.43 223.45 169.43"/><polygon class="cls-2" points="187.23 458.59 187.23 494.82 151.02 494.82 151.02 458.59 187.23 458.59 187.23 458.59"/><polygon class="cls-3" points="187.23 422.37 187.23 458.59 151.02 458.59 151.02 422.37 187.23 422.37 187.23 422.37"/><polygon class="cls-2" points="187.23 386.14 187.23 422.37 151.02 422.37 151.02 386.14 187.23 386.14 187.23 386.14"/><polygon class="cls-3" points="187.23 350.55 187.23 386.14 151.02 386.14 151.02 350.55 187.23 350.55 187.23 350.55"/><path class="cls-8" d="M223.45,241.88H295.9V278.1H223.45V241.88Zm-36.22-72.45h36.22v36.22H187.23V169.43Zm144.9,36.22H295.9V169.43h36.23v36.22ZM187.23,314.34h144.9V278.1h36.22V133.22H332.13V60.76H187.23v72.46H151V278.1h36.21v36.24Z"/><polygon class="cls-9" points="368.35 422.37 368.35 458.59 368.35 494.82 404.57 494.82 404.57 458.59 404.57 422.37 404.57 386.14 368.35 386.14 368.35 422.37 368.35 422.37"/><polygon class="cls-9" points="115.42 422.37 115.42 458.59 115.42 494.82 151.02 494.82 151.02 458.59 151.02 422.37 151.02 386.14 115.42 386.14 115.42 422.37 115.42 422.37"/><polygon class="cls-10" points="368.35 169.43 368.35 205.65 368.35 241.88 404.57 241.88 404.57 205.65 404.57 169.43 440.8 169.43 440.8 133.22 440.8 96.98 440.8 60.76 404.57 60.76 404.57 25.18 368.35 25.18 332.13 25.18 332.13 60.76 332.13 96.98 332.13 133.22 368.35 133.22 368.35 169.43 368.35 169.43"/><polygon class="cls-10" points="115.42 205.65 115.42 241.88 151.02 241.88 151.02 205.65 151.02 169.43 151.02 133.22 187.23 133.22 187.23 96.98 187.23 60.76 187.23 25.18 151.02 25.18 115.42 25.18 115.42 60.76 79.2 60.76 79.2 96.98 79.2 133.22 79.2 169.43 115.42 169.43 115.42 205.65 115.42 205.65"/></svg>