<svg id="圖層_1" data-name="圖層 1" xmlns="http://www.w3.org/2000/svg" viewBox="0 0 520 520"><defs><style>.cls-1{fill:#231815;}.cls-2{fill:#8e3e13;}.cls-3{fill:#f29d77;}.cls-4{fill:#a44a13;}.cls-5{fill:#7bbfc8;}.cls-6{fill:#63ad87;}.cls-7{fill:#a5cfb2;}.cls-8{fill:#f9c696;}</style></defs><title>figure</title><path class="cls-1" d="M33,509.82a5,5,0,0,1-5-5V231.88a5,5,0,0,1,5-5H64.2V123.21a5,5,0,0,1,5-5h31.23V51.4a5,5,0,0,1,5-5h31.23V15.18a5,5,0,0,1,5-5h236.7a5,5,0,0,1,5,5V46.4h31.23a5,5,0,0,1,5,5v66.81h31.22a5,5,0,0,1,5,5V226.88H487a5,5,0,0,1,5,5V504.82a5,5,0,0,1-5,5Z"/><polygon class="cls-1" points="32.98 504.82 32.98 231.88 69.2 231.88 69.2 123.22 105.43 123.22 105.43 51.4 141.66 51.4 141.66 15.18 378.36 15.18 378.36 51.4 414.59 51.4 414.59 123.22 450.81 123.22 450.81 231.88 487.02 231.88 487.02 504.82 32.98 504.82"/><polygon class="cls-2" points="332.14 169.43 332.14 205.67 295.9 205.67 295.9 169.43 332.14 169.43 332.14 169.43"/><polygon class="cls-3" points="259.69 241.88 224.1 241.88 224.1 278.1 259.69 278.1 295.9 278.1 295.9 241.88 259.69 241.88 259.69 241.88"/><polygon class="cls-2" points="224.1 169.43 224.1 205.67 187.89 205.67 187.89 169.43 224.1 169.43 224.1 169.43"/><polygon class="cls-4" points="440.81 205.67 440.81 169.43 440.81 133.22 404.59 133.22 404.59 97.63 404.59 61.4 368.36 61.4 368.36 25.18 332.14 25.18 295.9 25.18 259.69 25.18 224.1 25.18 187.89 25.18 151.66 25.18 151.66 61.4 115.43 61.4 115.43 97.63 115.43 133.22 79.2 133.22 79.2 169.43 79.2 205.67 79.2 241.88 42.98 241.88 42.98 278.1 42.98 314.33 42.98 350.55 42.98 386.78 42.98 423 42.98 458.59 42.98 494.82 79.2 494.82 115.43 494.82 115.43 458.59 79.2 458.59 79.2 423 79.2 386.78 115.43 386.78 151.66 386.78 187.89 386.78 187.89 350.55 224.1 350.55 224.1 314.33 187.89 314.33 187.89 278.1 151.66 278.1 151.66 241.88 151.66 205.67 151.66 169.43 187.89 169.43 187.89 133.22 224.1 133.22 259.69 133.22 295.9 133.22 332.14 133.22 332.14 169.43 368.36 169.43 368.36 205.67 368.36 241.88 368.36 278.1 332.14 278.1 332.14 314.33 295.9 314.33 295.9 350.55 332.14 350.55 332.14 386.78 368.36 386.78 404.59 386.78 440.81 386.78 440.81 423 440.81 458.59 404.59 458.59 404.59 494.82 440.81 494.82 477.02 494.82 477.02 458.59 477.02 423 477.02 386.78 477.02 350.55 477.02 314.33 477.02 278.1 477.02 241.88 440.81 241.88 440.81 205.67 440.81 205.67"/><polygon class="cls-5" points="332.14 423 295.9 423 295.9 458.59 259.69 458.59 224.1 458.59 224.1 423 187.89 423 187.89 386.78 151.66 386.78 151.66 423 151.66 458.59 151.66 494.82 187.89 494.82 224.1 494.82 259.69 494.82 295.9 494.82 332.14 494.82 368.36 494.82 368.36 458.59 368.36 423 368.36 386.78 332.14 386.78 332.14 423 332.14 423"/><polygon class="cls-6" points="404.59 386.78 368.36 386.78 368.36 423 368.36 458.59 368.36 494.82 404.59 494.82 404.59 458.59 440.81 458.59 440.81 423 440.81 386.78 404.59 386.78 404.59 386.78"/><polygon class="cls-6" points="79.2 386.78 79.2 423 79.2 458.59 115.43 458.59 115.43 494.82 151.66 494.82 151.66 458.59 151.66 423 151.66 386.78 115.43 386.78 79.2 386.78 79.2 386.78"/><polygon class="cls-7" points="259.69 350.55 224.1 350.55 187.89 350.55 187.89 386.78 187.89 423 224.1 423 224.1 458.59 259.69 458.59 295.9 458.59 295.9 423 332.14 423 332.14 386.78 332.14 350.55 295.9 350.55 259.69 350.55 259.69 350.55"/><path class="cls-8" d="M259.69,278.1H224.1V241.88h71.8V278.1Zm72.45-72.43H295.9V169.43h36.24V133.22H187.89v36.21H224.1v36.24H187.89V169.43H151.66V278.1h36.23v36.23H224.1v36.22h71.8V314.33h36.24V278.1h36.22V169.43H332.14v36.24Z"/></svg>