<svg id="圖層_1" data-name="圖層 1" xmlns="http://www.w3.org/2000/svg" viewBox="0 0 520 520"><defs><style>.cls-1{fill:#231815;}.cls-2{fill:#e94d7d;}.cls-3{fill:#543d2a;}.cls-4{fill:#905585;}.cls-5{fill:#f29ea3;}.cls-6{fill:#504f74;}.cls-7{fill:#f4a680;}.cls-8{fill:#f9c696;}</style></defs><title>figure</title><path class="cls-1" d="M105.1,509.82a5,5,0,0,1-5-5v-128a5,5,0,0,1,5-5h31.22V340.55a5,5,0,0,1,5-5h67.44v-6.22H177.55a5,5,0,0,1-5-5V293.1H141.32a5,5,0,0,1-5-5V256.88H105.1a5,5,0,0,1-5-5V220.67H69.51a5,5,0,0,1-5-5v-128a5,5,0,0,1,5-5H100.1V51.4a5,5,0,0,1,5-5h67.45V15.18a5,5,0,0,1,5-5h164.9a5,5,0,0,1,5,5V46.4h67.44a5,5,0,0,1,5,5V82.63h30.6a5,5,0,0,1,5,5v128a5,5,0,0,1-5,5h-30.6v31.21a5,5,0,0,1-5,5H383.66V288.1a5,5,0,0,1-5,5H347.45v31.23a5,5,0,0,1-5,5H311.22v6.22h67.44a5,5,0,0,1,5,5v31.23h31.23a5,5,0,0,1,5,5v128a5,5,0,0,1-5,5Z"/><polygon class="cls-1" points="105.1 504.82 105.1 376.78 141.32 376.78 141.32 340.55 213.76 340.55 213.76 324.33 177.55 324.33 177.55 288.1 141.32 288.1 141.32 251.88 105.1 251.88 105.1 215.67 69.51 215.67 69.51 87.63 105.1 87.63 105.1 51.4 177.55 51.4 177.55 15.18 342.45 15.18 342.45 51.4 414.89 51.4 414.89 87.63 450.49 87.63 450.49 215.67 414.89 215.67 414.89 251.88 378.66 251.88 378.66 288.1 342.45 288.1 342.45 324.33 306.22 324.33 306.22 340.55 378.66 340.55 378.66 376.78 414.89 376.78 414.89 504.82 105.1 504.82"/><polygon class="cls-2" points="332.45 350.55 332.45 386.78 332.45 423 332.45 458.59 332.45 494.82 368.66 494.82 368.66 458.59 368.66 423 368.66 386.78 368.66 350.55 332.45 350.55 332.45 350.55"/><polygon class="cls-3" points="332.45 169.44 332.45 205.67 296.22 205.67 296.22 169.44 332.45 169.44 332.45 169.44"/><polygon class="cls-3" points="223.76 169.44 223.76 205.67 187.55 205.67 187.55 169.44 223.76 169.44 223.76 169.44"/><polygon class="cls-2" points="151.31 350.55 151.31 386.78 151.31 423 151.31 458.59 151.31 494.82 187.55 494.82 187.55 458.59 187.55 423 187.55 386.78 187.55 350.55 151.31 350.55 151.31 350.55"/><polygon class="cls-4" points="368.66 386.78 368.66 423 368.66 458.59 368.66 494.82 404.89 494.82 404.89 458.59 404.89 423 404.89 386.78 368.66 386.78 368.66 386.78"/><polygon class="cls-5" points="260 350.55 223.76 350.55 187.55 350.55 187.55 386.78 187.55 423 187.55 458.59 187.55 494.82 223.76 494.82 260 494.82 296.22 494.82 332.45 494.82 332.45 458.59 332.45 423 332.45 386.78 332.45 350.55 296.22 350.55 260 350.55 260 350.55"/><polygon class="cls-4" points="115.1 423 115.1 458.59 115.1 494.82 151.31 494.82 151.31 458.59 151.31 423 151.31 386.78 115.1 386.78 115.1 423 115.1 423"/><polygon class="cls-6" points="404.89 61.4 368.66 61.4 332.45 61.4 332.45 25.18 296.22 25.18 260 25.18 223.76 25.18 187.55 25.18 187.55 61.4 151.31 61.4 115.1 61.4 115.1 97.63 79.51 97.63 79.51 133.22 79.51 169.44 79.51 205.67 115.1 205.67 115.1 241.88 151.31 241.88 151.31 205.67 151.31 169.44 187.55 169.44 187.55 133.22 223.76 133.22 260 133.22 296.22 133.22 332.45 133.22 368.66 133.22 368.66 169.44 368.66 205.67 368.66 241.88 404.89 241.88 404.89 205.67 440.49 205.67 440.49 169.44 440.49 133.22 440.49 97.63 404.89 97.63 404.89 61.4 404.89 61.4"/><polygon class="cls-7" points="223.76 241.88 223.76 278.1 260 278.1 296.22 278.1 296.22 241.88 260 241.88 223.76 241.88 223.76 241.88"/><path class="cls-8" d="M332.45,205.67H296.22V169.44h36.23v36.23ZM260,278.1H223.76V241.88h72.46V278.1Zm36.23-144.88H187.55v36.22h36.21v36.23H187.55V169.44H151.32V278.1h36.23v36.23h36.21v36.22h72.46V314.33h36.23V278.1h36.21V133.22H296.22Z"/></svg>