<svg id="圖層_1" data-name="圖層 1" xmlns="http://www.w3.org/2000/svg" viewBox="0 0 520 520"><defs><style>.cls-1{fill:#231815;}.cls-2{fill:#096e77;}.cls-3{fill:#9d7451;}.cls-4{fill:#f08444;}.cls-5{fill:#64301b;}.cls-6{fill:#e94817;}.cls-7{fill:#f4a680;}.cls-8{fill:#f9c696;}</style></defs><title>figure</title><path class="cls-1" d="M105.43,509.82a5,5,0,0,1-5-5V376.14a5,5,0,0,1,5-5h67.45V340.55a5,5,0,0,1,5-5h31.21v-6.22H166.65v31.22a5,5,0,0,1-5,5H105.43a5,5,0,0,1-5-5V329.33H69.19a5,5,0,0,1-5-5V123.22a5,5,0,0,1,5-5h31.24V50.76a5,5,0,0,1,5-5h67.45V15.18a5,5,0,0,1,5-5H342.13a5,5,0,0,1,5,5V45.76h67.46a5,5,0,0,1,5,5v67.46h31.22a5,5,0,0,1,5,5V324.33a5,5,0,0,1-5,5H419.59v31.22a5,5,0,0,1-5,5H358.35a5,5,0,0,1-5-5V329.33H310.9v6.22h31.23a5,5,0,0,1,5,5v30.59h67.46a5,5,0,0,1,5,5V504.82a5,5,0,0,1-5,5Z"/><polygon class="cls-1" points="105.43 504.82 105.43 376.14 177.88 376.14 177.88 340.55 214.09 340.55 214.09 324.33 161.65 324.33 161.65 360.55 105.43 360.55 105.43 324.33 69.19 324.33 69.19 123.22 105.43 123.22 105.43 50.76 177.88 50.76 177.88 15.18 342.13 15.18 342.13 50.76 414.59 50.76 414.59 123.22 450.81 123.22 450.81 324.33 414.59 324.33 414.59 360.55 358.35 360.55 358.35 324.33 305.9 324.33 305.9 340.55 342.13 340.55 342.13 376.14 414.59 376.14 414.59 504.82 105.43 504.82"/><polygon class="cls-2" points="332.13 386.14 332.13 422.37 295.9 422.37 295.9 458.59 259.69 458.59 224.09 458.59 224.09 422.37 187.88 422.37 187.88 386.14 151.65 386.14 151.65 422.37 151.65 458.59 151.65 494.82 187.88 494.82 224.09 494.82 259.69 494.82 295.9 494.82 332.13 494.82 368.35 494.82 368.35 458.59 368.35 422.37 368.35 386.14 332.13 386.14 332.13 386.14"/><polygon class="cls-3" points="404.59 133.22 404.59 96.98 404.59 60.76 368.35 60.76 332.13 60.76 332.13 25.18 295.9 25.18 259.69 25.18 224.09 25.18 187.88 25.18 187.88 60.76 151.65 60.76 115.43 60.76 115.43 96.98 115.43 133.22 79.19 133.22 79.19 169.43 79.19 205.65 79.19 241.88 79.19 278.1 79.19 314.33 115.43 314.33 115.43 350.55 151.65 350.55 151.65 314.33 187.88 314.33 187.88 278.1 151.65 278.1 151.65 241.88 151.65 205.65 151.65 169.43 187.88 169.43 187.88 133.22 224.09 133.22 259.69 133.22 295.9 133.22 332.13 133.22 332.13 169.43 368.35 169.43 368.35 205.65 368.35 241.88 368.35 278.1 332.13 278.1 332.13 314.33 368.35 314.33 368.35 350.55 404.59 350.55 404.59 314.33 440.81 314.33 440.81 278.1 440.81 241.88 440.81 205.65 440.81 169.43 440.81 133.22 404.59 133.22 404.59 133.22"/><polygon class="cls-4" points="368.35 386.14 368.35 422.37 368.35 458.59 368.35 494.82 404.59 494.82 404.59 458.59 404.59 422.37 404.59 386.14 368.35 386.14 368.35 386.14"/><polygon class="cls-4" points="259.69 350.55 224.09 350.55 187.88 350.55 187.88 386.14 224.09 386.14 259.69 386.14 295.9 386.14 332.13 386.14 332.13 350.55 295.9 350.55 259.69 350.55 259.69 350.55"/><polygon class="cls-4" points="115.43 422.37 115.43 458.59 115.43 494.82 151.65 494.82 151.65 458.59 151.65 422.37 151.65 386.14 115.43 386.14 115.43 422.37 115.43 422.37"/><polygon class="cls-5" points="295.9 169.43 295.9 205.65 332.13 205.65 332.13 169.43 295.9 169.43 295.9 169.43"/><polygon class="cls-5" points="187.88 205.65 224.09 205.65 224.09 169.43 187.88 169.43 187.88 205.65 187.88 205.65"/><polygon class="cls-6" points="259.69 386.14 224.09 386.14 187.88 386.14 187.88 422.37 224.09 422.37 224.09 458.59 259.69 458.59 295.9 458.59 295.9 422.37 332.13 422.37 332.13 386.14 295.9 386.14 259.69 386.14 259.69 386.14"/><polygon class="cls-7" points="224.09 241.88 224.09 278.1 259.69 278.1 295.9 278.1 295.9 241.88 259.69 241.88 224.09 241.88 224.09 241.88"/><path class="cls-8" d="M259.69,278.1h-35.6V241.88H295.9V278.1Zm72.44-72.45H295.9V169.43h36.23V133.22H187.88v36.21h36.21v36.22H187.88V169.43H151.65V278.1h36.23v36.23h36.21v36.22H295.9V314.33h36.23V278.1h36.22V169.43H332.13v36.22Z"/></svg>