<svg id="圖層_1" data-name="圖層 1" xmlns="http://www.w3.org/2000/svg" viewBox="0 0 520 520"><defs><style>.cls-1{fill:#231815;}.cls-2{fill:#9bcf97;}.cls-3{fill:#8282be;}.cls-4{fill:#543d2a;}.cls-5{fill:#f29b74;}.cls-6{fill:#624e84;}.cls-7{fill:#725630;}.cls-8{fill:#f9c696;}</style></defs><title>figure</title><path class="cls-1" d="M69.2,509.82a5,5,0,0,1-5-5v-128a5,5,0,0,1,5-5h67.45V340.55a5,5,0,0,1,5-5h31.22v-6.22H141.65a5,5,0,0,1-5-5V293.1H105.42a5,5,0,0,1-5-5V256.88H69.2a5,5,0,0,1-5-5V184.44H33a5,5,0,0,1-5-5V87.63a5,5,0,0,1,5-5H64.2V51.4a5,5,0,0,1,5-5h31.22V15.18a5,5,0,0,1,5-5H342.13a5,5,0,0,1,5,5V46.4h31.23a5,5,0,0,1,5,5V82.63h31.22a5,5,0,0,1,5,5v66.81h31.23a5,5,0,0,1,5,5v31.23H487a5,5,0,0,1,5,5V360.55a5,5,0,0,1-5,5H455.81V433a5,5,0,0,1-5,5H383.36v66.82a5,5,0,0,1-5,5Zm284.16-138V304.33a5,5,0,0,1,5-5h31.22V256.88H347.13V288.1a5,5,0,0,1-5,5H310.91v31.23a5,5,0,0,1-5,5H274.69v6.22h31.22a5,5,0,0,1,5,5v31.23Z"/><path class="cls-1" d="M69.2,504.82v-128h72.45V340.55h36.22V324.33H141.65V288.1H105.42V251.88H69.2V179.44H33V87.63H69.2V51.4h36.22V15.18H342.13V51.4h36.23V87.63h36.22v71.81h36.23v36.23H487V360.55H450.81V433H378.36v71.82Zm289.16-128V304.33h36.22V251.88H342.13V288.1H305.91v36.23H269.69v16.22h36.22v36.23Z"/><polygon class="cls-2" points="404.58 169.44 368.36 169.44 368.36 205.67 368.36 241.88 404.58 241.88 404.58 205.67 440.81 205.67 440.81 169.44 404.58 169.44 404.58 169.44"/><polygon class="cls-3" points="332.13 423 332.13 458.59 332.13 494.82 368.36 494.82 368.36 458.59 368.36 423 332.13 423 332.13 423"/><polygon class="cls-4" points="295.91 169.44 295.91 205.67 259.69 205.67 259.69 169.44 295.91 169.44 295.91 169.44"/><polygon class="cls-4" points="187.87 169.44 187.87 205.67 151.65 205.67 151.65 169.44 187.87 169.44 187.87 169.44"/><polygon class="cls-3" points="79.2 423 79.2 458.59 79.2 494.82 115.42 494.82 115.42 458.59 115.42 423 79.2 423 79.2 423"/><polygon class="cls-5" points="187.87 241.88 187.87 278.1 224.09 278.1 259.69 278.1 259.69 241.88 224.09 241.88 187.87 241.88 187.87 241.88"/><polygon class="cls-6" points="295.91 386.78 295.91 350.55 259.69 350.55 224.09 350.55 187.87 350.55 151.65 350.55 151.65 386.78 115.42 386.78 79.2 386.78 79.2 423 115.42 423 115.42 458.59 115.42 494.82 151.65 494.82 187.87 494.82 224.09 494.82 259.69 494.82 295.91 494.82 332.13 494.82 332.13 458.59 332.13 423 368.36 423 368.36 386.78 332.13 386.78 295.91 386.78 295.91 386.78"/><polygon class="cls-7" points="404.58 205.67 404.58 241.88 404.58 278.1 404.58 314.33 368.36 314.33 368.36 350.55 368.36 386.78 368.36 423 404.58 423 440.81 423 440.81 386.78 440.81 350.55 477.03 350.55 477.03 314.33 477.03 278.1 477.03 241.88 477.03 205.67 440.81 205.67 404.58 205.67 404.58 205.67"/><polygon class="cls-7" points="79.2 205.67 79.2 241.88 115.42 241.88 115.42 205.67 115.42 169.44 151.65 169.44 151.65 133.22 187.87 133.22 224.09 133.22 259.69 133.22 295.91 133.22 295.91 169.44 332.13 169.44 332.13 205.67 332.13 241.88 368.36 241.88 368.36 205.67 368.36 169.44 404.58 169.44 404.58 133.22 404.58 97.63 368.36 97.63 368.36 61.4 332.13 61.4 332.13 25.18 295.91 25.18 259.69 25.18 224.09 25.18 187.87 25.18 151.65 25.18 115.42 25.18 115.42 61.4 79.2 61.4 79.2 97.63 42.97 97.63 42.97 133.22 42.97 169.44 79.2 169.44 79.2 205.67 79.2 205.67"/><path class="cls-8" d="M224.09,278.1H187.87V241.88h71.82V278.1Zm71.82-108.66v36.23H259.69V169.44h36.22V133.22H151.65v36.22h36.22v36.23H151.65V169.44H115.42V278.1h36.23v36.23h36.22v36.22h71.82V314.33h36.22V278.1h36.22V169.44Z"/></svg>