<?xml version="1.0" encoding="UTF-8"?><svg id="_圖層_1" xmlns="http://www.w3.org/2000/svg" viewBox="0 0 520 520"><defs><style>.cls-1{fill:#231815;}.cls-1,.cls-2,.cls-3,.cls-4,.cls-5,.cls-6,.cls-7,.cls-8{stroke-width:0px;}.cls-2{fill:#e85298;}.cls-3{fill:#ccc;}.cls-4{fill:#facfae;}.cls-5{fill:#191919;}.cls-6{fill:#e4878d;}.cls-7{fill:#323333;}.cls-8{fill:#f2f2f2;}</style></defs><polygon class="cls-1" points="419.04 312.9 349.38 312.9 344.74 312.94 344.74 312.19 381.89 312.19 381.89 295.61 404.23 295.61 404.23 220.84 419.5 220.84 419.5 88.68 382.12 88.68 382.12 51.3 344.74 51.3 344.74 13.91 175.2 13.91 175.2 51.3 137.81 51.3 137.81 88.68 100.43 88.68 100.43 220.84 122.77 220.84 122.77 295.61 145.12 295.61 145.12 312.19 175.2 312.19 175.2 312.9 100.5 312.9 100.5 334.25 81.74 334.25 81.74 428.25 81.8 438.25 81.8 506.09 437.73 506.09 437.73 438.25 437.8 438.25 437.8 334.25 419.04 334.25 419.04 312.9"/><rect class="cls-8" x="349.38" y="322.9" width="59.66" height="105.35"/><rect class="cls-8" x="110.5" y="322.9" width="59.66" height="105.35"/><rect class="cls-8" x="147.81" y="322.99" width="224.31" height="172.45"/><rect class="cls-3" x="188.44" y="341.4" width="53.65" height="154.03"/><rect class="cls-3" x="277.85" y="341.4" width="53.65" height="154.03"/><rect class="cls-3" x="147.81" y="376.89" width="224.31" height="119.19"/><polygon class="cls-4" points="372.12 173.45 372.12 98.68 147.81 98.68 147.81 173.45 110.43 173.45 110.43 210.83 147.81 210.83 147.81 285.61 185.2 285.61 185.2 322.99 334.74 322.99 334.74 285.61 372.12 285.61 372.12 210.83 409.5 210.83 409.5 173.45 372.12 173.45"/><rect class="cls-5" x="185.2" y="173.45" width="37.38" height="17.29"/><rect class="cls-5" x="297.35" y="173.45" width="37.39" height="17.29"/><rect class="cls-5" x="325.39" y="182.09" width="18.69" height="17.29"/><rect class="cls-5" x="288" y="182.09" width="18.69" height="17.29"/><rect class="cls-5" x="213.24" y="182.09" width="18.69" height="17.29"/><rect class="cls-5" x="175.85" y="182.09" width="18.69" height="17.29"/><polygon class="cls-7" points="372.12 98.68 372.12 61.3 334.74 61.3 334.74 23.91 185.2 23.91 185.2 61.3 147.81 61.3 147.81 98.68 110.43 98.68 110.43 136.06 110.43 173.45 147.81 173.45 147.81 136.06 297.35 136.06 297.35 98.68 334.74 98.68 334.74 136.06 372.12 136.06 372.12 173.45 409.5 173.45 409.5 136.06 409.5 98.68 372.12 98.68"/><rect class="cls-5" x="110.43" y="98.68" width="37.38" height="74.77"/><rect class="cls-5" x="147.81" y="61.3" width="37.39" height="37.38"/><rect class="cls-5" x="110.43" y="98.68" width="112.15" height="37.38"/><rect class="cls-5" x="185.2" y="23.91" width="37.38" height="37.38"/><rect class="cls-5" x="259.97" y="98.68" width="37.38" height="37.38"/><rect class="cls-5" x="297.35" y="61.3" width="37.39" height="37.38"/><rect class="cls-5" x="222.58" y="61.3" width="37.39" height="37.38"/><rect class="cls-3" x="313.62" y="358.92" width="35.77" height="69.34"/><rect class="cls-3" x="170.55" y="354.66" width="35.77" height="73.6"/><rect class="cls-4" x="91.8" y="428.25" width="37.39" height="67.83"/><rect class="cls-4" x="132.77" y="203.5" width="37.38" height="82.1"/><rect class="cls-4" x="155.12" y="220.09" width="37.38" height="82.1"/><rect class="cls-4" x="356.85" y="203.5" width="37.38" height="82.1"/><rect class="cls-4" x="334.51" y="220.09" width="37.38" height="82.1"/><rect class="cls-8" x="91.74" y="344.25" width="37.38" height="84"/><rect class="cls-4" x="390.34" y="428.25" width="37.39" height="67.83"/><rect class="cls-8" x="390.42" y="344.25" width="37.38" height="84"/><path class="cls-7" d="m253.05,230.78h-98.33v-77.27h98.33v77.27Zm-87.8-10.53h77.27v-56.22h-77.27v56.22Z"/><path class="cls-7" d="m365.21,230.78h-98.33v-77.27h98.33v77.27Zm-87.8-10.53h77.27v-56.22h-77.27v56.22Z"/><rect class="cls-7" x="110.43" y="162.92" width="44.69" height="10.53"/><rect class="cls-7" x="242.53" y="162.92" width="29.52" height="10.53"/><rect class="cls-7" x="361.71" y="162.92" width="47.8" height="10.53"/><rect class="cls-6" x="242.09" y="273.43" width="35.76" height="15.77"/><rect class="cls-6" x="224.65" y="265.54" width="17.88" height="15.77"/><rect class="cls-6" x="277.85" y="265.54" width="17.88" height="15.77"/><rect class="cls-2" x="242.09" y="425.74" width="35.77" height="15.37"/><rect class="cls-2" x="251.34" y="410.37" width="17.25" height="85.72"/><rect class="cls-2" x="242.08" y="410.37" width="35.77" height="15.37"/><rect class="cls-2" x="206.32" y="392.4" width="35.77" height="35.76"/><rect class="cls-2" x="206.32" y="356.64" width="35.77" height="35.76"/><rect class="cls-2" x="188.44" y="356.64" width="35.77" height="35.76"/><rect class="cls-2" x="170.55" y="322.99" width="35.77" height="35.76"/><rect class="cls-2" x="313.62" y="322.99" width="35.77" height="35.76"/><rect class="cls-2" x="277.85" y="392.4" width="35.77" height="35.76"/><rect class="cls-2" x="277.85" y="356.64" width="35.77" height="35.76"/><rect class="cls-2" x="295.73" y="356.64" width="35.77" height="35.76"/></svg>