<?xml version="1.0" encoding="UTF-8"?><svg id="_圖層_3" xmlns="http://www.w3.org/2000/svg" viewBox="0 0 729.65 729.65"><defs><style>.cls-1{fill:#fff;stroke-width:0px;}</style></defs><path class="cls-1" d="m364.82,0C163.66,0,0,163.66,0,364.82s163.66,364.82,364.82,364.82,364.82-163.66,364.82-364.82S565.99,0,364.82,0Zm20.05,551.24c0,5.49-3.25,10.45-8.29,12.66-1.77.8-3.69,1.18-5.58,1.18-3.39,0-6.76-1.24-9.35-3.63l-104.23-95.52h-83.42c-7.67,0-13.87-6.2-13.87-13.84v-174.52c0-7.64,6.2-13.84,13.87-13.84h11.16l199.72,199.72v87.79Zm162.27-32.28c8.05,8.05,8.05,21.13,0,29.21-4.04,4.01-9.33,6.05-14.61,6.05-2.77,0-5.55-.56-8.15-1.71-2.36-.97-4.54-2.45-6.46-4.34l-12.1-12.1-29.66-29.66-26.62-26.62-30.1-30.1-37.54-37.54-145.48-145.48-59.49-59.49c-1.92-1.92-3.4-4.1-4.37-6.46-3.28-7.52-1.8-16.61,4.37-22.75,8.06-8.09,21.13-8.09,29.21,0l69.25,69.25,3.08-2.82,83.16-76.19c4.04-3.72,9.92-4.66,14.93-2.45,5.04,2.21,8.29,7.17,8.29,12.66v178.27l55.13,55.13c.67-2.3,1.35-4.6,1.91-6.94,11.13-45.18,3.13-94.28-23.9-133.79-6.44-9.41-4.01-22.28,5.4-28.71,9.41-6.43,22.28-4.04,28.71,5.37,38.42,56.19,46,127.84,22.78,190.13-.79,2.13-1.67,4.22-2.53,6.32l24.96,24.96,5.02,5.02c1.32-2.64,2.61-5.29,3.83-7.97,37.03-81.18,27.33-178.06-29.19-251.01-6.99-9.03-5.34-21.98,3.69-28.98,9-6.99,21.98-5.34,28.98,3.66,69.26,89.42,78.41,209.63,27.38,307.19-1.33,2.57-2.73,5.12-4.15,7.66l14.24,14.24Z"/></svg>