<?xml version="1.0" encoding="UTF-8"?><svg id="_圖層_3" xmlns="http://www.w3.org/2000/svg" viewBox="0 0 729.65 729.65"><defs><style>.cls-1{fill:#fff;stroke-width:0px;}</style></defs><path class="cls-1" d="m364.82,0C163.66,0,0,163.66,0,364.82s163.66,364.82,364.82,364.82,364.82-163.66,364.82-364.82S565.99,0,364.82,0Zm20.04,551.23c0,5.49-3.25,10.47-8.27,12.68-1.79.78-3.69,1.17-5.57,1.17-3.4,0-6.76-1.25-9.36-3.64l-104.23-95.51h-83.44c-7.65,0-13.85-6.2-13.85-13.85v-174.5c0-7.65,6.2-13.84,13.85-13.84h83.44l104.23-95.52c4.05-3.71,9.9-4.68,14.93-2.47,5.03,2.21,8.27,7.18,8.27,12.68v372.81Zm50.2-60.32c-4.02,0-8.08-1.17-11.64-3.61-9.42-6.44-11.83-19.3-5.39-28.71,38.35-56.08,38.35-131.44,0-187.52-6.44-9.42-4.03-22.27,5.39-28.71,9.42-6.44,22.27-4.03,28.71,5.39,47.89,70.03,47.89,164.13,0,234.16-4,5.85-10.48,9-17.07,9Zm74.6,48.87c-4.07,5.25-10.18,8-16.35,8-4.42,0-8.87-1.41-12.64-4.33-9.02-6.99-10.67-19.96-3.68-28.98,68.25-88.11,68.26-211.18,0-299.29-6.99-9.02-5.34-21.99,3.68-28.98,9.02-6.98,21.99-5.34,28.98,3.68,79.79,103.01,79.79,246.89,0,349.9Z"/></svg>