<?xml version="1.0" encoding="UTF-8"?><svg id="_圖層_1" xmlns="http://www.w3.org/2000/svg" viewBox="0 0 1040 1040"><defs><style>.cls-1{fill:#8ee3ff;stroke-width:0px;}</style></defs><path class="cls-1" d="m751.76,338.45h-73.28c-23.6,0-45.77-12.59-57.86-32.86l-21.02-35.25h-158.28l-21.03,35.26c-12.09,20.27-34.26,32.86-57.85,32.86h-74.19c-28.49,0-51.67,23.18-51.67,51.67v280.66c0,28.49,23.18,51.67,51.67,51.67h463.51c28.49,0,51.67-23.18,51.67-51.67v-280.66c0-28.49-23.18-51.67-51.67-51.67Zm-231.76,363.88c-90.74,0-164.57-73.83-164.57-164.57s73.82-164.57,164.57-164.57,164.57,73.82,164.57,164.57-73.82,164.57-164.57,164.57Zm221.25-321.82c-18.68,0-33.83-6.75-33.83-15.09s15.15-15.09,33.83-15.09,33.83,6.75,33.83,15.09-15.15,15.09-33.83,15.09Z"/><circle class="cls-1" cx="520" cy="537.76" r="128"/><path class="cls-1" d="m520,0C232.81,0,0,232.81,0,520s232.81,520,520,520,520-232.81,520-520S807.19,0,520,0Zm319.99,670.78c0,48.73-39.51,88.24-88.24,88.24h-463.51c-48.73,0-88.24-39.51-88.24-88.24v-280.66c0-48.73,39.51-88.24,88.24-88.24h74.19c10.84,0,20.89-5.7,26.44-15.02l22.71-38.08c5.55-9.31,15.6-15.02,26.44-15.02h164.85c10.85,0,20.89,5.71,26.45,15.02l22.7,38.07c5.55,9.31,15.6,15.02,26.45,15.02h73.28c48.73,0,88.24,39.51,88.24,88.24v280.66Z"/></svg>