<?xml version="1.0" encoding="UTF-8"?><svg id="_圖層_1" xmlns="http://www.w3.org/2000/svg" viewBox="0 0 1040 1040"><defs><style>.cls-1,.cls-2{stroke-width:0px;}.cls-2{fill:#fff;}</style></defs><circle class="cls-2" cx="520" cy="520" r="520"/><circle class="cls-1" cx="520" cy="535.71" r="145.54" transform="translate(-226.5 524.6) rotate(-45)"/><path class="cls-1" d="m715.67,396.64c-16.52,0-29.92-5.97-29.92-13.34s13.39-13.34,29.92-13.34,29.92,5.97,29.92,13.34-13.39,13.34-29.92,13.34Z"/><circle class="cls-2" cx="520" cy="535.71" r="113.2"/><path class="cls-1" d="m520,60.13c-253.98,0-459.87,205.89-459.87,459.87s205.89,459.87,459.87,459.87,459.87-205.89,459.87-459.87S773.98,60.13,520,60.13Zm282.99,593.21c0,43.1-34.94,78.03-78.03,78.03h-409.91c-43.1,0-78.03-34.94-78.03-78.03v-248.2c0-43.1,34.94-78.03,78.03-78.03h65.61c9.59,0,18.47-5.05,23.39-13.28l20.08-33.67c4.91-8.24,13.8-13.28,23.39-13.28h145.78c9.59,0,18.47,5.05,23.39,13.28l20.08,33.67c4.91,8.24,13.8,13.28,23.39,13.28h64.81c43.1,0,78.03,34.94,78.03,78.03v248.2Z"/></svg>