<?xml version="1.0" encoding="UTF-8"?><svg id="_圖層_1" xmlns="http://www.w3.org/2000/svg" viewBox="0 0 1040 1040"><defs><style>.cls-1{fill:#8ee3ff;}.cls-1,.cls-2{stroke-width:0px;}.cls-2{fill:#fff;}</style></defs><circle class="cls-1" cx="520" cy="520" r="520"/><path class="cls-2" d="m843.36,628.12c-.07-24.81-.12-49.63-.23-74.44-.16-34.78-.36-69.56-.55-104.34-.13-24.37-.32-48.73-.41-73.1-.12-33.45-.17-66.91-.26-100.36,0-1.55.06-3.11-.09-4.65-.12-1.22-.51-2.41-.81-3.79-1.5.13-2.62.08-3.67.33-7.52,1.83-15.11,3.44-22.52,5.65-11.03,3.29-21.96,6.91-32.87,10.57-11.56,3.88-23.3,4.99-35.38,3.2-8.82-1.31-16.66-4.38-22.81-11.09-1.05-1.14-2.19-2.2-3.3-3.28-4.57-4.43-9.95-7.24-16.22-8.55-9.02-1.88-18.12-1.75-27.12-.51-10.07,1.39-20.13,3.2-30.03,5.52-19.61,4.6-39.09,9.75-58.66,14.51-12.92,3.14-25.97,5.56-39.25,6.72-7.59.66-15.03.13-22.43-1.53-11.1-2.5-20.66-7.98-28.88-15.64-6.64-6.18-12.73-12.94-19.15-19.36-5.94-5.95-11.73-12.1-18.04-17.65-12.68-11.16-27.35-18.67-43.82-22.68-11.9-2.9-24-4.25-36.19-4.49-27.12-.55-53.3,4.53-78.75,13.69-36.28,13.06-68.63,32.82-97.96,57.65-8.93,7.56-7.19,4.69-7.19,15.59-.04,149.17-.03,446.33-.03,518.63,0,8.91,7.22,16.13,16.13,16.13h0c8.91,0,16.13-7.22,16.13-16.13v-183.85c1.14-.9,2.13-1.77,3.2-2.52,21.38-14.84,44.07-27.26,68.52-36.26,31.15-11.46,63.14-17.3,96.46-13.85,15.31,1.59,30.13,4.9,43.96,11.95,12.39,6.32,22.93,15.04,32.54,24.97,5.08,5.25,9.84,10.82,15.03,15.97,5.18,5.14,10.45,10.25,16.15,14.79,9.02,7.18,19.45,11.2,30.99,12.55,8.93,1.05,17.71.08,26.48-1.09,12.96-1.73,25.67-4.79,38.36-7.9,20.21-4.95,40.38-10.04,60.65-14.72,12.33-2.84,24.88-4.26,37.6-3.36,9.4.67,17.72,3.71,24.24,10.83,1.2,1.31,2.5,2.51,3.79,3.73,4.33,4.09,9.68,6.97,15.51,8.2,11.21,2.37,22.49,3.28,33.7-.01,9.55-2.8,19.04-5.84,28.53-8.87,11.39-3.64,22.74-7.41,34.56-9.44,1.25-.21,2.48-.5,4.09-.83,0-2.54,0-4.73,0-6.91Z"/></svg>