<?xml version="1.0" encoding="UTF-8"?><svg id="_圖層_1" xmlns="http://www.w3.org/2000/svg" viewBox="0 0 1040 1040"><defs><style>.cls-1,.cls-2{stroke-width:0px;}.cls-2{fill:#fff;}</style></defs><circle class="cls-2" cx="520" cy="520" r="520"/><path class="cls-1" d="m520,60.13c-253.98,0-459.87,205.89-459.87,459.87s205.89,459.87,459.87,459.87,459.87-205.89,459.87-459.87S773.98,60.13,520,60.13Zm285.96,561.59c-1.42.29-2.51.54-3.61.73-10.46,1.8-20.5,5.12-30.57,8.35-8.39,2.68-16.78,5.37-25.23,7.85-9.91,2.91-19.88,2.1-29.8.01-5.16-1.09-9.89-3.63-13.72-7.25-1.14-1.08-2.29-2.15-3.35-3.3-5.77-6.29-13.12-8.98-21.44-9.58-11.24-.8-22.34.45-33.25,2.97-17.93,4.14-35.77,8.64-53.64,13.02-11.22,2.75-22.46,5.46-33.93,6.98-7.76,1.03-15.52,1.89-23.41.96-10.21-1.2-19.42-4.75-27.4-11.1-5.04-4.01-9.7-8.53-14.28-13.08-4.59-4.55-8.8-9.48-13.29-14.12-8.49-8.78-17.81-16.49-28.77-22.08-12.23-6.24-25.33-9.17-38.88-10.57-29.47-3.05-57.76,2.11-85.31,12.25-21.63,7.96-41.69,18.95-60.6,32.07-.95.66-1.83,1.43-2.83,2.23v162.59c0,7.88-6.39,14.27-14.27,14.27s-14.27-6.39-14.27-14.27c0-63.94,0-326.74.03-458.66,0-9.64-1.54-7.1,6.36-13.79,25.94-21.96,54.55-39.44,86.63-50.99,22.5-8.1,45.66-12.59,69.64-12.11,10.78.22,21.48,1.41,32.01,3.97,14.56,3.54,27.54,10.18,38.75,20.05,5.58,4.91,10.7,10.34,15.95,15.61,5.67,5.68,11.07,11.66,16.93,17.13,7.27,6.77,15.73,11.63,25.54,13.84,6.54,1.47,13.12,1.94,19.84,1.35,11.74-1.02,23.28-3.16,34.71-5.94,17.31-4.21,34.54-8.77,51.88-12.83,8.76-2.05,17.65-3.66,26.56-4.89,7.95-1.09,16-1.21,23.98.45,5.54,1.16,10.3,3.64,14.34,7.56.99.95,1.99,1.89,2.92,2.9,5.44,5.93,12.37,8.65,20.17,9.8,10.69,1.59,21.06.6,31.29-2.83,9.65-3.24,19.32-6.44,29.07-9.35,6.55-1.95,13.27-3.38,19.92-5,.92-.22,1.92-.18,3.24-.29.27,1.22.62,2.28.72,3.35.13,1.36.08,2.74.08,4.11.07,29.58.12,59.17.23,88.75.08,21.55.24,43.1.36,64.65.17,30.76.35,61.51.49,92.27.1,21.94.14,43.89.2,65.83,0,1.93,0,3.86,0,6.11Z"/></svg>