<?xml version="1.0" standalone="no"?>
<!DOCTYPE svg PUBLIC "-//W3C//DTD SVG 20010904//EN"
 "http://www.w3.org/TR/2001/REC-SVG-20010904/DTD/svg10.dtd">
<svg version="1.0" xmlns="http://www.w3.org/2000/svg"
 width="64.000000pt" height="64.000000pt" viewBox="0 0 64.000000 64.000000"
 preserveAspectRatio="xMidYMid meet">

<g transform="translate(0.000000,64.000000) scale(0.100000,-0.100000)"
fill="#000000" stroke="none">
<path d="M248 576 c-26 -7 -54 -19 -63 -26 -13 -11 -18 -10 -29 6 -17 23 -15
25 -48 -53 l-27 -63 37 0 c20 0 54 3 74 6 32 6 36 9 28 25 -6 10 -10 20 -10
22 0 9 81 37 108 37 113 0 212 -99 212 -210 0 -108 -103 -210 -211 -210 -96 0
-188 77 -209 175 -3 17 -13 31 -23 33 -13 3 -17 -4 -17 -30 1 -72 74 -170 152
-203 21 -8 66 -15 101 -15 267 0 356 354 120 482 -60 33 -133 42 -195 24z"/>
</g>
</svg>
