<?xml version="1.0" encoding="UTF-8"?><svg id="_圖層_1" xmlns="http://www.w3.org/2000/svg" viewBox="0 0 520 520"><defs><style>.cls-1{fill:#4e2210;}.cls-1,.cls-2,.cls-3,.cls-4,.cls-5,.cls-6,.cls-7,.cls-8,.cls-9,.cls-10,.cls-11,.cls-12,.cls-13{stroke-width:0px;}.cls-2{fill:#e73c44;}.cls-3{fill:#fada9f;}.cls-4{fill:#e83942;}.cls-5{fill:#231815;}.cls-6{fill:#44180a;}.cls-7{fill:#210f0a;}.cls-8{fill:#f39943;}.cls-9{fill:#fff;}.cls-10{fill:#191919;}.cls-11{fill:#e94e70;}.cls-12{fill:#e9506e;}.cls-13{fill:#e77a80;}</style></defs><polygon class="cls-5" points="479 294.71 479 283.71 468 283.71 468 261.71 457 261.71 457 239.71 446 239.71 446 217.71 435 217.71 435 195.71 424 195.71 424 173.71 413 173.71 413 162.71 402 162.71 402 151.71 369 151.71 369 140.71 358 140.71 358 129.71 314 129.71 314 118.71 303 118.71 303 107.71 292 107.71 292 96.71 281 96.71 281 84.3 239 84.3 239 96.71 228 96.71 228 107.71 217 107.71 217 118.71 206 118.71 206 129.71 179.42 129.71 179.42 129.01 137.42 129.01 137.42 140 125.67 140 125.67 151.71 124 151.71 124 146.04 119 146.04 119 140 102 140 102 135.04 60 135.04 60 177.04 66 177.04 66 185.61 61.7 185.61 61.7 188.74 46.71 188.74 46.71 196.61 38 196.61 38 238.61 47.84 238.61 47.84 243.31 63 243.31 63 261.71 52 261.71 52 283.71 41 283.71 41 294.71 30 294.71 30 380.7 41 380.7 41 391.7 63 391.7 63 402.7 85 402.7 85 413.7 107 413.7 107 424.7 129 424.7 129 435.7 391 435.7 391 424.7 413 424.7 413 413.7 435 413.7 435 402.7 457 402.7 457 391.7 479 391.7 479 380.7 490 380.7 490 294.71 479 294.71"/><polygon class="cls-12" points="259.85 108.64 211.81 153.36 178.76 153.36 140.2 179.13 113.31 192.14 100.3 231.74 78.71 266.04 62 304 48 319.09 53.45 356.51 62 372.57 150 413.99 373.75 413.99 468.14 361.39 468.14 313.59 425 236.13 385.82 172 355.3 164.36 337 150 310.67 150 289.42 128.01 259.85 108.64"/><polygon class="cls-3" points="115.19 286.09 103 308.09 106 334.51 155.01 378.54 216 394.94 317.38 394.94 355.55 380.99 392 356.51 416.69 315 403 282 357.64 256.38 306.2 231.74 249 216 188.5 244.04 132.7 266.04 115.19 286.09"/><rect class="cls-3" x="183" y="227" width="22" height="22"/><rect class="cls-3" x="161" y="238" width="22" height="22"/><rect class="cls-3" x="139" y="249" width="22" height="22"/><rect class="cls-3" x="117" y="260" width="22" height="22"/><rect class="cls-3" x="106" y="271" width="22" height="22"/><rect class="cls-3" x="95" y="293" width="22" height="22"/><rect class="cls-3" x="95" y="315" width="22" height="22"/><rect class="cls-3" x="106" y="326" width="22" height="22"/><rect class="cls-3" x="117" y="337" width="22" height="22"/><rect class="cls-3" x="128" y="348" width="22" height="22"/><rect class="cls-3" x="139" y="359" width="22" height="22"/><rect class="cls-3" x="150" y="370" width="22" height="22"/><rect class="cls-3" x="172" y="370" width="22" height="22"/><rect class="cls-3" x="183" y="380.99" width="22" height="22"/><rect class="cls-3" x="205" y="380.99" width="22" height="22"/><rect class="cls-3" x="227" y="380.99" width="22" height="22"/><rect class="cls-10" x="249" y="380.99" width="22" height="22"/><rect class="cls-3" x="249" y="216" width="22" height="22"/><rect class="cls-3" x="271" y="216" width="22" height="22"/><rect class="cls-3" x="293" y="227" width="22" height="22"/><rect class="cls-3" x="315" y="227" width="22" height="22"/><rect class="cls-3" x="337" y="238" width="22" height="22"/><rect class="cls-3" x="359" y="249" width="22" height="22"/><rect class="cls-3" x="381" y="260" width="22" height="22"/><rect class="cls-3" x="392" y="271" width="22" height="22"/><rect class="cls-3" x="403" y="293" width="22" height="22"/><rect class="cls-3" x="403" y="315" width="22" height="22"/><rect class="cls-3" x="392" y="326" width="22" height="22"/><rect class="cls-3" x="381" y="337" width="22" height="22"/><rect class="cls-3" x="370" y="348" width="22" height="22"/><rect class="cls-3" x="359" y="359" width="22" height="22"/><rect class="cls-3" x="348" y="370" width="22" height="22"/><rect class="cls-3" x="326" y="370" width="22" height="22"/><rect class="cls-3" x="315" y="380.99" width="22" height="22"/><rect class="cls-3" x="293" y="380.99" width="22" height="22"/><rect class="cls-3" x="271" y="380.99" width="22" height="22"/><rect class="cls-3" x="243.74" y="380.99" width="27.26" height="22"/><rect class="cls-12" x="271" y="403.7" width="22" height="22"/><rect class="cls-12" x="249" y="403.7" width="22" height="22"/><rect class="cls-12" x="227" y="403.7" width="22" height="22"/><rect class="cls-12" x="205" y="403.7" width="22" height="22"/><rect class="cls-12" x="183" y="403.7" width="22" height="22"/><rect class="cls-12" x="161" y="403.7" width="22" height="22"/><rect class="cls-12" x="139" y="403.7" width="22" height="22"/><rect class="cls-12" x="117" y="392.7" width="22" height="22"/><rect class="cls-12" x="95" y="381.7" width="22" height="22"/><rect class="cls-12" x="73" y="370.7" width="22" height="22"/><rect class="cls-12" x="51" y="359.7" width="22" height="22"/><rect class="cls-12" x="40" y="348.7" width="22" height="22"/><rect class="cls-12" x="40" y="326.7" width="22" height="22"/><rect class="cls-12" x="40" y="304.71" width="22" height="22"/><rect class="cls-12" x="51" y="293.71" width="22" height="22"/><rect class="cls-12" x="62" y="271.71" width="22" height="22"/><rect class="cls-12" x="73" y="249.71" width="22" height="22"/><rect class="cls-12" x="84" y="227.71" width="22" height="22"/><rect class="cls-12" x="95" y="205.71" width="22" height="22"/><rect class="cls-12" x="106" y="183.71" width="22" height="22"/><rect class="cls-12" x="117" y="172.71" width="22" height="22"/><rect class="cls-12" x="128" y="161.71" width="22" height="22"/><rect class="cls-12" x="150" y="161.71" width="22" height="22"/><rect class="cls-12" x="161" y="150.71" width="22" height="22"/><rect class="cls-12" x="172" y="139.71" width="22" height="22"/><rect class="cls-12" x="194" y="139.71" width="22" height="22"/><rect class="cls-12" x="205" y="139.71" width="22" height="22"/><rect class="cls-12" x="216" y="128.71" width="22" height="22"/><rect class="cls-12" x="227" y="117.71" width="22" height="22"/><rect class="cls-12" x="238" y="106.71" width="22" height="22"/><rect class="cls-12" x="260" y="106.71" width="22" height="22"/><rect class="cls-12" x="249" y="94.3" width="22" height="22"/><rect class="cls-12" x="249" y="403.7" width="22" height="22"/><rect class="cls-12" x="271" y="403.7" width="22" height="22"/><rect class="cls-12" x="293" y="403.7" width="22" height="22"/><rect class="cls-12" x="315" y="403.7" width="22" height="22"/><rect class="cls-12" x="337" y="403.7" width="22" height="22"/><rect class="cls-12" x="359" y="403.7" width="22" height="22"/><rect class="cls-12" x="381" y="392.7" width="22" height="22"/><rect class="cls-12" x="403" y="381.7" width="22" height="22"/><rect class="cls-12" x="425" y="370.7" width="22" height="22"/><rect class="cls-12" x="447" y="359.7" width="22" height="22"/><rect class="cls-12" x="458" y="348.7" width="22" height="22"/><rect class="cls-12" x="458" y="326.7" width="22" height="22"/><rect class="cls-12" x="458" y="304.71" width="22" height="22"/><rect class="cls-12" x="447" y="293.71" width="22" height="22"/><rect class="cls-12" x="436" y="271.71" width="22" height="22"/><rect class="cls-12" x="425" y="249.71" width="22" height="22"/><rect class="cls-12" x="414" y="227.71" width="22" height="22"/><rect class="cls-12" x="403" y="205.71" width="22" height="22"/><rect class="cls-12" x="392" y="183.71" width="22" height="22"/><rect class="cls-12" x="381" y="172.71" width="22" height="22"/><rect class="cls-12" x="370" y="161.71" width="22" height="22"/><rect class="cls-12" x="348" y="161.71" width="22" height="22"/><rect class="cls-12" x="337" y="150.71" width="22" height="22"/><rect class="cls-12" x="326" y="139.71" width="22" height="22"/><rect class="cls-12" x="304" y="139.71" width="22" height="22"/><rect class="cls-12" x="293" y="139.71" width="22" height="22"/><rect class="cls-12" x="282" y="128.71" width="22" height="22"/><rect class="cls-12" x="271" y="117.71" width="22" height="22"/><rect class="cls-12" x="337" y="403.7" width="22" height="22"/><rect class="cls-12" x="315" y="403.7" width="22" height="22"/><rect class="cls-12" x="293" y="403.7" width="22" height="22"/><rect class="cls-13" x="100.15" y="319.97" width="22" height="22"/><rect class="cls-13" x="398.76" y="319.97" width="22" height="22"/><rect class="cls-1" x="223.89" y="209.52" width="33.55" height="31.76"/><rect class="cls-1" x="227" y="238" width="22" height="22"/><rect class="cls-1" x="205" y="231.74" width="22" height="22"/><rect class="cls-1" x="205" y="209.74" width="22" height="22"/><rect class="cls-1" x="216" y="194" width="61.53" height="22"/><rect class="cls-1" x="227" y="183" width="22" height="22"/><rect class="cls-1" x="249" y="183" width="22" height="22"/><rect class="cls-1" x="260" y="189.04" width="22" height="22"/><rect class="cls-1" x="274.8" y="194" width="22" height="22"/><rect class="cls-1" x="293" y="200.04" width="22" height="22"/><rect class="cls-1" x="304" y="211.04" width="22" height="22"/><rect class="cls-1" x="293" y="233.04" width="22" height="22"/><rect class="cls-1" x="205" y="227" width="22" height="22"/><rect class="cls-1" x="249" y="203.7" width="22" height="45.3"/><rect class="cls-1" x="254.08" y="206.61" width="38.92" height="31.39"/><rect class="cls-1" x="282" y="222.04" width="22" height="22"/><rect class="cls-1" x="282" y="244.04" width="22" height="22"/><rect class="cls-1" x="271" y="255.04" width="22" height="22"/><rect class="cls-1" x="304" y="227" width="22" height="22"/><rect class="cls-6" x="150" y="286.09" width="22" height="22"/><rect class="cls-6" x="139" y="297.09" width="22" height="22"/><rect class="cls-6" x="161" y="297.09" width="22" height="22"/><rect class="cls-6" x="150" y="308.09" width="22" height="22"/><rect class="cls-6" x="155.5" y="291.59" width="22" height="22"/><rect class="cls-6" x="144.5" y="291.59" width="22" height="22"/><rect class="cls-6" x="155.5" y="302.59" width="22" height="22"/><rect class="cls-6" x="144.5" y="302.59" width="22" height="22"/><rect class="cls-7" x="150" y="297.09" width="22" height="22"/><rect class="cls-9" x="144.5" y="291.59" width="10.51" height="10.51"/><rect class="cls-9" x="161.49" y="308.09" width="10.51" height="10.51"/><rect class="cls-6" x="355.55" y="286.09" width="22" height="22"/><rect class="cls-6" x="344.55" y="297.09" width="22" height="22"/><rect class="cls-6" x="366.55" y="297.09" width="22" height="22"/><rect class="cls-6" x="355.55" y="308.09" width="22" height="22"/><rect class="cls-6" x="361.05" y="291.59" width="22" height="22"/><rect class="cls-6" x="350.05" y="291.59" width="22" height="22"/><rect class="cls-6" x="361.05" y="302.59" width="22" height="22"/><rect class="cls-6" x="350.05" y="302.59" width="22" height="22"/><rect class="cls-7" x="355.55" y="297.09" width="22" height="22"/><rect class="cls-9" x="350.05" y="291.59" width="10.51" height="10.51"/><rect class="cls-9" x="367.04" y="308.09" width="10.51" height="10.51"/><rect class="cls-2" x="258.56" y="334.51" width="22" height="22"/><rect class="cls-2" x="280.56" y="334.51" width="22" height="22"/><rect class="cls-2" x="236.56" y="334.51" width="22" height="22"/><rect class="cls-2" x="214.56" y="334.51" width="74.86" height="22"/><rect class="cls-2" x="225.56" y="346.03" width="22" height="22"/><rect class="cls-2" x="237.9" y="356.55" width="22" height="22"/><rect class="cls-2" x="270.42" y="346.03" width="22" height="22"/><rect class="cls-11" x="237.9" y="356.54" width="44" height="22"/><rect class="cls-4" x="98" y="167.04" width="22" height="22"/><rect class="cls-4" x="129.2" y="167.04" width="22" height="22"/><rect class="cls-4" x="135.67" y="159.51" width="22" height="22"/><rect class="cls-4" x="135.67" y="150" width="22" height="22"/><rect class="cls-4" x="147.42" y="139.01" width="22" height="22"/><rect class="cls-4" x="142.21" y="153.36" width="22" height="22"/><rect class="cls-4" x="76" y="159.51" width="22" height="22"/><rect class="cls-4" x="92" y="156.04" width="22" height="22"/><rect class="cls-4" x="87" y="150" width="22" height="22"/><rect class="cls-4" x="70" y="145.04" width="22" height="22"/><rect class="cls-4" x="84" y="201.19" width="22" height="22"/><rect class="cls-4" x="106" y="227" width="22" height="22"/><rect class="cls-4" x="145.76" y="197.64" width="22" height="22"/><rect class="cls-4" x="156.76" y="205.86" width="22" height="22"/><rect class="cls-4" x="177.5" y="202.68" width="22" height="22"/><rect class="cls-4" x="156.76" y="190.19" width="22" height="22"/><rect class="cls-4" x="167.76" y="197.64" width="22" height="22"/><rect class="cls-4" x="95" y="234.38" width="22" height="22"/><rect class="cls-4" x="98" y="251.49" width="22" height="22"/><rect class="cls-4" x="110.7" y="238.74" width="22" height="22"/><rect class="cls-4" x="71.7" y="195.61" width="22" height="22"/><rect class="cls-4" x="56.71" y="198.74" width="22" height="22"/><rect class="cls-4" x="48" y="206.61" width="22" height="22"/><rect class="cls-4" x="57.84" y="211.31" width="22" height="22"/><rect class="cls-4" x="71.7" y="206.61" width="22" height="22"/><rect class="cls-8" x="118.93" y="196.63" width="13.01" height="13.01"/><rect class="cls-8" x="100.3" y="192.14" width="13.01" height="13.01"/><rect class="cls-8" x="118.93" y="179.13" width="13.01" height="13.01"/><rect class="cls-8" x="137.99" y="192.14" width="13.01" height="13.01"/><rect class="cls-8" x="109.59" y="213.14" width="13.01" height="13.01"/><rect class="cls-8" x="128.26" y="213.14" width="13.01" height="13.01"/></svg>