<?xml version="1.0" encoding="UTF-8"?><svg id="_圖層_1" xmlns="http://www.w3.org/2000/svg" viewBox="0 0 520 520"><defs><style>.cls-1{fill:#4e2210;}.cls-1,.cls-2,.cls-3,.cls-4,.cls-5,.cls-6,.cls-7,.cls-8,.cls-9,.cls-10,.cls-11,.cls-12,.cls-13,.cls-14{stroke-width:0px;}.cls-2{fill:#e73c44;}.cls-3{fill:#fada9f;}.cls-4{fill:#e83942;}.cls-5{fill:#231815;}.cls-6{fill:#44180a;}.cls-7{fill:#210f0a;}.cls-8{fill:#f39943;}.cls-9{fill:#fff;}.cls-10{fill:#db9526;}.cls-11{fill:#bb9d5f;}.cls-12{fill:#e94e70;}.cls-13{fill:#e9506e;}.cls-14{fill:#e77a80;}</style></defs><polygon class="cls-5" points="118.95 508.3 118.95 465.31 135.44 465.31 135.44 419.31 127.95 419.31 127.95 430.31 105.95 430.31 105.95 441.31 94.95 441.31 94.95 463.31 52.95 463.31 52.95 452.31 41.95 452.31 41.95 410.31 52.95 410.31 52.95 399.31 63.95 399.31 63.95 388.31 85.95 388.31 85.95 377.31 107.95 377.31 107.95 366.31 118.95 366.31 118.95 355.31 151.94 355.31 151.94 344.81 206.94 344.81 206.94 334.81 248.94 334.81 248.94 344.81 270.56 344.81 270.56 334.81 312.56 334.81 312.56 344.81 367.56 344.81 367.56 355.31 400.56 355.31 400.56 366.31 411.56 366.31 411.56 377.31 433.56 377.31 433.56 388.31 455.55 388.31 455.55 399.31 466.55 399.31 466.55 410.31 477.55 410.31 477.55 452.31 466.55 452.31 466.55 463.31 424.55 463.31 424.55 441.31 413.55 441.31 413.55 430.31 391.56 430.31 391.56 419.31 384.06 419.31 384.06 465.3 391.41 465.3 400.56 466.88 400.57 475.31 400.57 508.3 118.95 508.3"/><polygon class="cls-5" points="479 224.32 479 213.32 468 213.32 468 191.32 457 191.32 457 169.32 446 169.32 446 147.32 435 147.32 435 125.32 424 125.32 424 103.32 413 103.32 413 92.32 402 92.32 402 81.32 369 81.32 369 70.32 358 70.32 358 59.32 314 59.32 314 48.32 303 48.32 303 37.32 292 37.32 292 26.32 281 26.32 281 13.91 239 13.91 239 26.32 228 26.32 228 37.32 217 37.32 217 48.32 206 48.32 206 59.32 179.42 59.32 179.42 58.62 137.42 58.62 137.42 69.61 125.67 69.61 125.67 81.32 124 81.32 124 75.65 119 75.65 119 69.61 102 69.61 102 64.65 60 64.65 60 106.65 66 106.65 66 115.22 61.7 115.22 61.7 118.35 46.71 118.35 46.71 126.22 38 126.22 38 168.22 47.84 168.22 47.84 172.92 63 172.92 63 191.32 52 191.32 52 213.32 41 213.32 41 224.32 30 224.32 30 310.31 41 310.31 41 321.31 63 321.31 63 332.31 85 332.31 85 343.31 107 343.31 107 354.31 129 354.31 129 365.31 391 365.31 391 354.31 413 354.31 413 343.31 435 343.31 435 332.31 457 332.31 457 321.31 479 321.31 479 310.31 490 310.31 490 224.32 479 224.32"/><polygon class="cls-13" points="469 234.32 469 223.32 458 223.32 458 201.32 447 201.32 447 179.32 436 179.32 436 157.32 425 157.32 425 135.32 414 135.32 414 113.32 403 113.32 403 102.32 392 102.32 392 91.32 370 91.32 359 91.32 359 80.32 348 80.32 348 69.32 326 69.32 315 69.32 304 69.32 304 58.32 293 58.32 293 47.32 282 47.32 282 36.32 271 36.32 271 23.91 249 23.91 249 36.32 238 36.32 238 47.32 227 47.32 227 58.32 216 58.32 216 69.32 205 69.32 194 69.32 172 69.32 172 80.32 161 80.32 161 91.32 150 91.32 128 91.32 128 102.32 117 102.32 117 113.32 106 113.32 106 135.32 95 135.32 95 157.32 84 157.32 84 179.32 73 179.32 73 201.32 62 201.32 62 223.32 51 223.32 51 234.32 40 234.32 40 256.31 40 278.31 40 300.31 51 300.31 51 311.31 73 311.31 73 322.31 95 322.31 95 333.31 117 333.31 117 344.31 139 344.31 139 355.31 161 355.31 183 355.31 205 355.31 227 355.31 249 355.31 271 355.31 293 355.31 315 355.31 337 355.31 359 355.31 381 355.31 381 344.31 403 344.31 403 333.31 425 333.31 425 322.31 447 322.31 447 311.31 469 311.31 469 300.31 480 300.31 480 278.31 480 256.31 480 234.32 469 234.32"/><polygon class="cls-3" points="414 222.61 414 200.61 403 200.61 403 189.61 381 189.61 381 178.61 359 178.61 359 167.61 337 167.61 337 156.61 315 156.61 293 156.61 293 145.61 271 145.61 249 145.61 205 166 205 156.61 183 156.61 183 167.61 161 167.61 161 178.61 139 178.61 139 189.61 117 189.61 117 200.61 106 200.61 106 222.61 95 222.61 95 244.61 95 266.61 106 266.61 106 277.61 117 277.61 117 288.61 128 288.61 128 299.61 139 299.61 139 310.6 150 310.6 150 321.6 172 321.6 183 321.6 183 332.6 205 332.6 227 332.6 243.74 332.6 249 332.6 271 332.6 293 332.6 315 332.6 337 332.6 337 321.6 348 321.6 370 321.6 370 310.6 381 310.6 381 299.61 392 299.61 392 288.61 403 288.61 403 277.61 414 277.61 414 266.61 425 266.61 425 244.61 425 222.61 414 222.61"/><rect class="cls-14" x="100.15" y="249.58" width="22" height="22"/><rect class="cls-14" x="398.76" y="249.58" width="22" height="22"/><polygon class="cls-1" points="315 140.65 315 129.65 296.8 129.65 296.8 123.61 282 123.61 282 118.65 271 118.65 271 112.61 249 112.61 227 112.61 227 123.61 216 123.61 216 139.35 205 139.35 205 156.61 205 161.35 205 178.61 205 183.35 227 183.35 227 189.61 249 189.61 249 178.61 271 178.61 271 167.61 282 167.61 282 173.65 282 184.65 271 184.65 271 206.65 293 206.65 293 195.65 304 195.65 304 184.65 315 184.65 315 178.61 326 178.61 326 162.65 326 156.61 326 140.65 315 140.65"/><rect class="cls-6" x="150" y="215.7" width="22" height="22"/><rect class="cls-6" x="139" y="226.7" width="22" height="22"/><rect class="cls-6" x="161" y="226.7" width="22" height="22"/><rect class="cls-6" x="150" y="237.7" width="22" height="22"/><rect class="cls-6" x="155.5" y="221.2" width="22" height="22"/><rect class="cls-6" x="144.5" y="221.2" width="22" height="22"/><rect class="cls-6" x="155.5" y="232.2" width="22" height="22"/><rect class="cls-6" x="144.5" y="232.2" width="22" height="22"/><rect class="cls-7" x="150" y="226.7" width="22" height="22"/><rect class="cls-9" x="144.5" y="221.2" width="10.51" height="10.51"/><rect class="cls-9" x="161.49" y="237.7" width="10.51" height="10.51"/><rect class="cls-6" x="355.55" y="215.7" width="22" height="22"/><rect class="cls-6" x="344.55" y="226.7" width="22" height="22"/><rect class="cls-6" x="366.55" y="226.7" width="22" height="22"/><rect class="cls-6" x="355.55" y="237.7" width="22" height="22"/><rect class="cls-6" x="361.05" y="221.2" width="22" height="22"/><rect class="cls-6" x="350.05" y="221.2" width="22" height="22"/><rect class="cls-6" x="361.05" y="232.2" width="22" height="22"/><rect class="cls-6" x="350.05" y="232.2" width="22" height="22"/><rect class="cls-7" x="355.55" y="226.7" width="22" height="22"/><rect class="cls-9" x="350.05" y="221.2" width="10.51" height="10.51"/><rect class="cls-9" x="367.04" y="237.7" width="10.51" height="10.51"/><rect class="cls-2" x="258.56" y="264.12" width="22" height="22"/><rect class="cls-2" x="236.56" y="264.12" width="22" height="22"/><rect class="cls-2" x="237.9" y="286.16" width="22" height="22"/><polygon class="cls-2" points="302.56 264.12 289.42 264.12 289.42 264.12 214.56 264.12 214.56 286.12 225.56 286.12 225.56 297.64 247.56 297.64 247.56 286.12 270.42 286.12 270.42 297.64 292.42 297.64 292.42 286.12 302.56 286.12 302.56 264.12"/><rect class="cls-12" x="237.9" y="286.16" width="44" height="22"/><polygon class="cls-4" points="169.42 68.62 147.42 68.62 147.42 79.62 135.67 79.62 135.67 89.12 135.67 96.65 129.2 96.65 129.2 118.65 151.2 118.65 151.2 111.12 157.67 111.12 157.67 104.97 164.21 104.97 164.21 90.61 169.42 90.61 169.42 68.62"/><polygon class="cls-4" points="114 96.65 114 85.65 109 85.65 109 79.62 92 79.62 92 74.65 70 74.65 70 96.65 76 96.65 76 111.12 98 111.12 98 118.65 120 118.65 120 96.65 114 96.65"/><polygon class="cls-4" points="199.5 132.29 189.76 132.29 189.76 127.25 178.76 127.25 178.76 119.8 156.76 119.8 156.76 127.25 145.76 127.25 145.76 149.25 156.76 149.25 156.76 157.47 178.76 157.47 178.76 154.29 199.5 154.29 199.5 132.29"/><polygon class="cls-4" points="132.7 168.35 128 168.35 128 156.61 106 156.61 106 163.99 95 163.99 95 185.99 98 185.99 98 203.1 120 203.1 120 190.35 132.7 190.35 132.7 168.35"/><polygon class="cls-4" points="106 130.8 93.7 130.8 93.7 125.22 71.7 125.22 71.7 128.35 56.71 128.35 56.71 136.22 48 136.22 48 158.22 57.84 158.22 57.84 162.91 79.84 162.91 79.84 158.22 93.7 158.22 93.7 152.8 106 152.8 106 130.8"/><rect class="cls-8" x="118.93" y="126.24" width="13.01" height="13.01"/><rect class="cls-8" x="100.3" y="121.75" width="13.01" height="13.01"/><rect class="cls-8" x="118.93" y="108.74" width="13.01" height="13.01"/><rect class="cls-8" x="137.99" y="121.75" width="13.01" height="13.01"/><rect class="cls-8" x="109.59" y="142.75" width="13.01" height="13.01"/><rect class="cls-8" x="128.26" y="142.75" width="13.01" height="13.01"/><rect class="cls-10" x="216.94" y="354.81" width="22" height="22"/><rect class="cls-10" x="216.94" y="354.81" width="22" height="22"/><rect class="cls-10" x="280.56" y="354.81" width="22" height="22"/><rect class="cls-10" x="280.56" y="354.81" width="22" height="22"/><polygon class="cls-2" points="390.56 475.31 390.56 475.3 379.56 475.3 374.06 475.3 374.06 464.31 374.06 453.31 374.06 442.31 374.06 431.31 374.06 420.31 374.06 409.31 363.06 409.31 357.56 409.31 357.56 398.81 357.56 387.81 357.56 376.81 346.56 376.81 336.77 376.81 331.13 364.23 334.19 359.81 276.5 361.44 276.5 354.81 265.5 354.81 254.5 354.81 243.5 354.81 243.5 362.37 177.5 364.23 174.67 376.81 172.94 376.81 161.94 376.81 161.94 387.81 161.94 398.81 161.94 409.31 156.44 409.31 145.44 409.31 145.44 420.31 145.44 431.31 145.44 442.31 145.44 453.31 145.44 464.31 145.44 475.3 128.95 475.31 128.95 486.31 128.95 497.3 128.95 498.3 216.15 498.3 303.36 498.3 390.57 498.3 390.57 497.3 390.57 486.31 390.57 475.31 390.56 475.31"/><polygon class="cls-3" points="139.94 365.31 128.95 365.31 128.95 376.31 117.95 376.31 117.95 387.31 95.95 387.31 95.95 398.31 73.95 398.31 73.95 409.31 62.95 409.31 62.95 420.31 51.95 420.31 51.95 442.31 62.95 442.31 62.95 453.31 84.95 453.31 84.95 431.31 95.95 431.31 95.95 420.31 117.95 420.31 117.95 409.31 139.94 409.31 139.95 409.31 161.94 409.31 161.94 387.31 161.94 365.31 150.95 365.31 139.94 365.31"/><polygon class="cls-3" points="467.55 420.31 456.55 420.31 456.55 409.31 445.55 409.31 445.55 398.31 423.56 398.31 423.56 387.31 401.56 387.31 401.56 376.31 390.56 376.31 390.56 365.31 379.56 365.31 368.56 365.31 357.56 365.31 357.56 387.31 357.56 409.31 379.56 409.31 379.56 409.31 401.56 409.31 401.56 420.31 423.55 420.31 423.55 431.31 434.55 431.31 434.55 453.31 456.55 453.31 456.55 442.31 467.55 442.31 467.55 420.31"/><rect class="cls-8" x="190.61" y="425.3" width="13.01" height="13.01"/><rect class="cls-8" x="171.98" y="420.81" width="13.01" height="13.01"/><rect class="cls-8" x="190.61" y="407.79" width="13.01" height="13.01"/><rect class="cls-8" x="209.68" y="420.81" width="13.01" height="13.01"/><rect class="cls-8" x="181.27" y="441.81" width="13.01" height="13.01"/><rect class="cls-8" x="199.94" y="441.81" width="13.01" height="13.01"/><rect class="cls-8" x="164.9" y="474.23" width="8.12" height="8.12"/><rect class="cls-8" x="153.28" y="471.43" width="8.12" height="8.12"/><rect class="cls-8" x="164.9" y="463.31" width="8.12" height="8.12"/><rect class="cls-8" x="176.8" y="471.43" width="8.12" height="8.12"/><rect class="cls-8" x="159.08" y="484.53" width="8.12" height="8.12"/><rect class="cls-8" x="170.73" y="484.53" width="8.12" height="8.12"/><polygon class="cls-11" points="238.94 344.81 216.94 344.81 216.94 354.81 205.94 354.81 183.94 354.81 161.94 354.81 161.94 376.81 183.94 376.81 205.94 376.81 227.94 376.81 249.94 376.81 249.94 354.81 238.94 354.81 238.94 344.81"/><polygon class="cls-11" points="335.56 354.81 313.56 354.81 302.56 354.81 302.56 344.81 280.56 344.81 280.56 354.81 269.56 354.81 269.56 376.81 291.56 376.81 313.56 376.81 335.56 376.81 357.56 376.81 357.56 354.81 335.56 354.81"/></svg>