<?xml version="1.0" encoding="UTF-8"?><svg id="_圖層_1" xmlns="http://www.w3.org/2000/svg" viewBox="0 0 520 520"><defs><style>.cls-1{fill:#dfa880;}.cls-1,.cls-2,.cls-3,.cls-4,.cls-5,.cls-6,.cls-7,.cls-8,.cls-9,.cls-10{stroke-width:0px;}.cls-2{fill:#4d4d4d;}.cls-3{fill:#dd6664;}.cls-4{fill:#231815;}.cls-5{fill:#fff;}.cls-6{fill:#c38961;}.cls-7{fill:#343d72;}.cls-8{fill:#a93224;}.cls-9{fill:#191919;}.cls-10{fill:#323333;}</style></defs><polygon class="cls-4" points="456.73 506.09 456.72 351.64 438.03 351.64 438.03 334.25 419.27 334.25 419.27 312.9 382.35 312.9 382.35 276.29 400.58 276.29 400.58 220.84 419.73 220.84 419.74 51.3 382.35 51.3 382.35 13.91 138.04 13.91 138.04 51.3 100.66 51.3 100.66 220.84 116 220.84 116 276.29 138.04 276.29 138.04 312.9 100.73 312.9 100.73 334.25 81.97 334.25 81.97 351.64 63.34 351.64 63.34 506.09 120.73 506.09 120.73 455.64 138.04 455.64 138.04 506.09 382.35 506.09 382.35 455.17 399.34 455.17 399.34 506.09 456.73 506.09"/><rect class="cls-1" x="409.34" y="428.25" width="37.39" height="67.83"/><rect class="cls-6" x="204.12" y="314.79" width="117.56" height="88.85"/><rect class="cls-1" x="126" y="184.19" width="37.38" height="82.1"/><rect class="cls-1" x="353.19" y="184.19" width="37.38" height="82.1"/><rect class="cls-7" x="349.61" y="322.9" width="59.66" height="105.35"/><rect class="cls-7" x="110.73" y="322.9" width="59.66" height="105.35"/><rect class="cls-7" x="188.67" y="356.64" width="53.65" height="138.8"/><rect class="cls-7" x="278.08" y="356.64" width="53.65" height="138.8"/><rect class="cls-7" x="148.04" y="376.89" width="224.31" height="119.19"/><polygon class="cls-1" points="372.35 173.45 372.35 98.68 148.04 98.68 148.04 173.45 110.66 173.45 110.66 210.83 148.04 210.83 148.04 306.05 185.43 306.05 185.43 322.99 334.97 322.99 334.97 306.05 372.35 306.05 372.35 210.83 409.73 210.83 409.73 173.45 372.35 173.45"/><rect class="cls-9" x="185.43" y="173.45" width="37.38" height="17.29"/><rect class="cls-9" x="297.58" y="173.45" width="37.39" height="17.29"/><rect class="cls-9" x="325.62" y="182.09" width="18.69" height="17.29"/><rect class="cls-9" x="288.23" y="182.09" width="18.69" height="17.29"/><rect class="cls-6" x="236.66" y="231.61" width="23.54" height="21.77"/><rect class="cls-6" x="260.2" y="231.61" width="23.54" height="21.77"/><rect class="cls-6" x="248.43" y="200.66" width="23.54" height="52.72"/><rect class="cls-9" x="213.47" y="182.09" width="18.69" height="17.29"/><rect class="cls-10" x="215.51" y="141.5" width="18.69" height="17.29"/><rect class="cls-10" x="196.82" y="132.86" width="18.69" height="17.29"/><rect class="cls-10" x="178.12" y="132.86" width="18.69" height="17.29"/><rect class="cls-10" x="288.23" y="141.5" width="18.69" height="17.29"/><rect class="cls-10" x="306.93" y="132.86" width="18.69" height="17.29"/><rect class="cls-10" x="325.62" y="132.86" width="18.69" height="17.29"/><rect class="cls-9" x="176.08" y="182.09" width="18.69" height="17.29"/><polygon class="cls-1" points="372.35 98.68 372.35 61.3 334.97 61.3 334.97 23.91 185.43 23.91 185.43 61.3 148.04 61.3 148.04 98.68 110.66 98.68 110.66 136.06 110.66 173.45 148.04 173.45 148.04 136.06 297.58 136.06 334.97 136.06 372.35 136.06 372.35 173.45 409.73 173.45 409.73 136.06 409.73 98.68 372.35 98.68"/><rect class="cls-6" x="110.66" y="98.68" width="37.38" height="74.77"/><rect class="cls-6" x="371.88" y="98.68" width="37.38" height="74.77"/><rect class="cls-6" x="148.04" y="61.3" width="37.39" height="37.38"/><rect class="cls-6" x="178.12" y="23.91" width="81.88" height="18.69"/><rect class="cls-1" x="334.97" y="61.3" width="37.39" height="37.38"/><polygon class="cls-2" points="110.66 83.98 110.66 98.68 110.66 136.06 148.04 136.06 148.04 98.68 148.04 83.98 148.04 61.3 110.66 61.3 110.66 83.98"/><polygon class="cls-2" points="148.05 23.91 148.05 39.09 148.05 51.95 148.05 79.99 185.43 79.99 185.43 51.95 185.43 39.09 185.43 23.91 148.05 23.91"/><polygon class="cls-2" points="409.74 83.98 409.74 98.68 409.74 136.06 372.35 136.06 372.35 98.68 372.35 83.98 372.35 61.3 409.74 61.3 409.74 83.98"/><polygon class="cls-2" points="372.35 23.91 372.35 39.09 372.35 51.95 372.35 79.99 334.97 79.99 334.97 51.95 334.97 39.09 334.97 23.91 372.35 23.91"/><rect class="cls-1" x="73.34" y="428.25" width="37.39" height="67.83"/><rect class="cls-7" x="91.97" y="344.25" width="37.38" height="101.38"/><rect class="cls-7" x="73.34" y="361.64" width="37.38" height="84"/><rect class="cls-7" x="409.34" y="361.64" width="37.38" height="84"/><rect class="cls-7" x="390.65" y="344.25" width="37.38" height="100.92"/><rect class="cls-5" x="242.32" y="265.54" width="35.76" height="15.77"/><rect class="cls-3" x="224.88" y="265.54" width="17.88" height="15.77"/><rect class="cls-3" x="278.08" y="265.54" width="17.88" height="15.77"/><rect class="cls-7" x="242.32" y="446.13" width="35.77" height="35.76"/><rect class="cls-7" x="251.57" y="410.37" width="17.25" height="85.72"/><rect class="cls-7" x="242.32" y="410.37" width="35.77" height="35.76"/><rect class="cls-7" x="242.12" y="376.89" width="35.77" height="35.76"/><rect class="cls-7" x="206.55" y="356.64" width="35.77" height="35.76"/><rect class="cls-7" x="188.67" y="356.64" width="35.77" height="35.76"/><rect class="cls-7" x="163.38" y="322.99" width="43.17" height="67.38"/><rect class="cls-7" x="313.85" y="322.99" width="46.13" height="58.18"/><rect class="cls-7" x="278.08" y="356.64" width="35.77" height="35.76"/><rect class="cls-7" x="295.96" y="356.64" width="35.77" height="35.76"/><rect class="cls-3" x="242.32" y="273.43" width="35.76" height="15.77"/><rect class="cls-6" x="166.74" y="61.3" width="18.69" height="37.38"/><rect class="cls-1" x="324.74" y="61.3" width="28.91" height="37.38"/><polygon class="cls-5" points="295.13 426.12 295.13 419.77 295.13 413.42 295.13 407.07 288.78 407.07 288.78 400.72 282.43 400.72 276.07 400.72 276.07 394.36 269.72 394.36 263.37 394.36 257.02 394.36 250.67 394.36 244.32 394.36 244.32 400.72 237.97 400.72 231.62 400.72 231.62 407.07 225.27 407.07 225.27 413.42 225.27 419.77 218.92 419.77 218.92 426.12 218.92 432.47 218.92 438.82 218.92 445.17 218.92 451.52 225.27 451.52 225.27 457.87 225.27 464.22 231.62 464.22 231.62 470.57 237.97 470.57 244.32 470.57 244.32 476.92 250.67 476.92 257.02 476.92 263.37 476.92 269.72 476.92 276.07 476.92 276.07 470.57 282.43 470.57 288.78 470.57 288.78 464.22 295.13 464.22 295.13 457.87 295.13 451.52 301.48 451.52 301.48 445.17 301.48 438.82 301.48 432.47 301.48 426.12 295.13 426.12"/><rect class="cls-5" x="244.32" y="394.36" width="6.35" height="6.35"/><rect class="cls-5" x="250.67" y="394.36" width="6.35" height="6.35"/><rect class="cls-8" x="257.02" y="394.36" width="6.35" height="6.35"/><rect class="cls-5" x="263.37" y="394.36" width="6.35" height="6.35"/><rect class="cls-5" x="269.72" y="394.36" width="6.35" height="6.35"/><rect class="cls-5" x="231.62" y="400.71" width="6.35" height="6.35"/><rect class="cls-5" x="237.97" y="400.71" width="6.35" height="6.35"/><rect class="cls-5" x="244.32" y="400.71" width="6.35" height="6.35"/><rect class="cls-5" x="250.67" y="400.71" width="6.35" height="6.35"/><rect class="cls-8" x="257.02" y="400.71" width="6.35" height="6.35"/><rect class="cls-5" x="263.37" y="400.71" width="6.35" height="6.35"/><rect class="cls-5" x="269.72" y="400.71" width="6.35" height="6.35"/><rect class="cls-5" x="276.07" y="400.71" width="6.35" height="6.35"/><rect class="cls-5" x="282.43" y="400.71" width="6.35" height="6.35"/><rect class="cls-5" x="225.27" y="407.07" width="6.35" height="6.35"/><rect class="cls-5" x="231.62" y="407.07" width="6.35" height="6.35"/><rect class="cls-5" x="237.97" y="407.07" width="6.35" height="6.35"/><rect class="cls-5" x="244.32" y="407.07" width="6.35" height="6.35"/><rect class="cls-8" x="250.67" y="407.07" width="6.35" height="6.35"/><rect class="cls-5" x="257.02" y="407.07" width="6.35" height="6.35"/><rect class="cls-5" x="263.37" y="407.07" width="6.35" height="6.35"/><rect class="cls-5" x="269.72" y="407.07" width="6.35" height="6.35"/><rect class="cls-5" x="276.07" y="407.07" width="6.35" height="6.35"/><rect class="cls-5" x="282.43" y="407.07" width="6.35" height="6.35"/><rect class="cls-5" x="288.78" y="407.07" width="6.35" height="6.35"/><rect class="cls-5" x="225.27" y="413.42" width="6.35" height="6.35"/><rect class="cls-5" x="231.62" y="413.42" width="6.35" height="6.35"/><rect class="cls-5" x="237.97" y="413.42" width="6.35" height="6.35"/><rect class="cls-5" x="244.32" y="413.42" width="6.35" height="6.35"/><rect class="cls-8" x="250.67" y="413.42" width="6.35" height="6.35"/><rect class="cls-5" x="257.02" y="413.42" width="6.35" height="6.35"/><rect class="cls-5" x="263.37" y="413.42" width="6.35" height="6.35"/><rect class="cls-5" x="269.72" y="413.42" width="6.35" height="6.35"/><rect class="cls-5" x="276.07" y="413.42" width="6.35" height="6.35"/><rect class="cls-5" x="282.43" y="413.42" width="6.35" height="6.35"/><rect class="cls-5" x="288.78" y="413.42" width="6.35" height="6.35"/><rect class="cls-5" x="218.92" y="419.77" width="6.35" height="6.35"/><rect class="cls-5" x="225.27" y="419.77" width="6.35" height="6.35"/><rect class="cls-5" x="231.62" y="419.77" width="6.35" height="6.35"/><rect class="cls-5" x="237.97" y="419.77" width="6.35" height="6.35"/><rect class="cls-8" x="244.32" y="419.77" width="6.35" height="6.35"/><rect class="cls-5" x="250.67" y="419.77" width="6.35" height="6.35"/><rect class="cls-5" x="257.02" y="419.77" width="6.35" height="6.35"/><rect class="cls-5" x="263.37" y="419.77" width="6.35" height="6.35"/><rect class="cls-5" x="269.72" y="419.77" width="6.35" height="6.35"/><rect class="cls-5" x="276.07" y="419.77" width="6.35" height="6.35"/><rect class="cls-5" x="282.43" y="419.77" width="6.35" height="6.35"/><rect class="cls-5" x="288.78" y="419.77" width="6.35" height="6.35"/><rect class="cls-5" x="218.92" y="426.12" width="6.35" height="6.35"/><rect class="cls-5" x="225.27" y="426.12" width="6.35" height="6.35"/><rect class="cls-8" x="231.62" y="426.12" width="6.35" height="6.35"/><rect class="cls-8" x="237.97" y="426.12" width="6.35" height="6.35"/><rect class="cls-5" x="244.32" y="426.12" width="6.35" height="6.35"/><rect class="cls-5" x="250.67" y="426.12" width="6.35" height="6.35"/><rect class="cls-5" x="257.02" y="426.12" width="6.35" height="6.35"/><rect class="cls-5" x="263.37" y="426.12" width="6.35" height="6.35"/><rect class="cls-5" x="269.72" y="426.12" width="6.35" height="6.35"/><rect class="cls-5" x="276.07" y="426.12" width="6.35" height="6.35"/><rect class="cls-5" x="282.43" y="426.12" width="6.35" height="6.35"/><rect class="cls-5" x="288.78" y="426.12" width="6.35" height="6.35"/><rect class="cls-5" x="295.13" y="426.12" width="6.35" height="6.35"/><rect class="cls-8" x="218.92" y="432.47" width="6.35" height="6.35"/><rect class="cls-8" x="225.27" y="432.47" width="6.35" height="6.35"/><rect class="cls-5" x="231.62" y="432.47" width="6.35" height="6.35"/><rect class="cls-5" x="237.97" y="432.47" width="6.35" height="6.35"/><rect class="cls-5" x="244.32" y="432.47" width="6.35" height="6.35"/><rect class="cls-5" x="250.67" y="432.47" width="6.35" height="6.35"/><rect class="cls-5" x="257.02" y="432.47" width="6.35" height="6.35"/><rect class="cls-5" x="263.37" y="432.47" width="6.35" height="6.35"/><rect class="cls-5" x="269.72" y="432.47" width="6.35" height="6.35"/><rect class="cls-5" x="276.07" y="432.47" width="6.35" height="6.35"/><rect class="cls-5" x="282.43" y="432.47" width="6.35" height="6.35"/><rect class="cls-8" x="288.78" y="432.47" width="6.35" height="6.35"/><rect class="cls-8" x="295.13" y="432.47" width="6.35" height="6.35"/><rect class="cls-5" x="218.92" y="438.82" width="6.35" height="6.35"/><rect class="cls-5" x="225.27" y="438.82" width="6.35" height="6.35"/><rect class="cls-5" x="231.62" y="438.82" width="6.35" height="6.35"/><rect class="cls-5" x="237.97" y="438.82" width="6.35" height="6.35"/><rect class="cls-5" x="244.32" y="438.82" width="6.35" height="6.35"/><rect class="cls-5" x="250.67" y="438.82" width="6.35" height="6.35"/><rect class="cls-5" x="257.02" y="438.82" width="6.35" height="6.35"/><rect class="cls-5" x="263.37" y="438.82" width="6.35" height="6.35"/><rect class="cls-5" x="269.72" y="438.82" width="6.35" height="6.35"/><rect class="cls-8" x="276.07" y="438.82" width="6.35" height="6.35"/><rect class="cls-8" x="282.43" y="438.82" width="6.35" height="6.35"/><rect class="cls-5" x="288.78" y="438.82" width="6.35" height="6.35"/><rect class="cls-5" x="295.13" y="438.82" width="6.35" height="6.35"/><rect class="cls-5" x="218.92" y="445.17" width="6.35" height="6.35"/><rect class="cls-5" x="225.27" y="445.17" width="6.35" height="6.35"/><rect class="cls-5" x="231.62" y="445.17" width="6.35" height="6.35"/><rect class="cls-5" x="237.97" y="445.17" width="6.35" height="6.35"/><rect class="cls-5" x="244.32" y="445.17" width="6.35" height="6.35"/><rect class="cls-5" x="250.67" y="445.17" width="6.35" height="6.35"/><rect class="cls-5" x="257.02" y="445.17" width="6.35" height="6.35"/><rect class="cls-5" x="263.37" y="445.17" width="6.35" height="6.35"/><rect class="cls-8" x="269.72" y="445.17" width="6.35" height="6.35"/><rect class="cls-5" x="276.07" y="445.17" width="6.35" height="6.35"/><rect class="cls-5" x="282.43" y="445.17" width="6.35" height="6.35"/><rect class="cls-5" x="288.78" y="445.17" width="6.35" height="6.35"/><rect class="cls-5" x="295.13" y="445.17" width="6.35" height="6.35"/><rect class="cls-5" x="225.27" y="451.52" width="6.35" height="6.35"/><rect class="cls-5" x="231.62" y="451.52" width="6.35" height="6.35"/><rect class="cls-5" x="237.97" y="451.52" width="6.35" height="6.35"/><rect class="cls-5" x="244.32" y="451.52" width="6.35" height="6.35"/><rect class="cls-5" x="250.67" y="451.52" width="6.35" height="6.35"/><rect class="cls-5" x="257.02" y="451.52" width="6.35" height="6.35"/><rect class="cls-8" x="263.37" y="451.52" width="6.35" height="6.35"/><rect class="cls-5" x="269.72" y="451.52" width="6.35" height="6.35"/><rect class="cls-5" x="276.07" y="451.52" width="6.35" height="6.35"/><rect class="cls-5" x="282.43" y="451.52" width="6.35" height="6.35"/><rect class="cls-5" x="288.78" y="451.52" width="6.35" height="6.35"/><rect class="cls-5" x="225.27" y="457.87" width="6.35" height="6.35"/><rect class="cls-5" x="231.62" y="457.87" width="6.35" height="6.35"/><rect class="cls-5" x="237.97" y="457.87" width="6.35" height="6.35"/><rect class="cls-5" x="244.32" y="457.87" width="6.35" height="6.35"/><rect class="cls-5" x="250.67" y="457.87" width="6.35" height="6.35"/><rect class="cls-5" x="257.02" y="457.87" width="6.35" height="6.35"/><rect class="cls-8" x="263.37" y="457.87" width="6.35" height="6.35"/><rect class="cls-5" x="269.72" y="457.87" width="6.35" height="6.35"/><rect class="cls-5" x="276.07" y="457.87" width="6.35" height="6.35"/><rect class="cls-5" x="282.43" y="457.87" width="6.35" height="6.35"/><rect class="cls-5" x="288.78" y="457.87" width="6.35" height="6.35"/><rect class="cls-5" x="231.62" y="464.22" width="6.35" height="6.35"/><rect class="cls-5" x="237.97" y="464.22" width="6.35" height="6.35"/><rect class="cls-5" x="244.32" y="464.22" width="6.35" height="6.35"/><rect class="cls-5" x="250.67" y="464.22" width="6.35" height="6.35"/><rect class="cls-8" x="257.02" y="464.22" width="6.35" height="6.35"/><rect class="cls-5" x="263.37" y="464.22" width="6.35" height="6.35"/><rect class="cls-5" x="269.72" y="464.22" width="6.35" height="6.35"/><rect class="cls-5" x="276.07" y="464.22" width="6.35" height="6.35"/><rect class="cls-5" x="282.43" y="464.22" width="6.35" height="6.35"/><rect class="cls-5" x="244.32" y="470.57" width="6.35" height="6.35"/><rect class="cls-5" x="250.67" y="470.57" width="6.35" height="6.35"/><rect class="cls-8" x="257.02" y="470.57" width="6.35" height="6.35"/><rect class="cls-5" x="263.37" y="470.57" width="6.35" height="6.35"/><rect class="cls-5" x="269.72" y="470.57" width="6.35" height="6.35"/></svg>