<?xml version="1.0" encoding="UTF-8"?><svg id="_圖層_1" xmlns="http://www.w3.org/2000/svg" viewBox="0 0 273.21 60"><defs><style>.cls-1{opacity:.5;}.cls-1,.cls-2{fill:#fff;stroke-width:0px;}</style></defs><polygon class="cls-1" points="9.01 10.28 19.56 4.8 37.49 6.33 56.33 3.44 254.22 2.59 258.2 7.5 265.71 14.99 269.84 25.35 265.7 44.99 258.2 52.5 238.37 56.8 44.84 56.8 41.25 52.5 33.74 45.01 28.75 39.44 28.12 25.48 24.92 22.67 22.49 20.55 17.78 16.37 12.58 12.97 9.01 10.28"/><polygon class="cls-2" points="26.24 30.01 26.24 37.51 26.24 45 33.74 45 33.74 37.51 33.74 30.01 33.75 30.01 33.75 22.51 29.99 22.51 29.99 20.55 22.49 20.55 22.49 28.05 26.25 28.05 26.25 30.01 26.24 30.01"/><rect class="cls-2" x="33.74" y="45.01" width="7.5" height="7.5"/><polygon class="cls-2" points="246.96 52.5 243.21 52.5 48.74 52.5 48.74 52.5 41.25 52.5 41.25 60 48.74 60 48.75 60 56.25 60 243.21 60 246.96 60 250.71 60 258.2 60 258.2 52.5 250.71 52.5 246.96 52.5"/><rect class="cls-2" x="258.2" y="44.99" width="7.5" height="7.5"/><polygon class="cls-2" points="265.71 15 265.71 22.49 265.71 29.99 265.7 29.99 265.7 37.49 265.7 44.99 273.2 44.99 273.2 37.49 273.2 29.99 273.21 29.99 273.21 22.49 273.21 15 265.71 15"/><rect class="cls-2" x="258.2" y="7.5" width="7.5" height="7.5"/><polygon class="cls-2" points="250.7 0 246.96 0 243.2 0 48.74 0 41.25 0 41.25 3.75 41.24 3.75 41.24 3.75 33.74 3.75 32.67 3.75 29.99 3.75 29.99 1.79 22.49 1.79 14.99 1.79 7.5 1.79 7.5 5.55 0 5.55 0 13.05 7.5 13.05 7.5 16.8 14.99 16.8 14.99 20.55 22.49 20.55 22.49 13.05 14.99 13.05 14.99 9.3 22.49 9.3 26.24 9.3 26.24 11.25 32.67 11.25 33.74 11.25 41.24 11.25 41.24 7.5 41.25 7.5 42.9 7.5 48.74 7.5 246.96 7.5 246.96 7.5 250.7 7.5 258.2 7.5 258.2 0 250.7 0"/></svg>